<?xml version="1.0" encoding="UTF-8"?>
<svg id="THE_BREAKFAST_SHOW" data-name="THE BREAKFAST SHOW" xmlns="http://www.w3.org/2000/svg" viewBox="0 0 1080 1080">
  <defs>
    <style>
      .cls-1 {
        fill: #050706;
      }

      .cls-1, .cls-2, .cls-3, .cls-4, .cls-5, .cls-6, .cls-7, .cls-8, .cls-9, .cls-10, .cls-11, .cls-12, .cls-13, .cls-14, .cls-15, .cls-16, .cls-17, .cls-18, .cls-19, .cls-20, .cls-21, .cls-22, .cls-23, .cls-24, .cls-25, .cls-26, .cls-27, .cls-28, .cls-29, .cls-30, .cls-31, .cls-32, .cls-33, .cls-34, .cls-35, .cls-36, .cls-37, .cls-38, .cls-39, .cls-40, .cls-41, .cls-42, .cls-43, .cls-44, .cls-45, .cls-46, .cls-47, .cls-48, .cls-49, .cls-50, .cls-51, .cls-52, .cls-53, .cls-54, .cls-55, .cls-56, .cls-57, .cls-58, .cls-59, .cls-60, .cls-61, .cls-62, .cls-63, .cls-64, .cls-65, .cls-66, .cls-67, .cls-68, .cls-69, .cls-70, .cls-71, .cls-72, .cls-73, .cls-74, .cls-75, .cls-76, .cls-77, .cls-78, .cls-79, .cls-80, .cls-81, .cls-82, .cls-83, .cls-84, .cls-85, .cls-86, .cls-87, .cls-88, .cls-89, .cls-90, .cls-91, .cls-92, .cls-93, .cls-94, .cls-95, .cls-96, .cls-97, .cls-98, .cls-99, .cls-100, .cls-101, .cls-102, .cls-103, .cls-104, .cls-105, .cls-106, .cls-107, .cls-108, .cls-109, .cls-110, .cls-111, .cls-112, .cls-113, .cls-114, .cls-115, .cls-116, .cls-117, .cls-118, .cls-119, .cls-120, .cls-121, .cls-122, .cls-123, .cls-124, .cls-125, .cls-126, .cls-127, .cls-128, .cls-129, .cls-130, .cls-131, .cls-132, .cls-133, .cls-134, .cls-135, .cls-136, .cls-137, .cls-138, .cls-139, .cls-140, .cls-141, .cls-142, .cls-143 {
        stroke-width: 0px;
      }

      .cls-2 {
        fill: #110a07;
      }

      .cls-3 {
        fill: #292224;
      }

      .cls-4 {
        fill: #070804;
      }

      .cls-5 {
        fill: #0f120a;
      }

      .cls-6 {
        fill: #040103;
      }

      .cls-7 {
        fill: #070603;
      }

      .cls-8 {
        fill: #090b05;
      }

      .cls-9 {
        fill: #1ce783;
      }

      .cls-10 {
        fill: #030401;
      }

      .cls-11 {
        fill: #22130d;
      }

      .cls-12 {
        fill: #1c1b1a;
      }

      .cls-13 {
        fill: #27170e;
      }

      .cls-14 {
        fill: #220e13;
      }

      .cls-15 {
        fill: #271313;
      }

      .cls-16 {
        fill: #271510;
      }

      .cls-17 {
        fill: #131008;
      }

      .cls-18 {
        fill: #060606;
      }

      .cls-19 {
        fill: #dda6cf;
      }

      .cls-20 {
        fill: #23130e;
      }

      .cls-21 {
        fill: #050402;
      }

      .cls-22 {
        fill: #a79891;
      }

      .cls-23 {
        fill: #1d1b1b;
      }

      .cls-24 {
        fill: #2b1811;
      }

      .cls-25 {
        fill: #22140c;
      }

      .cls-26 {
        fill: #050203;
      }

      .cls-27 {
        fill: #220407;
      }

      .cls-28 {
        fill: #1a170e;
      }

      .cls-29 {
        fill: #201c06;
      }

      .cls-30 {
        fill: #080905;
      }

      .cls-31 {
        fill: #090306;
      }

      .cls-32 {
        fill: #050505;
      }

      .cls-33 {
        fill: #040302;
      }

      .cls-34 {
        fill: #110e06;
      }

      .cls-35 {
        fill: #010101;
      }

      .cls-36 {
        fill: #150d08;
      }

      .cls-38 {
        fill: #090807;
      }

      .cls-39 {
        fill: #201e1d;
      }

      .cls-40 {
        fill: #0d0f09;
      }

      .cls-41 {
        fill: #040203;
      }

      .cls-42 {
        fill: #0f0906;
      }

      .cls-43 {
        fill: #060604;
      }

      .cls-44 {
        fill: #915ac3;
      }

      .cls-45 {
        fill: #3da377;
      }

      .cls-46 {
        fill: #070304;
      }

      .cls-47 {
        fill: #0f0d07;
      }

      .cls-48 {
        fill: #e41d30;
      }

      .cls-49 {
        fill: #030503;
      }

      .cls-50 {
        fill: #140b08;
      }

      .cls-51 {
        fill: #0e0c05;
      }

      .cls-52 {
        fill: #221b03;
      }

      .cls-53 {
        fill: #282324;
      }

      .cls-54 {
        fill: #100b0e;
      }

      .cls-55 {
        fill: #120f07;
      }

      .cls-56 {
        fill: #23150c;
      }

      .cls-57 {
        fill: #1a0e0a;
      }

      .cls-58 {
        fill: #0c0e08;
      }

      .cls-59 {
        fill: #292104;
      }

      .cls-60 {
        fill: #160e07;
      }

      .cls-61 {
        fill: #fff;
      }

      .cls-62 {
        fill: #100c0e;
      }

      .cls-63 {
        fill: #0f0c03;
      }

      .cls-64 {
        fill: #1a1919;
      }

      .cls-65 {
        fill: #110e05;
      }

      .cls-66 {
        fill: #e4ac3e;
      }

      .cls-67 {
        fill: #0f0c01;
      }

      .cls-68 {
        fill: #090405;
      }

      .cls-69 {
        fill: #090701;
      }

      .cls-70 {
        fill: #3d2424;
      }

      .cls-71 {
        fill: #0f0806;
      }

      .cls-72 {
        fill: #1e120a;
      }

      .cls-73 {
        fill: #fafafa;
      }

      .cls-74 {
        fill: #170d09;
      }

      .cls-75 {
        fill: #191818;
      }

      .cls-76 {
        fill: #070704;
      }

      .cls-77 {
        fill: #040201;
      }

      .cls-78 {
        fill: #1e100d;
      }

      .cls-79 {
        fill: #100f06;
      }

      .cls-80 {
        fill: #242220;
      }

      .cls-81 {
        fill: #eee;
      }

      .cls-82 {
        fill: #1f120b;
      }

      .cls-83 {
        fill: #1b0f0b;
      }

      .cls-84 {
        fill: #0f0d06;
      }

      .cls-85 {
        fill: #1f110c;
      }

      .cls-86 {
        fill: #1c1b19;
      }

      .cls-87 {
        fill: #030202;
      }

      .cls-88 {
        fill: #130b07;
      }

      .cls-89 {
        fill: #030201;
      }

      .cls-90 {
        fill: #1c1a1a;
      }

      .cls-91 {
        fill: #3ea67a;
      }

      .cls-92 {
        fill: #0d120c;
      }

      .cls-93 {
        fill: #0c0d08;
      }

      .cls-94 {
        fill: #f4f4f4;
      }

      .cls-95 {
        fill: #301518;
      }

      .cls-96 {
        fill: #215941;
      }

      .cls-97 {
        fill: #281610;
      }

      .cls-98 {
        fill: #2a1a1a;
      }

      .cls-99 {
        fill: #1d180b;
      }

      .cls-100 {
        fill: #040403;
      }

      .cls-101 {
        fill: #0f0e05;
      }

      .cls-102 {
        fill: #070604;
      }

      .cls-103 {
        fill: #fad268;
      }

      .cls-104 {
        fill: #ebebeb;
      }

      .cls-105 {
        fill: #f9f9f9;
      }

      .cls-106 {
        fill: #0b120d;
      }

      .cls-107 {
        fill: #160c09;
      }

      .cls-108 {
        fill: #1a1009;
      }

      .cls-109 {
        fill: #fbfbfb;
      }

      .cls-110 {
        fill: #121407;
      }

      .cls-111 {
        fill: #070702;
      }

      .cls-112 {
        fill: #368a66;
      }

      .cls-113 {
        fill: #3c9f75;
      }

      .cls-114 {
        fill: #fdfdfd;
      }

      .cls-115 {
        fill: #110907;
      }

      .cls-116 {
        fill: #23140d;
      }

      .cls-117 {
        fill: #1b1603;
      }

      .cls-118 {
        fill: #25140e;
      }

      .cls-119 {
        fill: #190e0a;
      }

      .cls-120 {
        fill: #1b1a1a;
      }

      .cls-121 {
        fill: #201b0f;
      }

      .cls-122 {
        fill: #010000;
      }

      .cls-123 {
        fill: #1f1d1d;
      }

      .cls-124 {
        fill: #20120c;
      }

      .cls-125 {
        fill: #1c1b1b;
      }

      .cls-126 {
        fill: #62318c;
      }

      .cls-127 {
        fill: #1d1c1b;
      }

      .cls-128 {
        fill: #fcfcfc;
      }

      .cls-129 {
        fill: #070707;
      }

      .cls-130 {
        fill: #030200;
      }

      .cls-131 {
        fill: #23150d;
      }

      .cls-132 {
        fill: #020101;
      }

      .cls-133 {
        fill: #1b1607;
      }

      .cls-134 {
        fill: #110f09;
      }

      .cls-135 {
        fill: #f2f2f2;
      }

      .cls-136 {
        fill: #1f1d1c;
      }

      .cls-137 {
        fill: #030302;
      }

      .cls-138 {
        fill: #120f09;
      }

      .cls-139 {
        fill: #0e0e06;
      }

      .cls-140 {
        fill: #24140d;
      }

      .cls-141 {
        fill: #efefef;
      }

      .cls-142 {
        fill: #110809;
      }

      .cls-143 {
        fill: #110f0b;
      }
    </style>
  </defs>
  <g>
    <path class="cls-67" d="m617.32,367.37c7.22-5.46,15.75-3.56,19.44,4.43.68,1.48,1.12,1.96,2.86,1.33,4.85-1.75,9.4-1.03,13.39,2.39.15.64-.25.86-.76.99-1.94-.05-3.39-1.56-5.25-1.81-2.59-.35-5.18-.52-7.62.72-1.9.96-3.16.4-3.91-1.54-.37-.97-.77-1.92-1.33-2.81-2.53-3.99-7.09-5.58-11.69-4.14-1.48.46-2.77,1.47-4.4,1.46-.51-.15-.91-.38-.72-1.02Z"/>
    <path class="cls-117" d="m614.45,373.1c-.44-.01-.87-.02-1.31-.03.61-1.35,1.19-2.73,2.29-3.79.58-.25.8.12.98.57-.11,1.41-.41,2.71-1.96,3.26Z"/>
    <path class="cls-59" d="m616.15,370.04c-.24-.25-.48-.51-.72-.76.41-.85,1.06-1.47,1.89-1.91.24.24.49.47.73.71.08,1.34-.6,1.95-1.9,1.96Z"/>
    <path class="cls-114" d="m626.11,653.69c-2.08-.05-4.16.01-6.23-.17-2.43-.21-2.81.52-1.91,2.76,4.6,11.33,9.07,22.71,13.58,34.08,2.39,6.04,4.77,12.08,7.46,18.9-4.36-2.93-8-5.39-11.65-7.84-.82-.17-1.6-.44-2.29-.92-1.63-1.12-3.28-2.23-4.94-3.3-.82-.56-1.66-1.11-2.51-1.64-7.74-5.57-15.45-11.18-23.49-16.29-1.05.97-.32,2.16-.35,3.2-.08,3.17-1.13,5.94-3.25,8.23-3.7,3.99-10.15,3.63-14.19-.63-5.67-5.97-4.6-17.32,2.2-20.31.48-.21.94-.52.5-1.17-4.82-3.49-9.71-6.85-14.58-10.24-1.6-1.12-3.32-1.75-5.27-1.58-3.04.26-5.99-.74-9.03-.59-.69,0-1.39.02-2.08.01-4.28.04-8.55.24-12.82-.08-.9-.05-1.73-.53-2.65-.46-2.11-.17-4.24.08-6.35-.24-.51-.16-.99-.4-1.47-.62-1.88-.06-3.76-.11-5.64-.17-.86.04-1.67.3-2.5.51-.29.08-.59.12-.89.14-1.84-.18-3.68-.51-5.54-.36-.82-.02-1.63.02-2.45,0-1.02.02-2.03.04-3.04.03-.86-.05-1.72,0-2.58-.02-2.43.02-4.88.16-7.26-.54-.51-.05-1.03-.02-1.54-.06-1.03-.07-2.05,0-3.08,0-.87-.04-1.74.01-2.62,0-1.95.06-3.91.04-5.86.04-.88-.07-1.76-.02-2.64-.05-1.93.07-3.84-.08-5.71-.56-.52-.04-1.05-.03-1.57-.05-1.95-.01-3.89.05-5.84.03-.9-.09-1.81.03-2.71-.01-2.78.16-5.52-.16-8.25-.63-4.63-.03-9.26.32-13.88-.19-.61-.17-1.34-.44-1.45-1.04-.46-2.69-1.87-4.67-4.03-6.3-1.06-.8-.58-1.86.46-2.55.77-.5,1.75-.71,2.22-1.62-.26-6.98-.91-13.93-1.25-20.89-.09-.49-.13-.99-.15-1.49.03-2.32-.24-4.65.18-6.96.04-.16.09-.32.13-.48-.76-12.98-1.51-25.96-2.27-38.95-.39.02-.67-.15-.83-.51-.89-2.68.02-5.5-.64-8.2-.11-.34-.18-.68-.24-1.02-.19-3.88-.29-7.77-.79-11.63.08-.9.06-1.83.77-2.55-.6-9.01-1.2-18.02-1.81-27.03-.69-1.19-.98-2.48-.88-3.85-.66-7.86-.99-15.75-1.62-23.61-.37-1.39.03-2.67.56-3.93-.6-10.13-1.12-20.27-1.86-30.39-.19-2.57.4-3.37,3.1-3.33,10.18.16,20.36.06,30.54.06.56-.46,1.21-.66,1.92-.7.52-.04,1.04-.05,1.56-.06.7,0,1.4,0,2.1-.05,2.5,0,4.99-.05,7.48.03.7-.01,1.41.02,2.11-.02,1.39.02,2.79-.02,4.18.13.54.07,1,.31,1.41.66,3.31.03,6.62.05,9.94.08.96-.99,2.26-.75,3.44-.93,8.78-.02,17.57-.14,26.36.08.98,0,1.96.05,2.94.05,9.21-.25,18.43-.09,27.64-.14,2.18-.01,4.34.12,6.46.67,1.29.1,2.58-.03,3.87.01.72.05,1.45.03,2.17.04,2.35-.02,4.69-.11,7.04.05.56.06,1.08.21,1.52.58,13.44.08,26.88.18,40.32.23,7.39.03,14.79-.01,22.18-.02.45-.27.95-.43,1.44-.59.87-.25,1.76-.22,2.65-.24.37-.02.74-.04,1.11-.06,5.74-.05,11.48-.1,17.22.04,1.34,0,2.67.01,4.01,0,1.96.01,3.91-.14,5.87-.04,3.52.19,4.53,1.38,4.18,4.91-.1,1.02-.34,2.03-.42,3.05-.01.54-.02,1.09-.03,1.63.02,1.42.02,2.83-.25,4.24-.15.69-.4,1.37-.31,2.1-.33,8.85-.93,17.68-1.92,26.47-.01.87-.04,1.74-.06,2.61-.28,2.43-.58,4.86-.59,7.31-.21,1.28.66,2.58-.09,3.84-.21.36.08,0-.24.12-.61.23-.1-.23-.14-.37-.8.37-.82,1.12-.87,1.85-1.04,15.29-2.07,30.58-3.11,45.87.32.91.82,1.78.74,2.8-.91,10.82-1.29,21.69-2.5,32.49.06,1.02-.35,1.9-.88,2.73-.29,4.28-.58,8.56-.87,12.84.25.65.41,1.31.43,2,.5,3.94-.85,7.81-.43,11.74.5,1.58,1.86,1.06,2.88,1.06,2.38.02,4.73.14,7.08.63,3.23.67,3.61,1.51,1.81,4.39-1.1,1.75-2.41,3.34-3.9,4.78-2.56.62-4.34-1.08-6.21-2.25-1.73-1.08-2.29-1.15-2.58,1.2-.51,4.22-.21,8.51-1.07,12.7-.33,2.39.86,5.23-2.06,6.84-.54.21-1.11.26-1.69.3-5.41.17-10.81.14-16.22.03-.57,0-1.14,0-1.71,0-3.19.04-6.38.14-9.57-.07-.58-.05-1.1-.29-1.58-.59Z"/>
    <path class="cls-9" d="m784.16,667.44c-9.5,12.27-18.91,24.43-28.33,36.58-6.94,8.96-13.94,17.88-20.8,26.9-1.28,1.69-2.12,1.94-3.94.71-14.73-9.98-29.5-19.89-44.33-29.71-1.92-1.27-1.62-1.99-.34-3.46,4.38-5.01,8.57-10.18,12.94-15.21.97-1.12.94-1.76-.02-2.81-2.81-3.06-5.45-6.29-8.31-9.31-1.52-1.6-.89-2.09.81-2.58,6.49-1.88,12.95-3.86,19.45-5.7,1.68-.48,2.99-1.25,4.11-2.6,5.19-6.24,10.47-12.4,15.64-18.65,1.08-1.31,1.84-1.74,3.57-.81,16.02,8.64,32.1,17.16,48.15,25.72.45.24.85.56,1.4.92Z"/>
    <path class="cls-122" d="m463.51,652.87c.76.02,1.52.05,2.27.07.49,1.39-.65,2.11-1.32,2.94-12.15,15.07-24.33,30.12-36.57,45.12-4.21,5.16-8.27,10.45-12.95,15.89,8.44-2.04,16.35-4.28,24.29-6.4,10.97-2.93,21.92-5.94,32.92-8.76,2.49-.64,4.22-1.85,5.66-3.98,9.15-13.54,18.19-27.16,27.48-40.6.77-1.11,1.46-2.29,2.71-2.96.76.05,1.53.09,2.29.14.23,1.4-.72,2.34-1.39,3.36-9.55,14.53-19.56,28.75-29.09,43.3-1.13,1.73-2.51,2.92-4.59,3.47-20.16,5.29-40.3,10.66-60.39,16.21-3.46.96-5.82.39-8.74-1.88-16.36-12.73-32.87-25.26-49.4-37.77-1.91-1.45-3.78-2.94-5.69-4.39-.7-.54-1.54-1.51-2.45-.65-.95.9-1.21,2.18-.57,3.45.44.86,1.27,1.36,2.02,1.92,19.33,14.51,38.65,29.03,57.86,43.69,2.01,1.53,3.9,1.96,6.36,1.28,20.98-5.85,42-11.57,63.02-17.27,2.51-.68,4.17-2.02,5.56-4.13,10.24-15.57,20.47-31.15,30.88-46.61.87-1.3,1.69-2.63,2.97-3.59l-.05.02c.83-.56,1.59-.36,2.33.2-11.85,17.84-23.71,35.68-35.51,53.55-.87,1.32-1.94,2.01-3.42,2.41-22.38,6.07-44.75,12.14-67.1,18.32-1.93.53-3.28.31-4.85-.88-20.24-15.35-40.49-30.69-60.85-45.88-2.45-1.83-3.03-3.45-1.85-6.15,1.14-2.6,1.46-5.63,4.31-7.18.59-.09.77.27.86.75-.47,1.72.53,2.66,1.76,3.6,14.43,11.09,28.94,22.1,43.43,33.11,4.06,3.08,8.09,6.2,12.14,9.3,1.69,1.29,2.8,1.18,4.15-.48,6.7-8.22,13.34-16.49,20.03-24.71,9.65-11.85,19.23-23.76,28.89-35.59.73-.9,1.47-1.74,2.56-2.21Z"/>
    <path class="cls-37" d="m433.32,548.72c.03.79.07,1.59.1,2.38-1.92.22-3.05-1.14-4.25-2.23-3.93-3.56-8.08-6.88-11.93-10.53-1.9-1.81-3.87-2.3-6.53-1.58-15.77,4.28-31.53,8.57-47.81,12.98,1.67,1.57,3.31,2.6,4.73,3.88,2.62,2.36,2.46,3.89-.87,5.17-10.11,3.88-20.29,7.58-30.42,11.39-3.95,1.48-7.86,3.09-11.88,4.39-.39.12.35.42.07.11.75-.62,1.6-.28,2.38-.18,23.54,3,47.06,6.12,70.97,9.15-.76-1.78-1.95-2.85-3.03-4.01-2.98-3.2-6.01-6.36-8.76-9.74-2.38-2.92-1.64-4.36,2.1-4.74,7.46-.75,14.96-.76,22.41-1.33,5.6-.43,11.23-.27,16.82-.97,2.22-.28,4.57-.74,6.69.62.13.16.25.33.34.51-.06,2.02-1.53,2.13-3.04,2.33-6.41.85-12.89.79-19.33,1.13-7.35.39-14.72,1.17-22.19.86,1.62,3.03,4.03,4.51,7.56,4.27,9.35-.61,18.73-.45,28.08-1.11,3.05-.21,6.24-.91,9.18.76.1.13.21.26.32.39-.44,2.2-2.22,1.44-3.51,1.49-12.06.45-24.12.84-36.87,1.27,2.83,3.2,5.22,6.1,7.84,8.78,1.48,1.51,1.12,2.44.15,4.15-3.32,5.85-7.4,7.41-14.42,6.12-23.93-4.38-48.03-7.81-72.08-11.52-2.47-.38-2.52-1.2-1.58-3.27,1.68-3.71,4.24-5.87,8.17-7.25,12.12-4.27,24.09-8.97,36.75-13.74-1.96-1.24-3.47-2.23-5.02-3.16-1.37-.82-1.7-1.61-.46-2.92,2.43-2.57,4.89-4.64,8.62-5.59,16.51-4.21,32.92-8.81,49.34-13.36,2.15-.6,3.6-.22,5.27,1.27,5.26,4.72,10.7,9.23,16.07,13.82Z"/>
    <path class="cls-75" d="m661.81,598.09c.05-.92.1-1.83.15-2.75.57-1.56,2.04-2.32,3.12-3.41,7.99-8.01,8.46-17.52,1.21-26.16-.74-.88-1.4-1.8-1.96-2.79.04-.97.08-1.94.12-2.91,4,2.84,7.11,6.41,8.78,11.05.56,1.56,1.32,2.05,2.95,1.86,4.14-.49,8.28-.88,12.44-1.18,1.52-.11,1.85-.59,1.69-2.11-.97-9.51-1.77-19.05-2.75-28.56-.2-1.98.2-2.66,2.3-2.84,13.8-1.17,27.59-2.47,41.38-3.81,1.57-.15,2,.32,2.02,1.78.02,1.45.46,2.9.42,4.34-.06,2.27.56,3.61,3.14,3.1-.02.86-.66,1.03-1.26.91-.9-.18-1.09-.06-.52.73-.97,1.01-2.1.83-3.26.44-.82-.45-1.42-1.1-1.75-1.98-.84-5.07-.83-4.97-6.02-4.51-9.54.86-19.08,1.65-28.61,2.63-3.25.33-3.52.46-3.24,3.85.62,7.56,1.39,15.11,2.08,22.67.97,10.66,2.03,21.31,2.88,31.98.43,5.45.4,5.66,5.75,5.24,9.65-.76,19.28-1.79,28.93-2.56,3.06-.24,3.49-.85,3.28-4-.06-.93-.24-1.86.18-2.77,1.53-1.55,3.14-1.53,4.83-.27-1.5.52-1.12,1.66-1,2.8.8,7.44.79,7.5-6.54,8.19-11.7,1.11-23.42,2.06-35.11,3.28-2.95.31-3.61-.65-3.81-3.41-.62-8.8-1.58-17.58-2.35-26.37-.12-1.34-.28-2-1.99-1.77-4.02.53-8.08.78-12.12,1.08-1.71.13-2.6.57-3.09,2.58-1.7,6.98-5.68,12.37-12.24,15.65Z"/>
    <path class="cls-75" d="m429.57,490.3c.04,1.2.08,2.41.12,3.61-.48,2.85-2.17,5.33-2.33,8.3-.21,3.9.36,7.61,2.18,11.09.77,1.47,1.31,3.02,1.82,4.59.05,1.27.1,2.54.15,3.81-5.13-5.12-7.49-11.4-7.41-18.55.02-2.03-.55-2.88-2.51-3.43-3.6-1.01-7.15-2.24-10.64-3.61-1.93-.76-2.62-.27-3.23,1.62-2.88,8.9-5.94,17.74-8.83,26.63-.64,1.96-1.31,2.53-3.48,1.78-12.87-4.44-25.8-8.74-38.74-12.97-1.83-.6-2.22-1.17-1.58-3.04.79-2.31,2.26-4.49,1.91-7.11.3-.61.84-.9,1.47-1.08,1.28-.05,2.5.05,3.17,1.39-.08.62-.51,1.1-.7,1.68-.17.49-.36.98-.52,1.47-.99,3.13-.84,3.58,2.18,4.6,9.96,3.37,19.96,6.6,29.9,10.02,2.49.86,3.36-.17,4.03-2.3,2.92-9.32,6.41-18.45,9.47-27.73,2.9-8.78,5.84-17.55,8.76-26.33,1.29-3.88,1.27-3.86-2.72-5.22-9.46-3.22-19.01-6.13-28.38-9.61-3.44-1.28-3.85-1.02-4.92,2.38-.25.79-.37,1.62-.69,2.39-.32.58-.86.87-1.47,1.06-1.11.09-2.09-.19-2.89-1-.34-.51-.61-1.03-.31-1.65,2.56-1.24,2.17-4,2.9-6.07.85-2.45,1.58-3.19,4.3-2.24,12.64,4.4,25.36,8.58,38.09,12.73,1.94.63,2.3,1.33,1.62,3.27-2.99,8.49-5.76,17.06-8.74,25.56-.67,1.92-.38,2.69,1.64,3.25,3.29.91,6.53,2.04,9.71,3.31,2.38.95,4.3,1.19,5.56-1.55.2-.43.74-.7,1.12-1.04Z"/>
    <path class="cls-35" d="m482.12,456.63c-.4,0-.8.02-1.2.03-1.38-.63-1.36-1.99-1.63-3.18-2.5-10.94-4.93-21.9-7.33-32.87-1.1-4.99-1.15-5.06-6.13-4.43-2.28.29-4.58.05-6.86.2-2.75.17-3.02.57-1.69,2.98,3.38,6.09,6.61,12.26,9.93,18.38,2.92,5.39,5.96,10.72,8.62,16.25.39.81,1.06,1.6.56,2.61-.55,0-1.1.02-1.65.03-3.05-2.57-4.18-6.36-6-9.67-5-9.09-9.94-18.21-14.99-27.79-1.83,5.76-3.54,11.15-5.08,16.6-.48,1.7.49,2.72,1.52,3.81,4.55,4.86,9.94,8.85,14.42,13.78.88.97,2.19,1.69,2.09,3.28-.64-.01-1.28-.02-1.91-.03-1.67-.92-3-2.25-4.35-3.56-5.15-3.93-9.41-8.81-14.17-13.16-1.03-.94-1.63-2.15-2.23-3.36-2.07-4.2-4.37-8.29-6.24-12.58-1.24-2.85-2.93-3.98-6.14-4.06-4.22-.1-8.43-.69-13.06-.38,14.13,11.31,28.04,22.38,41.81,33.6.82,1.31,2.86,1.6,2.96,3.5-.67,0-1.35,0-2.02,0-15.48-12.44-30.94-24.92-46.49-37.28-1.72-1.37-1.89-2.13-.47-3.79,3.92-4.58,7.62-9.35,11.52-13.96,1.01-1.19,1.15-2.17.64-3.6-1.97-5.46-3.82-10.97-5.71-16.46-.19-.57-.7-1.17-.23-1.75.66-.84,1.37-.07,1.95.17,5.83,2.48,11.67,4.95,17.43,7.58,1.59.73,2.55.57,3.78-.67,3.38-3.39,6.93-6.6,10.38-9.91,1.33-1.28,1.94-1.46,2.56.72,2.42,8.48,5.22,16.85,7.58,25.34,1,3.58,2.58,6.54,5.73,8.49,2.26,1.4,2.94,3.49,3.46,5.89,2.83,13.08,5.75,26.15,8.64,39.22Z"/>
    <path class="cls-37" d="m637.38,653.55c.4,0,.8,0,1.19,0,2.72,4.03,6.77,6.29,11.03,8.29,3.29,1.54,6.41,3.42,9.64,5.08,4.84,2.49,10.7.16,13.42-5.23,1.81-3.58-.59-9.27-4.92-11.45-2.14-1.08-4.42-1.8-6.8-2.19-1.01-.16-2.11-.15-2.71-1.23.2-3.2.37-6.4.6-9.6.16-2.24.39-4.48.6-6.96,3.21,1.61,5.44,4.68,9.15,4.9.45.04.83.25,1.2.49,2.9,2.45,6.52,3.71,9.69,5.71,2.34,3.52,6.08,5.36,9.37,7.75-.74,4.33-4.38,5.67-7.26,7.43,1.86.2,4.03-.87,6.3-.49.45.19.81.44.75,1.01-3.48,1.63-7.2,1.55-11.09,1.42.42,1.64.81,3.18,1.21,4.73.18.59.39,1.2-.34,1.6-1.52-.41-1.15-2.05-2.13-3.14-2.92,4.59-6.41,8.49-12.14,9.4-1.24.06-2.41-.28-3.59-.56-1.19-.26-2.26-.78-3.26-1.47-.7-.5-1.44-.91-2.22-1.27-1.99-1.05-4.08-1.91-5.97-3.15-.68-.49-1.41-.86-2.21-1.11-2.07-.72-3.79-1.99-5.48-3.32-1.18-.89-2.41-1.72-3.48-2.76-.76-1.21-1.63-2.41-.56-3.89Z"/>
    <path class="cls-137" d="m668.43,512.35c.05-1.3-.76-2.53-.31-3.86.44-.02.86.1,1.11.45,3.07,4.48,7.66,4.48,12.09,3.48,11.15-2.51,20.81-7.85,28.42-16.5,3.38-3.83,4.25-8.46,3.55-13.43.09-.48.33-.85.79-1.04,2.44.12,3.07,2.23,4.01,3.85,2.13,3.71,2.07,3.75,5.87,1.62.55-.31,1.09-.6,1.76-.51.47.16.73.49.77.98-1.09,2.11-2.77,3.71-5,4.35-1.81.52-1.7,1.52-1.35,2.8.32,1.2.86,2.34,1.07,3.57,1.19,7.12-2.13,12.66-8.99,15-1.67.57-3.36,1.1-5.03,1.67-.79.27-1.59.54-2.24,1.06-.99.78-2.11,1.66-1.85,3.03.32,1.67,1.85,1.29,3.06,1.31,1.37-.34,2.74-.7,3.9-1.57,6.53-3.55,11.8-8.1,13.02-15.97.2-1.29.93-2.3,2.39-2.51.5.1.87.31.72.91-1.03.84-1.25,2.01-1.5,3.24-1.84,9.29-8.63,13.98-16.65,17.26-2.24.92-4.88.98-7.14-.66-.38-.27-.96-.45-1.42-.4-2.47.25-4.62-.36-6.78-1.63-1.01-.6-2.62-.21-3.95-.27-3.41.44-6.82.39-10.23.02-1.05-.01-2.14.12-2.98-.74-.11-.6.28-.84.76-1.01,6.57.49,13.04.52,19.38-1.96,8.31-3.25,14.6-8.73,19.17-16.26,2.01-3.31,2.56-6.94,1.47-10.45-.48,3.82-2.26,7.32-4.94,10.24-7.91,8.59-17.64,14.14-29.04,16.77-1.64.38-3.31.37-4.97.42-.99.03-2.14-.38-2.83.78-.27.36-.56.65-1.05.37-2.17-.37-2.7-3.69-5.45-3.03.13-.46.25-.93.38-1.39Z"/>
    <path class="cls-87" d="m730.64,544.18c.39.37.79.73,1.18,1.1-.12.17-.24.35-.4.47-1.1.82-3.08.23-3.62,1.48-.64,1.48-.06,3.27.1,4.91,1.29,13.12,2.47,26.25,3.6,39.39.19,2.21.9,3.18,3.24,2.97,9.21-.84,7.67.14,7-8.05-1-12.21-2.34-24.39-3.25-36.61-.19-2.57-1.37-3.94-3.41-4.99-.19-.06-.45-.07-.57-.2-.4-.45.1-.39.3-.42.69-.1,1.46.11,2-.53,1.82-.41,3.55-.71,3.49,2.08-.03,1.42.97,1.23,1.95,1.15,4.22-.35,8.44-.64,12.66-.96,1.17,0,.78.57.3.99-.61.54-1.45.66-2.21.91-1.2.28-2.42.29-3.64.3-1.54-.09-3.06,0-4.55.43-2.36.37-3.22,1.53-2.98,4.09.98,10.44,2.03,20.87,2.94,31.32.18,2.06-.58,4.75,2.14,6.01,1.52.35,3.16-.16,4.62.6.36.21.46.5.3.89-1.43.15-2.85.3-4.28.46-1.67.18-3.69-.05-2.77,2.8.31.97-.59,1.15-1.34,1.19-1.13.06-2.25.08-3.38.12-1.51.07-3.12-.62-4.48.58-3.6,1.96-4.24,1.87-6.96-1.23-.79-.9-1.75-.97-2.8-1.08-15.96-1.59-25.59-17.26-19.75-32.14.52-1.32.87-2.83,2.54-3.31.57.05.92.37,1.11.89.3,1.44-.59,2.58-.99,3.85-4.41,13.88,3.83,25.2,15.06,27.41,3.79.75,4.33.41,4.05-3.29-.88-11.58-2.06-23.13-3.13-34.69-.16-1.73-.98-1.98-2.52-1.71-2.83.5-4.92,2.7-7.75,3.16-.54-.09-.9-.38-1.04-.93,1.24-3.29,4.49-3.7,7.16-4.86,1.75-.76,3.71-.74,4.12-3.46.28-1.84,3.31-2.19,5.94-1.09Z"/>
    <path class="cls-46" d="m532.99,654.93c.65-.24,1.23-.02,1.78.31,1.11.8,1.91,1.86,2.62,3.03,12.4,20.56,24.85,41.09,37.2,61.68,2.78,4.63,5.76,9.15,8.34,13.9.2.65.89,1.17.61,1.97-2.94,1.52-6.08.43-9.13.61-.43.03-1.01-.95-1.37-1.55-16.09-26.69-32.16-53.38-48.23-80.08.44,0,.88,0,1.32-.01,1.46.61,2.09,1.97,2.84,3.21,13.26,22.03,26.63,43.98,39.83,66.04,1.6,2.68,3.34,5.28,4.92,7.97.37.63.72,1.28,1.32,1.73,1.18.88,2.79,1.24,3.81.5,1.24-.9-.22-2.01-.73-2.86-14.16-23.79-28.66-47.37-42.81-71.17-.97-1.63-2.61-3.06-2.3-5.27Z"/>
    <path class="cls-10" d="m654.87,377.43c6.86,9.19,3.33,25.51-7.09,31.72-7.42,4.42-15.64,5.91-24.25,5.55-1.52-.06-2.49-.74-3.42-1.79-10.45-11.86-13.04-25.09-6.97-39.83.46-.38.9-.35,1.31.07.68,1.35.01,2.64-.22,3.94-1.67,9.49.58,17.9,6.94,25.2,1.4,1.61,3.05,2.41,5.17,2.39,5.45-.05,10.81-.72,15.92-2.67,6.32-2.41,10.55-6.82,12.48-13.4,1.06-3.59.35-6.96-.84-10.33.1-.53.3-.95.96-.85Z"/>
    <path class="cls-43" d="m671.22,466.27c0-.46.02-.91.02-1.37.78-1.2,2.1-1.64,3.26-2.31,7.63-4.39,13-10.52,14.86-19.34.32-1.54.46-3.07.36-4.63-.05-.84-.14-1.75-1.15-1.97-.91-.2-1.59.35-2.12,1.03-1.03,1.31-1.53,2.94-2.48,4.3-.92,1.32-1.52,3.04-3.53,3.17-.49-.14-.77-.47-.85-.97,1.19-3.11,3.48-5.62,4.7-8.73.45-1.15,1.78-1.34,2.88-1.65,3.64-1.04,7.38-1.68,11.8-2.74-5.34,1.01-9.94,1.93-14.54,2.77-2.77.51-3.13.1-2.8-2.67.11-.94.12-1.86.02-2.79-.07-.7-.3-1.58.68-1.81.81-.19,1.58.37,1.71,1.06.7,3.87,3.29,2.78,5.68,2.26,2.24-.49,4.5-.84,6.76-1.22,1.89-.32,2.46-1.17,1.75-3.03-.62-1.62-1.7-3.15-1.29-5.05.21-.46.47-.84,1.07-.69,4.42.32,8.83-.78,13.25-.12,2.25.34,4.51.58,6.77.86-.1,1.19-1.09,1.09-1.87,1.29-4.26.21-8.53-.27-12.79.06-1.01.08-2.48-.53-2.73,1.22-.22,1.51,1.45,3.76,2.88,3.93.73.09,1.45-.12,2.17-.2,13.64-1.4,25.04,2.67,33.57,13.72.76.98,1.59,1.95,1.59,3.3-.1.51-.41.85-.88,1.06-1.49-.12-1.94-1.43-2.68-2.38-8.04-10.38-18.67-14.32-31.56-12.72-1.3.16-2.26.53-3.09,1.71-1.74,2.49-4.8,2.09-7.3,2.93-1.06.36-3.07-.28-2.65,2.05.12.62,0,1.22-.05,1.83-1.07,12.54-7.34,21.56-18.53,27.23-.91.46-1.78,1.15-2.9.59Z"/>
    <path class="cls-68" d="m564.72,457.13c-.57,0-1.13,0-1.7,0-.26-1.3.6-2.15,1.29-3.03,11.38-14.72,22.29-29.78,33.69-44.48.89-1.15,1.83-2.28,2.16-3.75.23-.42.5-.74,1.04-.42,3.55,2.17,4.88,8.39,2.5,11.55-10.08,13.36-20.14,26.74-30.21,40.11-.45.02-.91.05-1.36.07-.47-1.83.93-2.88,1.82-4.07,9.15-12.24,18.46-24.37,27.67-36.57,1.81-2.39,1.85-4.39.11-6.68-1.22.52-1.67,1.64-2.33,2.52-10.51,14.09-21.3,27.96-31.8,42.06-.78,1.05-1.37,2.39-2.89,2.68Z"/>
    <path class="cls-49" d="m739.91,445c.19-.25.39-.5.58-.76,1.19.24,1.59,1.25,2.1,2.14,7.59,13.51,6.14,30.37-6.31,41.86-.14.28-.74.35-.56.68.18.32-.26-.03.13-.22,2.28-2.09,4.26-4.41,5.97-6.96.73-1.08,1.24-2.4,2.74-2.72.5.15.8.4.48.96-1.08,2.5-2.94,4.45-4.55,6.59-2.13,2.84-5.32,4.54-6.77,8.34-1.01,2.63-4.91,4.14-7.52,6.15-.21-.21-.43-.41-.64-.62.2-2.33,2.28-3.13,3.8-4.12,2.49-1.63,3.05-3.44,1.76-6.02-.32-.64-.51-1.36-.71-2.06-.45-1.59-1.15-2.48-2.81-1.14-.39.32-.89.55-1.41.16-.23-.2-.47-.39-.7-.59.32-2.48,2.3-3.47,4.26-3.9,1.46-.32,2.46-.93,3.38-1.93,5.9-6.44,10.56-13.41,9.82-22.74-.27-3.36-1.03-6.55-2.35-9.63-.47-1.1-1.43-2.14-.67-3.48Z"/>
    <path class="cls-100" d="m640.5,457.33l-.72.02c-.79-3-1.68.39-2.51-.04-.43,0-.85.01-1.28.02.69-.91,1.35-1.83,2.07-2.71,1.83-2.23,3.14-4.13,1.97-7.61-1.64-4.87.92-9.19,4.65-12.37,3.61-3.08,7.62-5.7,11.45-8.53.68-.81.84,1.37,1.57.26,2.8-.78,5.35-2.6,8.48-1.94.18,2.18,1.72.68,2.6.94,5.12,1.07,6.84,4.48,4.65,9.19-2.03,4.37-5.73,7.03-9.65,9.46-1.06.66-2.22,1.15-3.27,1.82-1.01,1.01-2.44.98-3.66,1.48-4.69,1.51-9.42,2.25-14.54.5,2.26,3.18,5.08,4.35,8.55,4.14.72-.05,1.44-.25,2.17-.15.64.09,1.28.29,1.4,1.02.12.73-.41,1.13-1,1.39-2.31,1.03-4.64.86-7.01.16-3.61-1.07-3.61-1.05-5.32,2.25-.14.27-.39.48-.6.71Z"/>
    <path class="cls-71" d="m350.24,669.75c-.19-.21-.37-.43-.56-.64,8.24-9.78,16.45-19.59,24.72-29.35,11.84-13.97,23.71-27.92,35.58-41.87q2.68-3.15,5.91-.58c.11.58-.25.79-.72.9-1.84-.58-3.06.15-4.28,1.58-9.96,11.72-19.91,23.46-29.88,35.18-9.5,11.16-18.99,22.33-28.48,33.5-.59.7-1.13,1.55-2.28,1.28Z"/>
    <path class="cls-38" d="m373.38,453.09c.19.44.37.87.56,1.31-4.49-.74-5.18,2.51-6.21,5.67-3.89,11.97-7.87,23.91-11.95,35.81-.85,2.48-1.52,4.59,1.87,5.52.4.11.59.57.69.98-.45.21-.9.42-1.34.63-1.29-.39-2.57-.77-3.86-1.16-.61-.18-1.45-.44-1.1-1.17,1.82-3.82-1.59-3.48-3.42-4.4-.28-.14-.58-.22-.88-.33.07-1.21,1.04-1.04,1.8-1.18,2.5.86,3.62-.07,4.42-2.6,3.42-10.81,7.11-21.53,10.76-32.26.76-2.25.62-3.8-1.66-4.83-.42-.53-.78-1.08-.31-1.76,1.07.33,2.15.67,3.22.99.56.17,1.36.62,1.57-.2,1.2-4.83,3.84-1.05,5.84-1.03Z"/>
    <path class="cls-8" d="m716.06,421.2c.68-.11,1.45.07,1.98-.56,19.22,2.68,30.98,19.32,31.98,37.25.44,2,.38,4,.04,6,.31,2.06-.94,3.9-.81,5.94-.98-.02-1.06-.8-1.27-1.47-.5-3.15.75-6.21.49-9.35.05-1.13.12-2.26-.29-3.36-1.55-6.49-3.28-12.85-7.17-18.5-5.38-7.81-12.69-12.43-21.85-14.42-1.11-.24-2.64.16-3.08-1.52Z"/>
    <path class="cls-88" d="m678.16,664.69c.2-.49.39-.98.59-1.47,1.33,4.26.85,8.41-1.01,12.37-4.76,10.11-18.94,15.97-29.09,12.11-.03-.92.7-1.02,1.34-1.23,2.21-.42,4.34.62,6.52.43,7.48-.66,13.53-4.02,18.04-9.97,1.92-2.54,2.79-5.55,2.68-8.8-.04-1.2-.27-2.54.93-3.45Z"/>
    <path class="cls-12" d="m753.09,547.16c.22-.98,1.91.28,1.83-1.18,1-.59,2.1-.5,3.19-.45.4.38.75.79.96,1.31.82,3.98,1.12,8.01,1.26,12.06.05,1.41-.42,2.51-2,2.64-1.65.14-2.57-.86-2.77-2.36-.32-2.37-.64-4.75-.76-7.13-.1-1.85-.63-3.44-1.71-4.89Z"/>
    <path class="cls-42" d="m688.64,657.07c-.27-.21-.55-.41-.82-.62.32-1.44,1.65-1.78,2.7-2.35,9.36-5.07,11.24-16.27,10.24-22.97-.41-2.75-1.65-5.12-4.39-6.38-.65-.3-1.29-.68-1.6-1.4.21-.94.77-.92,1.47-.53,3.24.57,4.97,2.86,5.98,5.67,3.81,10.58-2.91,24.63-13.58,28.58Z"/>
    <path class="cls-2" d="m696.24,622.83c-.44.19-.88.37-1.31.56-3.75,1.87-5.92,1.23-7.81-2.31-4.14-7.73-11.15-11-19.77-9.45-2.17.39-4.29,1.76-6.64.7-.1-.5-.22-1,.23-1.41,2.64-.5,5.27-1.08,7.92-1.5,7.91-1.24,16,2.63,19.61,9.77,1.14,2.26,2.21,3.43,4.8,2.99.97-.16,2.1-.13,2.97.63Z"/>
    <path class="cls-23" d="m338.35,492.83c-.9-.33-1.8-.66-2.7-.99.03-.7-1.2-1.25-.25-2.06,1.6-2.27,2.1-4.95,2.88-7.53.27-.9.54-1.79.86-2.67.57-1.52,1.5-2.6,3.27-2.13,2.01.53,1.66,2.13,1.27,3.56-.99,3.71-2.7,7.2-3.2,11.05-.43,1.01-1.48.34-2.13.77Z"/>
    <path class="cls-12" d="m773.14,587.9c-.7.69-1.61.92-2.53,1.13-.62-.29-1.46-.2-1.78-1.02-1.16-3.7-1.32-7.56-1.89-11.36-.21-1.4-.13-2.82,1.72-3.1,1.82-.27,2.73.86,3.08,2.41.74,3.24,1.02,6.57,1.53,9.85.08.7-.1,1.39-.13,2.08Z"/>
    <path class="cls-90" d="m362.76,453.32c.2.48.41.95.61,1.43-1.15,3.65-2.46,7.25-3.73,10.86-.51,1.46-1.38,2.68-3.23,2.05-1.87-.64-1.77-2.1-1.24-3.58,1.22-3.42,2.36-6.86,3.75-10.21.28-.61.83-.99,1.32-1.41.84.29,1.68.58,2.52.87Z"/>
    <path class="cls-90" d="m328.96,489.09c-.44-.31-.88-.63-1.32-.94-.26-.43-.49-.88-.5-1.4.69-3.81,2.43-7.27,3.7-10.88.51-1.45,1.43-2.29,3.1-1.61,1.48.6,1.71,1.71,1.21,3.05-1.36,3.7-2.28,7.55-3.94,11.14-.58.81-1.48.51-2.25.64Z"/>
    <path class="cls-90" d="m349.66,495.42c-.66.09-1.4-.11-1.91.52-.23-.11-.46-.21-.69-.32-.35-.57-1.06-.88-1.15-1.63.51-4.03,2.23-7.68,3.67-11.41.48-1.24,1.39-2.09,2.92-1.51,1.47.56,1.68,1.79,1.33,3.06-1.07,3.87-2.37,7.67-4.16,11.28Z"/>
    <path class="cls-125" d="m340.2,447.39c.21,0,.43,0,.64,0,.73.81,2.46-.46,2.75,1.3-.84,3.65-1.9,7.23-2.97,10.82-.42,1.41-1.03,2.97-2.96,2.45-2.01-.53-1.94-2.16-1.58-3.8.7-3.13,2.08-6.11,2-9.41.03-1.5,1.52-.74,2.13-1.36Z"/>
    <path class="cls-64" d="m350.83,449.33c.23.08.46.16.69.24.23.63.94.94,1.1,1.62-.19,4.34-2.24,8.13-3.56,12.14-.44,1.35-1.58,1.49-2.82,1.03-1.35-.5-1.61-1.52-1.26-2.76,1.1-3.89,2.54-7.67,3.69-11.54.5-.89,1.52-.25,2.16-.73Z"/>
    <path class="cls-50" d="m493.45,452.93c7.11-8.93,14.21-17.86,21.32-26.79.6-.15.81.21.92.69-.1,1.33-.96,2.28-1.73,3.24-5.85,7.3-11.74,14.58-17.56,21.91-.63.79-1.14,1.79-2.34,1.89-.47-.15-.85-.35-.6-.96Z"/>
    <path class="cls-36" d="m626.11,653.69c.41,0,.81-.01,1.22-.02.82.75.64,1.7.5,2.62-1.04,6.65.79,12.54,4.72,17.89.61.83,1.26,1.67,1.38,2.75-.07.54-.25.96-.92.88-6.5-6.84-8.62-14.93-6.9-24.12Z"/>
    <path class="cls-80" d="m784.92,572.92c.11.71-.2,1.29-.58,1.84-.4.35-.83.64-1.35.75-1.33.18-2.62.65-3.98.55-1.43-.11-2.3-.91-2.53-2.29-.23-1.4.7-2.05,1.85-2.47,1.67-.6,3.48-.48,5.15-1.05,2.43-.17.41,2.08,1.44,2.67Z"/>
    <path class="cls-50" d="m520.35,419.2c4.61-5.8,9.23-11.6,13.84-17.41.59-.13.79.22.9.71-.19,1.54-1.25,2.59-2.16,3.72-3.06,3.81-6.13,7.61-9.16,11.45-.77.97-1.51,2-2.79,2.41-.49-.09-.88-.26-.63-.87Z"/>
    <path class="cls-47" d="m782.89,574.85c.48-.03.97-.06,1.45-.09-1.79,6.03-5.58,10.36-11.2,13.13-.51-.28-.62-.75-.63-1.27,4.32-3.17,7.55-7.29,10.38-11.77Z"/>
    <path class="cls-74" d="m415.19,597.91c.24-.2.47-.4.71-.6,5.22,3.53,10.44,7.06,15.66,10.59.11.59-.25.81-.74.92-4.33-1.34-7.52-4.56-11.27-6.86-1.68-1.03-3.76-1.8-4.35-4.06Z"/>
    <path class="cls-127" d="m323.3,455.42l.49-.61c.46-.26.96-.37,1.49-.36,1.43.26,2.74.85,4.02,1.49,1.17.59,1.67,1.5,1.21,2.78-.5,1.38-1.55,1.92-2.93,1.5-1.66-.51-3.37-.93-4.81-1.97-.59-1.09.17-1.92.54-2.83Z"/>
    <path class="cls-84" d="m767.58,545.9c6.49.92,11.06,4.61,14.46,10-.15.26-.36.42-.66.48-.79.03-1.37-.39-1.92-.88-2.61-3.71-6.46-5.73-10.43-7.58-.61-.34-1.22-.68-1.61-1.29-.09-.27-.05-.52.16-.73Z"/>
    <path class="cls-34" d="m327.67,486.58c0,.52-.02,1.05-.03,1.57-4.76-3.13-7.67-7.5-8.8-13.07-.16-.45-.24-.92-.1-1.39,1.43-.54,1.38.82,1.89,1.47,1.25,4.48,4.44,7.77,7.04,11.42Z"/>
    <path class="cls-107" d="m544.74,388.6c2.2-2.83,4.48-5.59,6.55-8.51,1.27-1.78,2.42-2.47,4.29-.84.66.58,1.55.9,2.33,1.34.15.56-.18.8-.63.98-3.28-1.55-5.12.07-7,2.68-1.39,1.93-2.4,4.42-4.99,5.31-.45-.16-.8-.39-.55-.96Z"/>
    <path class="cls-17" d="m784.92,572.92c-.62.21-1.29.42-.85-.65.28-.68.36-1.34.21-2.04-.86-.98-.69-2.18-.73-3.33,0-1.1-.02-2.19-.33-3.25-.34-1.52-1.15-2.88-1.5-4.39-.15-1.08-.73-2.18.15-3.2,0,0,.17-.14.17-.14,3.46,5.25,4.33,10.94,2.88,17.02Z"/>
    <path class="cls-83" d="m619.93,707.19c-4.2,3.3-8.4,6.61-12.6,9.91-.48-.12-.78-.4-.81-.91,3.68-3.9,7.82-7.23,12.5-9.87.48.11.78.4.91.87Z"/>
    <path class="cls-65" d="m340.2,447.39c-.63.37-1.26.74-1.89,1.11-3.62,1.85-7.46,3.19-11.18,4.83-.5-.14-.89-.37-.71-1,3.96-3.41,8.48-5.24,13.77-4.94Z"/>
    <path class="cls-60" d="m650.04,687.1c-.46.2-.92.4-1.38.6-4.71-1.28-8.98-3.37-12.53-6.8-.12-.62.26-.81.77-.9,4.26,2.59,8.98,4.34,13.14,7.11Z"/>
    <path class="cls-124" d="m698.02,419.9c-.22.25-.44.5-.66.74-3.29,1.54-6.63,2.92-10.36,2.91-.49-.2-.89-.47-.82-1.09,3.15-.98,6.28-1.98,9.44-2.92.81-.24,1.77-.91,2.4.35Z"/>
    <path class="cls-110" d="m748.6,468.38c.21.48.42.96.64,1.44-.76,3.65-2,7.1-4.19,10.16-.21-.25-.41-.51-.62-.76.62-3.91,1.91-7.56,4.17-10.84Z"/>
    <path class="cls-14" d="m661.78,423.07c4.81-1.8,9.63-2.31,14.47-.1-.22.28-.49.49-.82.62-4.25-.05-8.5-.08-12.73.53-.52-.16-1-.36-.92-1.05Z"/>
    <path class="cls-57" d="m606.64,716.5c.23.2.46.4.68.6-2.92,2.29-5.84,4.59-8.75,6.88-.48-.12-.78-.4-.81-.92,2.46-2.86,5.13-5.45,8.88-6.57Z"/>
    <path class="cls-99" d="m751.84,591.5c0-.16,0-.33,0-.49-.2-.35-.15-.67.14-.95,2.23-1.53,4.76-1.12,7.23-1.13.73.03,1.43.17,2.03.63.25.32.27.64.04.98-3.11.71-6.29.75-9.45.96Z"/>
    <path class="cls-119" d="m597.91,723.38c.22.2.44.4.66.6-2.68,2.11-5.37,4.21-8.05,6.32-.62.26-.78-.13-.88-.61,2.16-2.88,4.59-5.41,8.27-6.31Z"/>
    <path class="cls-15" d="m675.28,423.15c.32-.06.64-.11.96-.17,3.39,1.42,6.67.59,9.93-.52.29.23.57.46.86.68-3.19,3.34-8.54,3.34-11.75,0Z"/>
    <path class="cls-55" d="m350.83,449.33c-.5.67-1.25.48-1.92.55-2.16.78-3.97.11-5.57-1.36-.61-.88-1.95-.14-2.51-1.13,3.56-.54,6.78.71,9.99,1.94Z"/>
    <path class="cls-11" d="m589.83,729.7c.23.2.46.4.69.6-2.33,1.84-4.66,3.67-6.98,5.51-.39-.42-.78-.84-1.17-1.26,2.52-1.57,4.16-4.49,7.46-4.85Z"/>
    <path class="cls-121" d="m318.94,473.58c-.03.5-.06,1-.1,1.49-1.32-4.38-1.15-8.68.63-12.91.3.19.51.46.64.79.28.84.28,1.69.23,2.56-.03.52-.11,1.03-.24,1.54-.83,2.1.47,4.58-1.16,6.53Z"/>
    <path class="cls-143" d="m352.2,451.37c-.23-.6-.45-1.19-.68-1.79,2.9.96,5.81,1.92,8.72,2.87-.03.54-.22.98-.75,1.21-2.72.14-5.06-.88-7.29-2.29Z"/>
    <path class="cls-51" d="m346.42,494.06c.21.52.43,1.04.64,1.57-2.9-.93-5.8-1.87-8.7-2.8.51-.65,1.26-.43,1.92-.53,2.41-.67,4.32.4,6.14,1.76Z"/>
    <path class="cls-63" d="m761.29,590.54c-.02-.26-.04-.52-.05-.78.68-.83,1.72-.86,2.63-1.2,1.75-.14,3.47-1.25,5.27-.2.49.22.98.44,1.47.66-2.97,1.32-6.14,1.47-9.32,1.51Z"/>
    <path class="cls-133" d="m319.58,462.97c-.04-.27-.07-.54-.11-.8.65-2.6,1.98-4.82,3.83-6.75.15.96-.24,1.8-.58,2.65.32,1.77-.88,2.99-1.58,4.4-.44.42-.88.82-1.56.5Z"/>
    <path class="cls-138" d="m328.96,489.09c.46-.63,1.13-.47,1.76-.48,1.99-.52,3.28.58,4.47,1.91-.05.51,1.48.47.45,1.31-2.43-.41-4.63-1.4-6.68-2.75Z"/>
    <path class="cls-98" d="m430.8,608.55c.25-.22.5-.43.75-.65,1.92,1.22,3.84,2.45,5.76,3.67.05.13.11.27.17.4-.02.77-.48,1.31-1.16.98-2.16-1.04-4.69-1.68-5.52-4.4Z"/>
    <path class="cls-28" d="m758.19,546.82c-.03-.43-.06-.86-.09-1.3,3.18-.32,6.36-.92,9.48.38,0,0-.08.18-.08.18-2.22,1.62-4.89.28-7.23,1.09-.74.17-1.41-.07-2.07-.35Z"/>
    <path class="cls-95" d="m661.78,423.07c.28.23.56.46.83.69-1.17,1.98-3.35,2.19-5.21,2.97-.89.76-.69-.72-1.26-.61,1.62-1.49,3.54-2.42,5.63-3.04Z"/>
    <path class="cls-108" d="m493.45,452.93c.2.22.4.45.6.67.37,1.07,1.31,1.9,1.35,3.12-1.11,0-2.23,0-3.34,0-1.12-1.85.29-2.76,1.4-3.78Z"/>
    <path class="cls-20" d="m579.8,393.11c1.71,1,3.42,1.99,5.13,2.99-.12.46-.41.76-.86.91-2.11-.29-3.85-1.19-5.05-3,0-.53.34-.76.78-.9Z"/>
    <path class="cls-56" d="m571.05,388.1c1.81.84,3.59,1.71,5.13,3-.12.46-.41.76-.86.91-2.09-.32-3.75-1.37-5.05-3.01,0-.53.35-.75.79-.91Z"/>
    <path class="cls-115" d="m619.93,707.19c-.23-.19-.46-.39-.69-.58.85-2.31,2.7-3.43,4.91-4.14.49.1.83.31.74.89-1.65,1.28-3.3,2.55-4.95,3.83Z"/>
    <path class="cls-97" d="m562.29,383.08c1.73.99,3.45,1.99,5.18,2.98-.11.47-.41.77-.85.94-2.14-.27-3.79-1.36-5.12-3,0-.53.36-.76.79-.93Z"/>
    <path class="cls-29" d="m678.53,518.62c3.41,0,6.82-.01,10.23-.02-3.41.75-6.82.52-10.23.02Z"/>
    <path class="cls-25" d="m601.2,405.46c-.24.19-.49.39-.73.58-2.24.45-3.48-.91-4.57-2.53.12-.54.35-.88.97-.56,1.58.59,3.04,1.41,4.33,2.5Z"/>
    <path class="cls-116" d="m596.87,402.95c-.26.21-.52.41-.79.62-2.23.39-3.5-.92-4.56-2.58.13-.55.4-.85,1-.55,1.58.62,3.03,1.46,4.35,2.52Z"/>
    <path class="cls-16" d="m544.74,388.6c.21.23.42.46.63.68.07,2.03-1.2,3.11-2.81,3.96-.5-.06-.79-.36-.91-.83,1.03-1.27,2.06-2.54,3.09-3.81Z"/>
    <path class="cls-16" d="m520.35,419.2c.2.23.4.46.61.69.08,2.03-1.18,3.12-2.79,3.96-.5-.06-.79-.36-.91-.83,1.03-1.27,2.06-2.54,3.09-3.81Z"/>
    <path class="cls-131" d="m636.87,680.25c-.24.22-.49.43-.73.65-1.28-.79-2.37-1.78-3.12-3.1.22-.23.43-.47.64-.7,1.93.17,2.96,1.27,3.21,3.15Z"/>
    <path class="cls-13" d="m534.81,402.47c-.21-.23-.41-.45-.62-.68,1.02-1.27,2.04-2.55,3.06-3.82.47.12.76.42.87.9-.65,1.61-1.21,3.31-3.31,3.6Z"/>
    <path class="cls-72" d="m566.68,386.71c.26-.21.53-.43.79-.64,1.19.68,2.38,1.35,3.57,2.03-.25.21-.49.42-.74.62-1.86.49-2.86-.55-3.63-2.01Z"/>
    <path class="cls-24" d="m592.52,400.43c-.27.21-.54.42-.82.63-1.92.5-2.96-.7-3.92-2.04-.01-.54.32-.78.78-.92,1.32.78,2.64,1.55,3.96,2.33Z"/>
    <path class="cls-78" d="m588.56,398.11c-.26.22-.53.43-.79.65-1.84.47-2.93-.39-3.57-2.03.24-.21.49-.42.73-.63,1.21.67,2.42,1.34,3.63,2.01Z"/>
    <path class="cls-118" d="m541.65,392.41c.22.23.43.47.65.7.07,1.65-.77,2.67-2.25,3.25-.49-.06-.76-.35-.87-.82.82-1.04,1.64-2.09,2.47-3.13Z"/>
    <path class="cls-70" d="m624.88,703.36c-.25-.21-.49-.43-.74-.64-.13-1.18.47-1.94,1.42-2.51.75.18,1.37.55,1.8,1.2-.83.65-1.66,1.3-2.49,1.95Z"/>
    <path class="cls-20" d="m517.26,423.01c.22.23.43.47.65.7-.08,1.64-.6,2.93-2.51,3.1-.21-.22-.42-.44-.63-.67.83-1.04,1.66-2.09,2.48-3.13Z"/>
    <path class="cls-74" d="m575.44,391.71c.25-.2.49-.41.74-.61,1.21.67,2.42,1.34,3.63,2.01-.25.2-.49.4-.74.61-1.86.5-2.86-.56-3.63-2.01Z"/>
    <path class="cls-134" d="m326.43,452.33c.26.24.52.47.78.71.05,1.25-.64,1.79-1.79,1.91-.54-.04-1.08-.09-1.63-.13.69-1.03,1.51-1.92,2.64-2.48Z"/>
    <path class="cls-82" d="m539.19,395.54c.21.23.41.46.62.69.02,1.32-.35,2.34-1.91,2.42-.22-.23-.43-.46-.65-.68.65-.81,1.29-1.62,1.94-2.43Z"/>
    <path class="cls-85" d="m562.29,383.08l-.72.63c-1.45.63-2.08-.27-2.59-1.38.1-.52.27-.95.94-.6.79.45,1.59.9,2.38,1.35Z"/>
    <path class="cls-110" d="m750.05,463.88c-.01-2-.02-4-.04-6,.57,2,.51,4,.04,6Z"/>
    <path class="cls-52" d="m652.29,376.21c.24-.23.49-.46.73-.68.85.41,1.5,1.01,1.85,1.9-.22.23-.43.46-.65.7-1.34.06-1.97-.59-1.94-1.91Z"/>
    <path class="cls-140" d="m559.91,381.74c-.25.21-.5.42-.74.63-1.09.35-1.83.12-1.94-1.16.23-.21.45-.41.68-.62.67.38,1.33.77,2,1.15Z"/>
    <path class="cls-29" d="m676.32,517.18c-.26.23-.51.47-.77.7-.82-.11-1.54-.43-2.05-1.11.26-.21.53-.42.79-.62,1.09-.47,1.72-.04,2.03,1.03Z"/>
    <path class="cls-44" d="m608.4,647.83c5.98,15.12,11.81,29.84,17.63,44.57-.14.15-.28.3-.43.45-.96-.66-1.93-1.3-2.89-1.97-18.53-12.93-37.07-25.82-55.54-38.83-2.26-1.59-4.6-2.21-7.26-2.28-18.63-.49-37.27-.99-55.9-1.54-18.42-.54-36.83-1.2-55.25-1.69-2.49-.07-3.34-.76-3.49-3.36-1.29-21.68-2.76-43.34-4.14-65.01-.97-15.35-1.84-30.7-2.81-46.05-1.42-22.4-2.87-44.79-4.37-67.19-.13-1.88.12-2.67,2.35-2.63,12.61.19,25.22.2,37.83.25,41.68.17,83.37.34,125.05.5,15.11.06,30.23-.06,45.34.2,6.14.1,12.28.3,18.43.22,2.21-.03,2.54.79,2.39,2.76-1.28,16.99-2.45,33.98-3.69,50.97-1.58,21.65-3.23,43.3-4.78,64.96-1.16,16.17-2.2,32.35-3.33,48.52-.32,4.56-.88,9.11-1.02,13.67-.08,2.51-.8,3.35-3.42,3.34-12.4-.07-24.8.08-37.2.14-1.01,0-2.03,0-3.49,0Z"/>
    <path class="cls-103" d="m438.04,620.59c.45,7.12.9,14.24,1.34,21.35-3.53.27-6.19,1.88-8.04,4.94-.57.94-.11,1.3.46,1.75,1.78,1.39,3.64,2.68,5.42,4.08,1.31,1.03,2.04-.07,2.94-.63,5.02.12,10.04.24,15.06.36.17.27.19.56.06.85-14.09,17.89-28.49,35.53-42.63,53.37-.45.57-1.05,1.03-1.46,1.62-1.49,2.14-3.07,1.98-5.01.52-5.82-4.38-11.58-8.84-17.42-13.19-9.59-7.16-19.03-14.52-28.65-21.65-3.55-2.63-3.61-2.78-.72-6.28,9.72-11.79,19.51-23.52,29.27-35.28,7.44-8.96,14.98-17.83,22.34-26.85,1.48-1.81,2.74-2.23,4.7-.83,6.69,4.78,13.46,9.44,20.25,14.08.77.53,1.12,1.5,2.08,1.77Z"/>
    <path class="cls-9" d="m559.11,457.23c-11.11-.47-22.21-.33-33.32-.08-.43,0-.81.09-1.03-.38-6.2-2.57-11.39-6.81-17.02-10.32-2-1.24-1.22-2.74-.08-4.21,4.83-6.25,9.83-12.38,14.71-18.59,9.5-12.1,19.21-24.04,28.65-36.2,2.19-2.82,3.24-2.96,6.34-1.16,11.34,6.59,22.65,13.23,33.99,19.82,3.78,2.2,3.76,2.85,1.08,6.42-10.5,13.97-21.07,27.88-31.59,41.84-.5.66-1.09,1.27-1.24,2.14-.1.28-.26.52-.48.73Z"/>
    <path class="cls-9" d="m434.11,563.48c-15.37.81-30.74,1.6-46.1,2.47-.91.05-2.31-.54-2.75.78-.38,1.15.79,1.85,1.44,2.59,3.99,4.52,8.05,8.97,12.05,13.49.45.51,1.19.88,1.14,2.01-25.62-3.33-51.2-6.66-76.78-9.99-.03-.17-.06-.35-.09-.52,7.34-2.77,14.68-5.56,22.03-8.32,7.2-2.7,14.41-5.37,21.6-8.07.84-.31,1.98-.37,2.21-1.43.25-1.15-.88-1.52-1.59-2.07-2.03-1.58-4.08-3.15-6.48-5.01,9.02-2.45,17.59-4.79,26.17-7.12,8.12-2.21,16.28-4.32,24.36-6.67,2.27-.66,3.79-.3,5.54,1.26,5.42,4.84,11.02,9.49,16.54,14.21.57,4.11.83,8.24.69,12.38Z"/>
    <path class="cls-9" d="m594.13,678.36c8.11,4.99,15.65,10.8,23.51,16.15.21.15.26.54.38.82,3.46,3,3.54,4.05.09,6.73-10.53,8.17-21.12,16.25-31.61,24.46-2.98,2.33-3.61,2.18-5.52-1.03-12.17-20.37-24.47-40.66-36.77-60.96-2.16-3.57-2.13-3.61,1.43-6.13,1.53-1.08,2.94-2.34,4.78-2.91,3.61.13,7.22.24,10.83.4.59.03,1.27.16,1.74.49,5.65,3.98,11.27,8,16.89,12.01.02,1.59-1.53,1.46-2.36,2.03-4.56,3.12-5.22,8-4.43,13.34.7,4.71,5.33,9.08,9.46,9.64,5.66.77,10.78-3.87,11.05-9.92.08-1.71-.53-3.52.53-5.14Z"/>
    <path class="cls-19" d="m508,654.18c-10.32,15.34-20.63,30.68-30.94,46.03-.55.82-1.23,1.3-2.2,1.56-20.17,5.37-40.34,10.76-60.51,16.14-.19.05-.4,0-1.12,0,17.66-21.83,35.1-43.41,52.55-64.98,2.05,0,4.1.02,6.15.02.51,1.41-.76,2.02-1.37,2.85-11.89,15.92-24.04,31.64-35.88,47.59,7.07-9.31,14.24-18.55,21.29-27.87,5.15-6.81,10.34-13.58,15.47-20.41.63-.83,1.23-1.68,2.21-2.15l5.76.53c.33,1.92-1.13,3.03-2.07,4.33-11.08,15.31-22.18,30.62-33.2,45.98,11.65-15.76,23.1-31.66,34.63-47.5.8-1.1,1.52-2.23,2.82-2.81l6.5.09c.44,1.69-.85,2.7-1.61,3.86-8.96,13.7-18.47,27.03-27.28,40.82,9.26-13.91,18.87-27.58,28.07-41.53.79-1.2,1.41-2.59,2.97-3.06,1-.02,2-.05,3-.07.56,1.36-.59,2.11-1.18,2.98-4.28,6.26-8.7,12.42-12.89,18.75-.5.76-1.25,1.4-1.37,2.62,4.56-1.37,8.88-3.09,13.23-4.71,1.17-.44,1.66-1.54,2.26-2.49,2.95-4.65,5.93-9.27,8.85-13.95.67-1.07,1.29-2.14,2.53-2.64,1.11,0,2.22.02,3.32.02Z"/>
    <path class="cls-19" d="m455.24,652.7s0-.24,0-.24c2.76.14,5.51.28,8.27.41-10.57,13.11-21.13,26.23-31.71,39.34-6.6,8.17-13.28,16.28-19.81,24.51-1.24,1.56-2.01,1.77-3.66.51-19.23-14.76-38.48-29.49-57.83-44.09-1.85-1.4-1.11-2.19-.25-3.38,7.72-8.99,15.46-17.96,23.15-26.97,12.49-14.64,24.98-29.29,37.37-44.01,1.44-1.71,2.58-2.42,4.42-.86,5.04,3.79,10.29,7.26,15.61,10.64,1.71,1.22,3.41,2.45,5.12,3.67.61.44,1.21.8,1.56-.26.5,2.41.29,4.83.28,7.25-.93.57-1.56-.08-2.23-.56-6.43-4.57-12.96-8.99-19.39-13.57-2.48-1.77-2.54-2.65-5.12.54-6.51,8.06-13.25,15.93-19.88,23.88-7.56,9.06-15.07,18.18-22.57,27.3-3.42,4.16-6.83,8.34-10.42,12.36-1.46,1.63-1.2,2.46.43,3.67,16.06,11.94,31.96,24.09,47.91,36.18,1.67,1.26,2.68,1.77,4.45-.42,12.81-15.75,25.46-31.64,38.08-47.54,2.16-2.72,4.82-5.08,6.22-8.36Z"/>
    <path class="cls-126" d="m516.65,654.7c-1.2,3.14-3.41,5.67-5.22,8.42-9.67,14.69-19.46,29.29-29.15,43.96-.82,1.24-1.78,1.88-3.15,2.26-22.08,6.01-44.16,12.02-66.22,18.11-1.72.47-2.9.15-4.28-.89-20.09-15.21-40.22-30.36-60.34-45.54-1.7-1.28-1.92-5.49-.31-6.73,1.08-.83,1.68.34,2.34.84,7.72,5.84,15.43,11.71,23.13,17.58,10.93,8.33,22.02,16.47,32.67,25.14,3.11,2.53,5.57,2.81,9.15,1.82,19.98-5.52,40.01-10.85,60.05-16.15,1.57-.42,2.51-1.18,3.36-2.45,10.51-15.6,21.06-31.18,31.59-46.76,2.14-.26,4.27-.23,6.36.38Z"/>
    <path class="cls-19" d="m636.87,680.25c-1.07-1.05-2.14-2.1-3.21-3.15-5.69-6.85-8.25-14.54-6.33-23.43,3.35-.4,6.7-.22,10.06-.12.03,1.35.48,2.55,1.23,3.66,1.96,2.8,3.72,5.79,6.18,8.16,3.96,3.83,8.72,5.9,14.38,5.38,1.75-.16,3.53.08,5.26-.31,5.08-1.41,7.22-3.28,11.96-10.54,1.08,1.46,1.26,3.19,1.76,4.79.57,14.15-11.52,24.84-25.65,22.67-.82-.13-1.65-.17-2.47-.25-4.77-1.56-9.25-3.67-13.17-6.85Z"/>
    <path class="cls-19" d="m559.11,457.23c.01-.14.03-.28.04-.42,4.79-7.43,10.44-14.22,15.76-21.25,6.27-8.28,12.35-16.71,18.82-24.84,1.61-2.02.58-2.75-1.1-3.73-12.23-7.11-24.48-14.19-36.62-21.45-2.02-1.21-3.09-.27-4.18,1.13-4.92,6.31-9.92,12.56-14.9,18.82-9.25,11.63-18.53,23.23-27.68,34.93-3.81,4.86-4.92,3.73.96,7.54,3.49,2.26,6.98,4.53,10.49,6.77.76.48,1.83.69,1.65,1.96-8.98,0-17.97.02-26.95.02-.48-1.02-2.89-1.22-1.35-3.12,7.12-8.93,14.23-17.86,21.35-26.8.84-1.03,1.67-2.06,2.51-3.1,1.02-1.27,2.03-2.55,3.05-3.82,4.62-5.8,9.24-11.61,13.86-17.41,1.03-1.27,2.06-2.54,3.09-3.81.64-.81,1.27-1.62,1.91-2.42.83-1.04,1.67-2.08,2.5-3.13,1.02-1.28,2.04-2.55,3.06-3.83,2.08-2.55,4.26-5.02,6.2-7.67,1.38-1.9,2.63-2.74,4.53-.72.23.24.74.22,1.13.31.65.39,1.29.77,1.94,1.16.8.45,1.6.9,2.4,1.35,1.7,1,3.41,2,5.11,2.99,1.21.67,2.42,1.34,3.63,2.01,1.71,1,3.42,1.99,5.13,2.99,1.21.67,2.42,1.34,3.63,2.01,1.54,1.29,3.32,2.18,5.13,3.01,1.19.68,2.38,1.35,3.57,2.03,1.31.77,2.63,1.54,3.94,2.31,1.46.83,2.92,1.67,4.38,2.5,1.46.82,2.92,1.65,4.39,2.47,1.11,1.3-.34,1.85-.85,2.54-12.17,16.2-24.38,32.38-36.59,48.56-1.3.03-2.61.06-3.91.09Z"/>
    <path class="cls-19" d="m660.71,612.34c3.55-.61,6.97-1.95,10.64-1.96,7.49-.03,12.99,3.5,16.25,9.95,1.3,2.58,2.44,3.64,5.17,3.01.68-.16,1.44.02,2.16.05,4.8,1.39,6.77,4.84,6.87,9.57.23,10.72-3.8,18.94-13.98,23.5-2.52.39-4.99,1.3-8.09.75,3.6-2.43,7.06-4.51,9.08-8.1-.02-1.82,1.33-3.18,1.56-4.99.71-5.47-2.56-8.74-6.31-11.64-5.82-4.5-12.44-6.81-19.9-6.53-1.41.05-2.92.4-4.24-.51-.23-4.4.65-8.73.79-13.1Z"/>
    <path class="cls-44" d="m713.7,482.33c1.79,4.4.66,8.62-1.95,12.04-8.59,11.21-20.02,17.71-34.16,19.22-4.26.45-7.42-1.35-9.46-5.1.18-2.15.36-4.31.54-6.46.33-1.61,1.18-2.96,2.12-4.27,2.55-3.79,5.8-6.88,9.45-9.58,1.51-1.17,3.09-2.22,4.79-3.09,3.03-2.11,6.46-3.35,9.9-4.57,1.97-.7,4-1.21,6.05-1.63,3.05-.62,6.05-.28,9.01.56,1.59.51,3.1,1.13,3.73,2.88Z"/>
    <path class="cls-19" d="m532.99,654.93c15.24,25.28,30.49,50.56,45.73,75.84.8,1.32,1.59,2.64,2.4,4-4.86,1.48-6.12,1-8.59-3.08-15.47-25.63-30.94-51.27-46.42-76.9,2.29.05,4.58.09,6.87.14Z"/>
    <path class="cls-19" d="m625.56,700.21c.34,1.3-.98,1.65-1.42,2.51-1.63,1.3-3.27,2.59-4.9,3.89-4.2,3.3-8.4,6.59-12.59,9.89-2.91,2.29-5.82,4.59-8.73,6.88-2.7,2.11-5.39,4.21-8.09,6.32-2.72,1.26-4.29,4.27-7.46,4.85-9.8-16.32-19.61-32.64-29.41-48.96-6.07-10.11-12.12-20.23-18.18-30.35,4.62.06,9.24.12,13.86.19-.8,2.25-2.94,3.06-4.68,4.24-1.27.87-1.61,1.48-.72,2.96,11.62,19.22,23.2,38.46,34.81,57.68,1.34,2.22,2.7,4.44,4.02,6.68.84,1.42,1.64,1.61,2.94.57,11.37-9.09,22.99-17.87,34.54-26.73,2.06-1.58.08-2.97.9-4.22,1.82,1.04,3.58,2.16,5.11,3.61Z"/>
    <path class="cls-103" d="m476.38,456.61c-7.18-13.34-14.37-26.69-21.66-40.23,2.15-1.09,4.33-.71,6.42-.86,2.49-.19,5.01-.18,7.46-.58,2.45-.4,3.18.67,3.65,2.84,2.66,12.48,5.45,24.94,8.2,37.4.11.5.31.99.47,1.48-1.51-.02-3.03-.03-4.54-.05Z"/>
    <path class="cls-48" d="m658.25,646.82c3.23.29,6.34,1.02,9.28,2.39,4.42,2.06,7.25,6.74,6.64,10.97-.49,3.37-6.14,8.56-9.93,8.97-.99.11-2.18,0-3.02-.45-6.61-3.65-13.75-6.33-19.88-10.86-1.52-1.12-2.49-2.44-2.75-4.29,5.66-.02,11.33-.05,16.99-.07.65.75.44,1.5-.03,2.24.69-.6.43-1.76,1.32-2.24,2.04-1.89.61-4.51,1.38-6.66Z"/>
    <path class="cls-66" d="m466.69,456.66c-5.42-6.03-11.66-11.21-17.49-16.81-1.53-1.48-2.03-2.68-1.32-4.77,1.94-5.68,3.62-11.44,5.65-17.92,7.29,13.57,14.24,26.53,21.2,39.48-2.68,0-5.36.01-8.04.02Z"/>
    <path class="cls-89" d="m455.24,652.7c2.33.44.31,1.37.06,1.69-4.82,6.12-9.71,12.2-14.6,18.27-9.9,12.31-19.85,24.58-29.66,36.97-1.42,1.8-2.27,2-4.11.6-16.45-12.54-32.95-25.01-49.49-37.45-1.53-1.15-1.62-1.87-.37-3.37,18.2-21.77,36.34-43.59,54.43-65.45,1.36-1.65,2.19-1.36,3.7-.3,7.47,5.26,15.03,10.39,22.55,15.56.1.46.19.92.29,1.38-1.26.48-1.85-.65-2.62-1.18-6.76-4.65-13.52-9.3-20.18-14.1-1.54-1.11-2.22-1-3.43.47-17.49,21.14-35.04,42.24-52.66,63.27-1.51,1.8-1.13,2.45.55,3.71,15.72,11.78,31.4,23.62,46.99,35.56,1.9,1.45,2.69,1.19,4.1-.57,13.93-17.47,27.96-34.87,41.97-52.28.78-.97,1.65-1.85,2.48-2.77Z"/>
    <path class="cls-19" d="m564.72,457.13c12.29-16.33,24.58-32.65,36.93-49.04,3.33,4.99,3.32,5.23-.07,9.71-9.02,11.93-18.04,23.85-27.04,35.79-.87,1.15-1.61,2.4-2.41,3.6-2.47-.02-4.94-.04-7.41-.06Z"/>
    <path class="cls-9" d="m680.53,444.87c2.21-1.71,3.55-4.08,4.53-6.58.82-2.11,2.31-3.03,4.29-2.63,2.01.41,1.37,2.3,1.26,3.66-1.02,12.62-8,20.76-19.36,25.6-.57-2.36,1.8-5.45-.4-6.94-1.68-1.14-4.62-.41-7-.52-.52-.02-1.03-.09-1.54-.13,1.72-3,4.12-5.59,7.16-6.92,3.8-1.66,7.47-3.49,11.06-5.52Z"/>
    <path class="cls-103" d="m434.72,572.24c-12.06.43-24.14.56-36.17,1.42-4.97.36-7.76-1.64-10.29-5.89,1.65-.14,3.12-.32,4.58-.39,13.09-.67,26.18-1.33,39.28-1.97,1.1-.05,2.11-.05,2.32-1.43.09,2.75.18,5.5.27,8.25Z"/>
    <path class="cls-32" d="m522.35,456.69c-4.85-3.19-9.63-6.47-14.57-9.51-2.33-1.43-2.94-2.37-.94-4.86,14.97-18.63,29.81-37.37,44.59-56.15,1.68-2.13,2.89-2.32,5.24-.92,12.2,7.3,24.5,14.43,36.82,21.52,2.07,1.19,2.51,1.95.88,4.09-11.31,14.76-22.46,29.64-33.68,44.47-.43.56-1.02,1-1.53,1.49-1.52-1.11.18-1.63.55-2.12,10.86-14.47,21.75-28.92,32.76-43.29,1.54-2.01,1.73-2.89-.71-4.28-11.93-6.8-23.76-13.76-35.58-20.75-1.68-1-2.62-.89-3.84.66-14.82,18.78-29.68,37.52-44.6,56.22-1.18,1.47-.67,1.96.59,2.77,5.51,3.53,10.97,7.14,16.44,10.73-.8-.02-1.61-.05-2.41-.07Z"/>
    <path class="cls-126" d="m664.33,562.98c11.42,9.38,10.32,24.31-2.37,32.36.79-10.79,1.58-21.57,2.37-32.36Z"/>
    <path class="cls-18" d="m620.45,696.6c1.68,2.2.94,3.59-1.16,5.19-11.42,8.67-22.75,17.47-34.04,26.31-1.73,1.35-2.45,1.33-3.64-.66-12.88-21.54-25.84-43.03-38.88-64.47-1.17-1.93-.83-2.78.95-3.85,1.76-1.05,3.32-2.45,4.97-3.69.6.02,1.19.04,1.79.06-1.56,1.87-3.71,2.99-5.65,4.35-1.19.83-1.67,1.35-.74,2.88,12.77,21.05,25.49,42.14,38.12,63.28,1.14,1.9,1.81,1.53,3.22.43,10.5-8.19,21.05-16.31,31.59-24.44,3.64-2.81,3.65-2.79,1.07-6.67,1.15-.22,1.65.78,2.42,1.28Z"/>
    <path class="cls-44" d="m671.22,466.27c12.11-5.45,19.73-14.22,20.67-27.92,1.44.29,1.68.45,2.24,1.57,1.63,3.24,1.78,6.51.46,9.92-3.98,10.24-11.46,16.85-21.5,20.86-.82.33-1.6.5-2.29-.25.14-1.4.28-2.79.42-4.19Z"/>
    <path class="cls-103" d="m495.04,653.8c2.47.11,4.94.21,7.41.32.53,1.16-.25,1.99-.78,2.85-2.66,4.23-5.33,8.45-7.96,12.69-1.35,2.17-3.04,3.62-5.43,4.35-2.09.64-4.06,1.63-6.18,2.2-.61.17-1.29.23-1.75-.31-.48-.55-.33-1.22.04-1.74,4.76-6.8,9.03-13.94,14.36-20.34.05-.05.2-.02.3-.02Z"/>
    <path class="cls-9" d="m640.5,457.33c.14-.82.3-1.63.41-2.45.36-2.67,1.03-3.87,4.05-2.01,2.78,1.72,6.06,1.59,9.25-.2-5.82.84-10.81.13-13.09-6.18,5.5,3.13,10.92,1,16.34.07.45.92-.21,1.57-.56,2.29-1.61,3.32-1.51,4.13.99,6.89.41.45.96.82.82,1.56-6.07,0-12.14.01-18.22.02Z"/>
    <path class="cls-77" d="m495.04,653.8c-4.18,6.16-8.36,12.32-12.53,18.48-.74,1.09-1.48,2.18-2.67,3.94,4.09-1.51,7.46-2.71,10.79-4.01.52-.2.97-.76,1.28-1.25,3.53-5.6,7.03-11.22,10.54-16.83.75.01,1.49.03,2.24.04-3.71,5.86-7.45,11.7-11.09,17.6-.82,1.33-1.82,2.08-3.28,2.58-4.66,1.59-9.26,3.32-13.89,4.99-.18-.23-.36-.45-.54-.68,5.79-8.35,11.58-16.71,17.37-25.06.59.07,1.19.13,1.79.2Z"/>
    <path class="cls-41" d="m473.65,652.97c-3.9,6.27-8.7,11.88-13.12,17.77-8.04,10.73-16.2,21.37-24.31,32.04-.38.5-.74,1.01-1.15,1.48-.44.51-.79,1.46-1.69.86-.97-.64-.13-1.25.26-1.79.66-.93,1.37-1.83,2.06-2.74,12.08-15.88,24.16-31.75,36.23-47.63.57,0,1.14,0,1.71,0Z"/>
    <path class="cls-6" d="m481.59,653.48c-12.31,17.02-24.61,34.04-36.93,51.05-.42.57-.77,1.87-1.79.83-.94-.96.3-1.66.75-2.29,10.53-14.59,21.12-29.14,31.68-43.71,1.4-1.93,2.74-3.91,4.11-5.87.73,0,1.45,0,2.18-.01Z"/>
    <path class="cls-129" d="m658.72,457.31c-4.66-3.28-4.91-5.38-1.25-10.73,1.02.03,1.69-.71,2.51-1.12,1.77-.58,3.56-1.06,5.38-1.44,5.17-1.08,8.67-4.43,11.11-8.79,2.63-4.72-1.49-9.51-7.66-9.16-1.16.02-2.57.6-2.87-1.29,2.02-2.23,4.59-1.38,6.89-.97,6.12,1.09,9.06,7.11,6.21,12.61-2.83,5.45-7.24,9-13.29,10.43-2.02.48-4.15.52-6.06,1.41-2.08.97-2.97,3.09-2.03,4.87,1.01,1.9,2.43,2.85,4.53,1.39.71-.81,1.58-1.43,2.4-2.11,1.99-2.04,4.33-3.48,7.08-4.26,2.01-.58,3.78-1.62,5.5-2.8.82-.56,1.52-1.48,2.73-1.14.21.22.42.43.63.65-1.77,2.26-4.16,3.77-6.8,4.56-3.69,1.1-6.75,2.88-9.07,5.97-.59.78-1.56,1.28-2.35,1.91-1.2,0-2.39,0-3.59,0Z"/>
    <path class="cls-26" d="m490.25,653.67c-10.13,14.99-20.25,29.99-30.41,44.96-.42.61-.62,2.23-1.9,1.27-1.16-.87.18-1.67.61-2.3,9.17-13.64,18.39-27.24,27.59-40.85.7-1.03,1.31-2.11,1.96-3.17.72.03,1.43.06,2.15.1Z"/>
    <path class="cls-53" d="m659.92,625.44c8.8-.59,17.2.4,24.4,6.15,2.04,1.63,4,3.33,5.4,5.55,2.53,4.02,2.2,8.12-.92,11.97-4.1-1.28-7.46-3.51-9.54-7.39,1-1.83,2.49-3.27,3.77-4.88,1.46-1.82,1.17-3.14-.8-4.24-.36-.2-.69-.46-1.04-.67q-5.24-3.23-8.92,1.5c-.82,1.05-1.54,2.23-2.99,2.55-.23-.27-.46-.53-.69-.8,1.25-1.76,2.48-3.53,3.75-5.27,1.13-1.54,1.6-2.52-1.1-2.82-3.11-.35-6.19-.44-9.31-.41-.77,0-2.35.78-2.01-1.24Z"/>
    <path class="cls-1" d="m594.13,678.36c-.05,2.78.48,5.56-.5,8.31-1.34,3.8-3.71,6.57-7.74,7.29-4.21.75-7.78-.81-10.46-4.13-5.91-7.31-3.92-16.78,4.45-21.43.62.13,1.17.37,1.65,1.15-4.13.93-6.75,3.52-7.71,7.51-.96,4-.3,7.81,2.17,11.23,2.49,3.43,6.48,5.22,9.94,4.35,3.51-.88,6.36-4.26,6.95-8.36.25-1.75.16-3.5-.2-5.26-.39-1.91.38-1.71,1.44-.65Z"/>
    <path class="cls-126" d="m431.36,517.89c-5.95-7.91-6.61-17.43-1.67-23.98,1,4.13.57,8.39,1.07,12.58.45,3.77.42,7.6.6,11.4Z"/>
    <path class="cls-111" d="m670.8,470.46c11.51-3.04,19.14-10.35,23.35-21.33,1.08-2.82,1.03-5.7-.34-8.48-.46-.93-.79-1.94-1.92-2.3.17-.51.35-1.03.52-1.55,2.93,2.36,3.84,5.65,3.59,9.12-.77,10.78-14.36,24.52-25.31,25.84-.24-.46-.16-.89.1-1.31Z"/>
    <path class="cls-102" d="m440.18,652.09c-.27.88-.54,1.75-.92,3.02-3.45-2.57-6.74-5.02-10.05-7.49.4-1.28,1.64-1.17,2.43-1.71.4-.27.98-.32,1.06-.93.28-2.13,4.46-4.25,6.58-3.32.06.03.07.19.1.28-.79,1.59-2.76,1.15-4.12,2.52,2.89,1.71,5.39,3.79,4.91,7.62Z"/>
    <path class="cls-54" d="m580.93,685.23c-1.9.32-1.99-.44-1.67-1.37,1.01-2.94,2.05-5.87,3.12-8.79.43-1.18,1.06-1.57,1.9-.28.45.7.97,1.36,1.33,2.11,1.07,2.18,4.36,4.75,3.23,6.16-1.72,2.13-5.6,1.43-7.9,2.17Z"/>
    <path class="cls-103" d="m460.95,452.98c1.49.99,2.72,2.26,3.83,3.65-.47,0-.94,0-1.4,0-1.05-.99-2.11-1.98-3.16-2.96.09-.39.34-.62.73-.69Z"/>
    <path class="cls-27" d="m656.87,653.49c-.27,1.45-.45,2.95-2.41,4.47.5-1.99.81-3.23,1.12-4.47.43,0,.87,0,1.3,0Z"/>
    <path class="cls-37" d="m671.14,497.95c-.83,1.36-1.65,2.72-2.48,4.08.04-.89.09-1.78.13-2.68.57-.69,1.14-1.39,1.71-2.08.37.08.58.31.64.68Z"/>
    <path class="cls-9" d="m637.27,457.31c.7-.87,1.39-1.73,2.16-2.67.87.95.14,1.89.36,2.72-.84-.01-1.67-.03-2.51-.04Z"/>
    <path class="cls-30" d="m710.53,707.24c-.77-.28-1.59-.47-2.29-.87-3.68-2.11-3.65-2.44-1.16-5.89.61-.84,3.1-1.51,1.01-3.31-1.86-1.6-3.21-1.4-4.8.64-.97,1.24-1.36,4.2-4.28,2.65-3.48-1.86-3.68-2.58-1.27-5.59,2.79-3.49,5.76-6.84,8.36-10.45,1.73-2.4,3.03-1.01,4.59-.07,1.89,1.14,1.28,2.5.43,3.89-.27.44-.71.8-.91,1.26-.39.9-2.54,1.59-.45,2.86,1.33.81,2.68,2.36,4.01-.04.35-.63.98-1.1,1.31-1.73,1.54-2.99,3.32-1.75,5.19-.4,2.16,1.56.92,2.97-.13,4.39-2.5,3.41-5.63,6.35-7.7,10.1.8,1.92-.56,2.24-1.91,2.57Z"/>
    <path class="cls-30" d="m738.11,672.7c-1.15.18-1.97-.55-2.85-1.06-3.32-1.92-3.33-1.97-.94-4.92,1.33-1.65,2.96-3.2-.47-4.43-1.12-.4-1.69-.25-2.32.62-.6.84-1.43,1.55-1.9,2.45-1.29,2.44-2.82,1.7-4.54.58-1.93-1.26-2.27-2.41-.57-4.32,2.97-3.32,5.9-6.73,8.41-10.4,1.93-2.81,3.57-1.2,5.1-.12,1.8,1.27.76,2.79-.24,4.11-1.91,2.53-1.69,3.52.98,4.24,1.98.53,2.32-1.37,3.19-2.33,1.31-1.44,2.03-3.24,4.67-1.65,2.45,1.48,2.55,2.78.98,4.81-2.6,3.35-5.57,6.41-7.76,10.08.09,1.27-.58,1.98-1.74,2.33Z"/>
    <path class="cls-30" d="m724.96,690.2c-.78-.27-1.59-.47-2.33-.83-4.1-2.04-4.22-2.77-1.44-6.36.6-.78,2.48-1.64.56-2.92-1.29-.86-2.69-2.35-4.06.03-.46.8-1.28,1.39-1.74,2.19-1.09,1.93-2.26,1.83-4,.7-2.24-1.46-2.85-2.62-.78-4.89,3.08-3.36,5.96-6.93,8.63-10.63,2-2.77,3.46-.52,4.85.31,1.51.9,1.03,2.38.08,3.61-.32.41-.74.76-.98,1.21-.44.83-2.19,1.62-.32,2.65,1.21.67,2.47,2.39,3.89.19.45-.69,1.15-1.24,1.52-1.97,1.57-3.06,3.53-1.69,5.25-.37,1.96,1.5.8,3.01-.35,4.44-2.73,3.38-5.42,6.8-8.13,10.2.48,1,.06,1.76-.65,2.45Z"/>
    <path class="cls-30" d="m724.96,690.2c-.11-.9.25-1.68.65-2.45,1.74.06,2.79-1.29,4.07-2.1,3.08-1.95,6.06-4.05,9.09-6.07,3.22-2.15,4.62-2,7.66.42,1.31,1.04.82,2.31.51,3.29-1.64,5.26-3.45,10.46-5.24,15.67-.22.65-.52,1.64-1.47.9-1.75-1.36-5.01-1.51-4.09-5.13.27-1.08-3.26-3.44-4.16-2.74-3.25,2.53-5.01.03-7.03-1.8Z"/>
    <path class="cls-4" d="m710.53,707.24c.56-.91,2.05-1.14,1.91-2.57,3.81-1.05,6.43-4.07,9.77-5.91,1.09-.6,2.23-1.23,3.08-2.1,2.62-2.68,4.77-.74,6.81.68,1.95,1.36,1.06,3.26.44,5.03-1.61,4.6-3.31,9.18-4.75,13.83-.66,2.11-1.5,2.11-2.95.88-1.48-1.25-3.89-1.88-2.67-4.78.38-.9-3.29-3.35-4.18-2.71-3.66,2.66-5.28-.61-7.46-2.34Z"/>
    <path class="cls-76" d="m738.11,672.7c.58-.78,1.16-1.55,1.74-2.33,4.95-2.2,9.18-5.58,13.51-8.72,2.78-2.02,4.42-.08,6.36.91,1.96,1,1.23,2.84.73,4.37-1.51,4.62-3.19,9.19-4.65,13.83-.5,1.58-1.03,2.15-2.51,1.07-1.64-1.2-3.82-1.64-3.43-4.74.2-1.56-2.76-3.05-3.97-2.27-3.7,2.39-5.44-.56-7.78-2.11Z"/>
    <path class="cls-58" d="m735.08,715.32c-1.39-1.06-1.58-2.04-.33-3.53,1.92-2.29,3.69-4.75,5.28-7.29,1.36-2.18,2.72-2.91,4.84-1.02.36.32.93.39,1.4.58l-.05-.04c1.13,1.44,1.11,2.78-.16,4.2-2.12,2.37-4.21,4.78-6.17,7.28-.99,1.27-2.12,1.83-3.66,1.69-.66-.46-.95-1.14-1.14-1.87Z"/>
    <path class="cls-40" d="m763.04,679.65c-.95-1.05-1.44-1.95-.27-3.37,2.11-2.56,4.05-5.29,5.87-8.07,2.03-3.1,3.53-.12,5.14.39,1.98.64,1.45,2.37.61,3.46-2.28,2.97-4.76,5.77-7.21,8.61-.99,1.15-1.87.06-2.76-.3-.59,0-1.07-.18-1.37-.72Z"/>
    <path class="cls-93" d="m748.71,696.55c-1.56-.61-.68-1.38-.14-2.13,2.14-2.95,4.24-5.92,6.42-8.84,2.11-2.82,3.18.31,4.73.85,2.1.72,1.59,2.27.81,3.29-2.35,3.05-4.94,5.91-7.46,8.82-.62.72-1.27.55-1.84-.12-1.11-.26-2.14-.63-2.52-1.87Z"/>
    <path class="cls-92" d="m748.71,696.55c.84.62,1.68,1.25,2.52,1.87-.61.22-.55.72-.55,1.24-.01,4.19-.29,4.45-4.46,4.35,0,0,.05.04.05.04-.42-.56-.84-1.11-1.25-1.68-1.52-2.12-.84-4.17,1.59-5.05.7-.25,1.71.32,2.09-.77Z"/>
    <path class="cls-5" d="m735.08,715.32c1.27.08,1.11,1.04,1.14,1.87.43,1.92,1.11,4.02-1.53,4.86-2.21.69-3.57-.8-4.44-2.5-1.23-2.42.98-4.31,4.83-4.22Z"/>
    <path class="cls-106" d="m763.04,679.65c.57.04,1.09.15,1.37.72.14.6.35,1.19.4,1.8.16,1.87-.05,3.65-2.39,3.87-2.31.22-3.83-1.19-4.13-3.27-.31-2.07,1.13-3.15,3.22-3.21.51-.01,1.02.05,1.54.09Z"/>
    <path class="cls-103" d="m401.2,587.02c-1.54,2.05-2.89,3.74-4.11,5.52-.82,1.2-1.9,1.08-3.04.9-20.12-3.19-40.24-6.38-60.37-9.57-4.82-.76-9.66-1.45-14.47-2.31-.97-.17-3.2.4-2.56-1.47.51-1.5.69-4.16,3.65-3.77,9.28,1.23,18.56,2.39,27.84,3.6,17.22,2.24,34.43,4.5,51.65,6.75.29.04.58.14,1.4.35Z"/>
    <path class="cls-103" d="m355.57,553.89q2.95-3.78,6.68-.97c1.22.92,2.41,1.87,3.68,2.86-4.18,2.59-4.41,2.54-10.37-1.89Z"/>
    <path class="cls-126" d="m730.64,544.18c-1.24.12-2.47.27-3.71.35-1.34.09-2.25.5-1.75,2.08.46,1.47-.17,1.88-1.58,2.16-3.68.73-7.14,2.06-9.92,4.73-1.15,2.33-3.07,3.98-4.97,5.66-9.15,13.86.53,33.25,17.15,34.37,1.88.13,4.15-.44,4.04,2.73-.04,1.06.93.88,1.65.81,1.35-.14,2.69-.28,4.04-.42,1.25,8.51,1.61,6.8-5.75,7.51-10.15.98-20.32,1.83-30.46,2.9-2.04.21-2.62-.21-2.8-2.27-1.52-17.28-3.17-34.56-4.77-51.83-.3-3.21-.48-6.43-.88-9.62-.21-1.66.31-2.14,1.93-2.28,11.1-.95,22.18-2.01,33.27-3.02q4.27-.39,4.56,4.01c.04.71-.03,1.44-.04,2.15Z"/>
    <path class="cls-114" d="m735.08,544.85c4.01-.03,3.92-.02,4.28,4.14,1.27,14.49,2.54,28.99,3.98,43.46.21,2.08-.38,2.38-2.15,2.44-2.6.08-5.22.25-7.77.71-1.92.34-2.58-.15-2.74-2.05-1.03-12.01-2.14-24.01-3.22-36.02-.25-2.79-.22-5.65-.8-8.37-.65-3.08.61-3.85,3.3-3.68.61.04,1.24-.12,1.86-.18,1.11.08,2.22.1,3.25-.43Z"/>
    <path class="cls-126" d="m377.97,454.71c-1.16-2.44.79-4.27,1.34-6.35.21-.78,1.27-.29,1.95-.06,11.32,3.82,22.63,7.69,33.99,11.39,2.45.8,1.33,2.08.91,3.32-5.6,16.73-11.23,33.45-16.85,50.18-.86,2.56-1.9,5.07-2.53,7.68-.5,2.06-1.4,2.02-3.08,1.45-10.53-3.59-21.04-7.21-31.65-10.54-3.05-.96-4.14-2.08-2.5-5.04.39-.7.49-1.57.73-2.37.91-.42,1.85-.27,2.72.04,1.44.5,2.45.4,3.4-1.05.91-1.39,2.51-1.13,4.01-.89,10.86,1.68,20.93-4.21,24.29-14.55,3.33-10.25-.52-20.54-9.86-26.07-1.74-1.03-3.37-1.88-3.48-4.32-.09-1.87-2.79-1.2-3.38-2.82Z"/>
    <path class="cls-114" d="m358.35,502.38q-4.89-2.05-3.13-7.37c4.27-12.79,8.63-25.54,12.79-38.37.87-2.67,1.75-4.24,4.71-2.47.33.2.81.16,1.22.23.86.32,1.72.63,2.57.95,4.92.34,5.59,1.24,4.1,5.7-4.4,13.11-8.73,26.24-13.15,39.34-.2.59-.34,1.2-.61,1.77-1.33,2.91-2.31,3.16-5.24,1.35-.99-.69-2.1-1.01-3.28-1.12Z"/>
    <path class="cls-33" d="m361.62,503.5c3.08,1.54,4.05.04,4.98-2.82,4.32-13.4,8.8-26.76,13.46-40.05,1.01-2.87.86-4.39-2.37-4.84-.4-.05-.77-.3-1.16-.45.48-.21.97-.42,1.45-.63,1.2.33,2.41.62,3.59,1.02.69.23,1.43.57.89,1.56-1.09,1.97.13,2.57,1.7,3.36,10.22,5.15,15,16.74,11.41,27.43-3.64,10.86-14.4,17.14-25.89,15.02-1.62-.3-2.87-.42-3.19,1.64-.2,1.31-.95,1.31-2.05.88-1.34-.53-2.77-.85-4.16-1.26.2-.67.8-.74,1.35-.87Z"/>
    <path class="cls-9" d="m454.79,378.28c0,6.34.19,12.01-.07,17.66-.15,3.21.74,5.39,3.37,7.36,4.06,3.04,7.8,6.51,12.18,10.23-5.22.29-9.91.66-14.59.77-2.12.05-3.08.71-3.67,2.83-1.72,6.12-3.74,12.16-5.81,18.77-2.68-5.38-5.3-10.29-7.57-15.35-.92-2.06-2.23-2.63-4.25-2.8-6.2-.51-12.44-.13-19.01-1.16,3.97-4.88,7.75-9.65,11.69-14.29,1.23-1.45,1.49-2.66.82-4.48-1.98-5.32-3.74-10.71-5.78-16.63,6.35,2.76,12.23,5.22,18.02,7.87,1.71.78,2.78.55,4.08-.74,3.28-3.26,6.71-6.38,10.59-10.05Z"/>
    <path class="cls-103" d="m460.95,452.98c-.24.23-.49.46-.73.69-11.48-9.12-22.97-18.23-34.45-27.35-3-2.39-5.99-4.79-9.38-7.51,4.32,0,8.19.31,11.99-.07,6.36-.63,9.87,2.15,11.76,8.04,3.17,9.87,10.29,16.83,17.95,23.34,1.02.87,1.91,1.9,2.86,2.86Z"/>
    <path class="cls-66" d="m456.8,382.56c2.29,7.51,4.57,15.03,6.86,22.54-.24.12-.47.24-.71.36-3.19-2.99-7.78-4.79-6.85-10.89.59-3.88.11-7.92.11-11.89.2-.04.4-.08.6-.12Z"/>
    <path class="cls-128" d="m669.29,635.97c1.44-1.89,3.12-3.66,4.25-5.72,1.12-2.03,2.28-2.34,4.11-1.18.61.38,1.32.6,1.93,1,2.05,1.33,5.83,2.61,5.48,4.38-.56,2.85-2.78,5.69-5.8,7.26-3.6-1.44-7.13-3-9.98-5.75Z"/>
    <path class="cls-3" d="m664.44,670.44c-10.87,3.71-21.49-1.73-25.82-13.23,1.05.81,2.09,1.62,3.14,2.44.41,1.48,1.8,2.24,2.55,3.48,1.1,1.81,2.07,1.22,2.94-.23.67.36,1.35.71,2.02,1.07-.2,1.33-1.2,2.73.76,3.74,2.02,1.04,3.85,1.62,5.5-.52.63.38,1.25.75,1.88,1.13-.1.78-.51,1.23-.94,1.24,1.09-.4,2.52.78,4.02.15,1.31.25,2.63.49,3.94.74Z"/>
    <path class="cls-105" d="m655.53,667.19c-.19,1.24-.52,2.68-2,2.53-2.25-.23-4.49-1.12-5.9-2.87-.52-.65.56-2.18,1.64-2.88,2.09,1.07,4.17,2.15,6.26,3.22Z"/>
    <path class="cls-104" d="m647.26,662.89c.44,1.17-.15,2.31-.95,2.69-.94.45-1.59-.81-2.08-1.5-.99-1.37-2.75-2.36-2.46-4.44,1.71,1.28,3.44,2.55,5.5,3.25Z"/>
    <path class="cls-94" d="m660.5,669.7c-1.28,1.39-2.89.23-4.49.75-.04-1.25.42-1.86,1.41-2.13,1.03.46,2.06.93,3.09,1.39Z"/>
    <path class="cls-9" d="m676.32,517.18c-.68-.34-1.36-.69-2.03-1.03-.31-.28-.83-.52-.89-.84-.15-.88.61-.57,1.01-.54,10.97.83,20-4.02,28.59-9.91,4.83-3.31,9.17-7.19,11.43-12.88.74-1.86,1.27-3.73,1.29-5.77,2.57,2.62,2.78,7.64.17,12.21-5.23,9.15-12.89,15.32-23.1,18.27-5.47,1.58-10.95,1.57-16.47.49Z"/>
    <path class="cls-44" d="m726.19,487.26c1.14-.83,2.29-1.67,3.64-2.65,1.05,2.88,1.96,5.6,3.02,8.25.54,1.35-.31,1.84-1.12,2.5-2.07,1.68-4.12,3.39-6.18,5.08-1,.45-1.68,1.11-1.83,2.29-1.08,8.48-6.59,13.31-13.86,16.66-.28-.33-.41-.72-.37-1.14.09-.95.22-1.97-.95-2.3-.99-.28-1.79.36-2.4,1.07-.66.76-.88,1.58-.05,2.46.36.38,1.05.78.49,1.51-.1-.01-.21-.02-.31-.03-1.58-.16-3.81.59-4.38-1.35-.63-2.18,1.21-3.71,2.97-4.61,2.2-1.12,4.57-1.96,6.95-2.66,7.01-2.06,10.5-8.61,8.3-15.6-.4-1.26-1.45-2.35-1.17-3.79.19-.96-.51-2.22,1.88-1.87,2.14.32,3.63-2.38,5.36-3.81Z"/>
    <path class="cls-9" d="m703.97,513.63c6.08-4.65,11.11-10.13,14.39-17.16,3.19,6.14-1.22,13.35-6.23,14.55-2.77.66-5.45,1.73-8.17,2.61Z"/>
    <path class="cls-142" d="m706.6,521c-2.63-2.05-2.65-4.09.03-5.51.85-.45,1.82-1.1,2.86-.25,1.03.84,1.29,1.77.58,2.96-.19.32-.13.79-.19,1.2-.84,1.04-2.26.9-3.27,1.6Z"/>
    <path class="cls-9" d="m694.17,517.81c2.89-1.27,5.7-2.51,8.47-3.73-2.12,5.71-4.48,6.82-8.47,3.73Z"/>
    <path class="cls-37" d="m713.7,482.33c-1.12-.79-2.24-1.58-3.36-2.36.13-.42.55-.46.84-.67,1.35.42,2.52,1.07,3.22,2.37-.23.22-.47.44-.7.66Z"/>
    <path class="cls-22" d="m758.19,546.82c.61-.09,1.21-.18,1.82-.27.29-.11.59-.18.9-.19,4.78-.17,4.85-.11,5,4.64.08,2.56.39,5.08,1.25,7.55,1.01-1.74.23-3.53.24-5.29.01-2.08-1.22-4.51,1.34-6.05,4.68,1.55,8.62,4.13,11.47,8.22-.12,1.31-1.28,1.13-2.09,1.43-.49.18-1.12.34-1.03.97.13.89.91.58,1.49.57,1.36-.02,2.91-.97,3.92.77.25,1.46,1.28,2.72,1.1,4.29-.93,1.11-2.24.77-3.43.91-1.17.13-2.48-.2-3.5,1.02.76,1.12,1.83.49,2.74.54,1.67.09,3.5-.67,4.88.92,0,1.13-.02,2.27-.02,3.4-.66,2-2.37,1.44-3.83,1.64-1.25.17-3.33-.53-3.24,1.67.1,2.43,2.09,1.57,3.54,1.47.71-.05,1.43-.11,2.14-.16-1.82,5.36-5.12,9.44-10.38,11.77-.56-3.57-1.13-7.14-1.66-10.71-.17-1.11-.35-1.97-1.87-1.74-1.57.25-1.32,1.14-1.2,2.25.42,3.98,1.7,7.87,1.37,11.93-1.8.3-3.6.59-5.41.89-1.97.39-1.97-1.13-2.02-2.29-.12-2.38-.63-4.71-.75-7.09-.05-.95.2-2.08-1.21-2.86-.38,2.41,0,4.6.22,6.82.19,1.98.96,4.11-.8,5.84-2.4.16-4.8.31-7.2.47-1.71-2.56-.98-5.58-1.57-8.35-.24-1.09.12-2.28-.69-3.77-1,1.59-.65,3.08-.63,4.48.03,1.65.5,3.26.52,4.93.03,1.99-.5,3.47-2.84,3.52-1.8.31-2.38-.32-2.55-2.26-1.06-12.49-2.2-24.98-3.54-37.45-.43-4,2.27-2.95,4.29-3.25,1.57,2.83.95,6.04,1.53,9.04.18.96-.26,2.08.83,3.02,1.02-2.75.3-5.37.09-8-.15-1.89-.75-4.11,2.13-4.67,1.19-.07,2.37-.15,3.56-.22,1.6-.08,2.4.53,2.48,2.29.14,3.19.51,6.36.81,9.54.1,1.05.18,2.09,1.74,1.96,1.5-.13,1.5-1.01,1.37-2.16-.46-3.99-.86-7.98-1.29-11.97Z"/>
    <path class="cls-9" d="m714.42,554.21c2.78-1.84,5.69-3.38,8.99-4.15,1.6-.37,2.07-.19,2.22,1.62,1.08,12.99,2.25,25.97,3.57,38.94.24,2.38-1.2,1.7-2.25,1.7-14.72-.07-24.74-16.36-18.57-30.14.34-.75.68-1.5,1.02-2.25.76-2.71,2.56-4.51,5.03-5.72Z"/>
    <path class="cls-120" d="m749.52,547.38c-1.38.39-1.54,1.39-1.43,2.64.28,3.09.48,6.19.7,9.28.08,1.17.19,2.31-1.6,2.3-1.67,0-1.42-1.19-1.49-2.15-.28-3.82-.51-7.64-.75-11.46,1.38-1.28,3.03-.59,4.58-.61Z"/>
    <path class="cls-120" d="m746.75,590.95c1.64-.39,2.26-1.28,2.02-3.07-.4-2.98-.51-5.99-.72-8.99-.07-1.03-.25-2.08,1.39-2.19,1.62-.1,1.61.91,1.69,1.97.28,3.83.55,7.66.83,11.49-.04.29-.08.57-.11.86-1.7-.02-3.4-.04-5.1-.06Z"/>
    <path class="cls-107" d="m714.42,554.21c-1.68,1.91-3.35,3.81-5.03,5.72-.23-.26-.46-.51-.68-.77,1.11-2.37,2.81-4.21,4.97-5.66.25.24.49.47.74.71Z"/>
    <path class="cls-9" d="m616.15,370.04c.63-.65,1.27-1.31,1.9-1.96,8.69-5.19,15.24-2.65,18.87,7.56,5.23-3.09,10.38-2.92,15.36.57.65.64,1.29,1.28,1.94,1.91,3.89,7.13,1.34,16.43-6.19,21.71-7.32,5.14-15.7,5.91-24.33,5.33-1.26-.08-2-.88-2.77-1.77-7.78-8.91-10.07-18.98-6.48-30.3.57-1.02,1.13-2.04,1.7-3.06Z"/>
    <path class="cls-103" d="m656.55,391.13c.04,7.63-3.32,13.5-9.92,17.29-6.54,3.76-13.75,5.1-21.25,5.23-2.16.04-2.54-.92-2.51-2.82.05-4.23-.03-4.19,4.04-4.17,4.59.02,9.12-.52,13.55-1.78,7.44-2.12,12.88-6.53,16.1-13.76Z"/>
    <path class="cls-103" d="m612.29,390.56c1.78,5.4,4.43,10.28,8.35,14.46,1.88,2,.72,4.51,1.08,7.72-5.67-6.04-9.15-12.16-10.03-19.63-.19-.94-.97-2.02.6-2.55Z"/>
    <path class="cls-91" d="m612.29,390.56c-.86.7-.42,1.7-.6,2.55-.98-2.11-.45-4.33-.09-6.58.23,1.34.46,2.69.68,4.03Z"/>
    <path class="cls-9" d="m748.6,468.38c-1.1,3.73-2.46,7.35-4.17,10.84-2.59,3.71-5.08,7.49-8.79,10.24-.3-.28-.32-.57-.05-.88,4.45-5,8.31-10.39,9.91-17,2.37-9.81.2-18.87-5.01-27.33-6.24-11.64-19.98-18.31-34.08-16.52-5.22.66-5.16.64-6.87-4.33-.59-1.72-.09-2.15,1.57-2.31,4.99-.48,9.96-.03,14.94.11,5.26,1.23,10.51,2.46,15.17,5.42,9.26,5.87,14.29,14.55,16.79,24.93.32,1.31.55,2.64.82,3.96.48,1.02-.15,2.2.47,3.19-.24,3.22-.47,6.45-.71,9.67Z"/>
    <path class="cls-44" d="m663.11,454.67c-1.74,2.41-3.7,1.78-5.51.21-1.92-1.67-1.77-4.49.18-6.36,1.35-1.29,3.07-1.66,4.86-1.87,5.75-.69,10.55-3.1,14.05-7.81,2.26-3.05,3.99-6.38,1.88-10.08-2.12-3.72-5.76-4.88-9.91-4.56-.92.07-1.89-.05-2.7.57-3.02-.12-5.51,2.13-8.54,1.94,1.45-1.5,3.55-1.85,5.21-2.97,4.17-1.41,8.41-1.31,12.68-.61,3.92,2.24,7.84,2.03,11.75,0,3.53-.45,6.7-2.43,10.32-2.5.28,2.2,1.39,4.11,2.24,6.09.73,1.7.15,2.2-1.42,2.49-4.1.73-8.19,1.5-12.26,2.35-1.59.33-2.25.15-1.99-1.73.14-1,.02-2.3-1.53-3.21.06,2.33,1.05,4.56-1.1,6.92,6.31-1.17,11.88-2.21,17.45-3.24.77-.14,1.94-.81,2.16.2.29,1.32-1.18,1.06-1.98,1.27-4.03,1.02-8.06,2.06-12.11,2.97-1.13.25-1.94.65-2.29,1.77-.92,2.94-2.86,5.27-4.61,7.7-3,2.34-6.14,4.37-9.94,5.25-2.04.47-3.35,2.24-5,3.4-.79-.52-.7-1.46-1.05-2.19-.49-1.02-1.33-1.66-2.48-1.44-.94.18-1.73.75-1.86,1.84-.14,1.14.26,2.03,1.28,2.62.72.41,1.65.33,2.27.96Z"/>
    <path class="cls-9" d="m744.98,464.85c.08,9.37-4.61,16.52-10.71,23.02-.43.45-1.16,1.39-1.67.33-.53-1.09-1.46-2.3-.12-3.67,1.88-1.93,3.67-3.95,5.32-6.08,3.13-4.03,5.85-8.3,6.7-13.48.11-.27.27-.32.49-.12Z"/>
    <path class="cls-45" d="m735.59,488.58c.02.29.04.59.05.88-.42.68-.89,1.3-1.87,1.38-.03-1.33,1.04-1.68,1.81-2.26Z"/>
    <path class="cls-96" d="m744.98,464.85c-.15.08-.31.12-.49.12-.11-.63-.11-1.24.55-1.59.09-.05.41.1.44.21.15.52.09,1.01-.49,1.27Z"/>
    <path class="cls-44" d="m648.81,446.89c-1.37-.13-2.43-.13-3.44-.35-3.71-.83-4.95-3.37-3.22-6.75,1.86-3.65,4.94-6.17,8.42-8.14,4.72-2.68,9.67-4.85,15.26-4.86,2.44,0,4.95.29,6.12,2.86,1.11,2.45-.26,4.52-1.74,6.26-5.67,6.69-13.11,10-21.4,10.99Z"/>
    <path class="cls-9" d="m668.81,426.07c3.18-1.76,5.53.08,7.65,2,2.34,2.12,2.23,4.91.85,7.43-3.72,6.77-9.58,10.06-17.33,9.97,3-2.09,6.38-3.61,9.02-6.23,1.55-1.54,2.95-3.16,3.85-5.16,1.85-4.11.45-6.86-4.04-8Z"/>
    <path class="cls-22" d="m325.42,454.95c.6-.64,1.2-1.27,1.79-1.91,3.38-2.29,6.99-4.04,11.11-4.54,1.3.11,1.08.82.81,1.74-.74,2.49-1.49,4.98-2.02,7.52-.24,1.17-1.93,2.82.5,3.58,2.81.87,1.99-1.8,2.43-2.9,1.3-3.23,1.38-6.87,3.3-9.91,1.86.45,3.72.91,5.57,1.36.4,3.57-1.88,6.44-2.54,9.73-.16.81-.43,1.62-.79,2.36-.66,1.35.27,1.52,1.18,1.9,1.1.46,1.45.01,1.76-.96,1.19-3.86,2.45-7.7,3.68-11.55,2.54.43,4.92,1.33,7.29,2.29-1.05,3.22-2.2,6.42-3.1,9.69-.32,1.17-2.36,2.84.35,3.69,2.68.84,1.99-1.77,2.5-2.88.99-2.14,1.52-4.48,2.38-6.69.39-.99.36-2.34,1.74-2.73,3.37.45,3.34,2.19,2.36,4.98-3.85,10.95-7.56,21.95-11.08,33.01-.93,2.92-2,4.24-5,2.69.15-3.79,2.23-7.01,3.15-10.58.28-1.07,1.5-2.29-.38-3.1-2.16-.92-2.11.99-2.51,2.08-1.23,3.39-2.34,6.82-3.5,10.24-2.05-.59-4.09-1.17-6.14-1.76-1.07-.87-.5-1.82-.17-2.8,1.01-3.03,1.98-6.07,2.97-9.11.34-1.04.64-2.01-.89-2.4-1.4-.36-1.78.41-2.12,1.53-.93,3.05-1.96,6.07-2.94,9.11-.32.99-.48,2.08-1.93,1.89-1.49-.64-2.98-1.27-4.47-1.91.72-3.89,2.46-7.45,3.61-11.21.32-1.04,1.12-2.04-.72-2.67-1.85-.64-1.81.68-2.18,1.66-1.27,3.39-2.51,6.79-3.76,10.18-3.87-2.79-6.15-6.67-7.6-11.12-.42-3,2.58-1.03,3.58-2.67-2.47-1.21-5.82-2.11-4.16-6.06.05-.35.1-.7.14-1.05.98-1.31,2.04-.24,3.03-.06,1.48.27,2.82,1.22,4.81.96-1.81-2.51-5.32-1.73-6.68-4.23.64-1.43,1.29-2.86,1.93-4.28,1.34-.39,2.35.65,3.55.8,1.19.16,2.55,2.2,3.6-.13,1.11-2.45-1.37-1.94-2.32-2.64-.64-.48-1.42-.78-2.14-1.16Z"/>
    <path class="cls-110" d="m749.31,458.71c-.61-1-.49-2.1-.47-3.19.88.96.42,2.11.47,3.19Z"/>
    <path class="cls-90" d="m768.74,547.2c-1.53,1.96-.38,4.13-.42,6.2-.03,1.64.28,3.29.42,4.94.1,1.13-.02,2.04-1.54,2.07-1.59.03-1.51-1.02-1.58-2.07-.17-2.27-.41-4.53-.54-6.8-.29-4.99-.27-4.99-5.06-4.99,2.44-1.08,4.99-.29,7.49-.47.42.37.83.75,1.25,1.12Z"/>
    <path class="cls-39" d="m782.51,559.16c-1.41-1-2.82.03-4.22.09-1.28.05-2.19.18-2.38-1.47-.19-1.7,1.03-1.48,1.98-1.68.79-.16,1.69.05,2.32-.68.55.21,1.1.42,1.65.62.22,1.04.43,2.08.65,3.12Z"/>
    <path class="cls-136" d="m319.5,466.74c-.58,2.88.54,4.4,3.53,4.69.97.09,2.32.14,1.76,2.05-.53,1.83-1.48,1.18-2.57.91-.96-.23-2.15-.69-2.15,1.08-.38-.63-.76-1.25-1.13-1.88.3-2.27-.65-4.65.56-6.85Z"/>
    <path class="cls-123" d="m784.3,566.83c-2.26-.45-4.49-.15-6.73.18-1.1.16-1.92.13-2.19-1.34-.31-1.68.81-1.7,1.77-1.79,2.15-.22,4.31-.29,6.46-.42,1.24.92.66,2.21.7,3.38Z"/>
    <path class="cls-86" d="m759.17,589.68c.79-3.84-.6-7.58-.54-11.39.02-1.16-.77-2.6,1.32-2.73,2.07-.13,1.63,1.55,1.76,2.61.36,3.08.57,6.18.81,9.27.07.86.11,1.68,1.22,1.82-.71.77-1.65.42-2.49.51-.69-.03-1.38-.05-2.07-.08Z"/>
    <path class="cls-127" d="m320.79,462.35c2.12.8,4.24,1.62,6.37,2.38.95.34,1.71.56,1.28,1.91-.44,1.38-1.11,1.39-2.33,1.01-2.15-.68-4.16-1.82-6.47-1.97-.02-.9-.04-1.81-.06-2.71.41-.21.81-.41,1.22-.62Z"/>
    <path class="cls-132" d="m428.28,620.61c-9.8,12.35-19.48,24.57-29.16,36.78-1.36,1.71-2.68,3.44-4.07,5.13-1.71,2.08-3.26,4-2.99,7.14.25,2.83-1.76,5.06-4.55,5.54-2.53.43-4.17,1.59-5.41,3.62-.82,1.34-1.69,1.71-2.87.43-.21-.22-.5-.36-.75-.55-3.7-2.74-3.72-2.75-.93-6.29.85-1.08,1.4-2.13,1.39-3.61,0-3.44,1.84-5.86,5.11-6.45,1.51-.27,2.38-.99,3.24-2.06,10.93-13.63,21.95-27.18,32.74-40.92,1.88-2.4,3.19-2.64,5.31-.76.84.75,1.87,1.29,2.94,2.01Z"/>
    <path class="cls-21" d="m404.01,691.65c.23-3.85.43-7.26.65-10.67.02-.38.25-1.08.31-1.07,3.39.42,1.46-2.56,2.73-3.99,3.24,2.32,6.57,4.69,9.76,6.98-2.68,5.55-8.03,6.85-13.46,8.76Z"/>
    <path class="cls-7" d="m414.12,663.86c5.51-2.1,10.35-3.94,15.6-5.94-.28,4.8-.54,9.22-.82,13.63-.06,1.01-.45,1.68-1.57.95-4.24-2.76-8.48-5.54-13.22-8.64Z"/>
    <path class="cls-1" d="m549.13,438c-6.04,0-10.54-4.2-10.58-9.88-.04-6.95,6.93-13.55,14.37-13.6,5.87-.04,10.57,4.37,10.6,9.95.03,6.99-6.92,13.53-14.39,13.53Z"/>
    <path class="cls-37" d="m671.14,497.95c-.21-.23-.43-.45-.64-.68,2.42-3.8,5.6-6.84,9.32-9.36.65-.24.78.09.71.64-3.48,2.78-6.66,5.87-9.39,9.4Z"/>
    <path class="cls-37" d="m694.9,480.99c-3.3,1.51-6.6,3.01-9.9,4.52-.71.31-.8-.07-.71-.64,3.01-2.01,6.21-3.62,9.74-4.53.62-.22.92-.01.87.65Z"/>
    <path class="cls-37" d="m711.18,479.3c-.28.22-.56.44-.84.67-3.09-1.05-6.27-.79-9.44-.67-.61.03-1.45.68-1.57-.59,1.27-.18,2.45-.85,3.78-.61,1.02.28,2.03.34,3.04-.04,1.67.41,3.35.83,5.02,1.24Z"/>
    <path class="cls-37" d="m684.3,484.87c.24.21.47.43.71.64-1.49,1.01-2.99,2.02-4.48,3.04l-.71-.64c1.29-1.31,2.83-2.26,4.48-3.04Z"/>
    <path class="cls-37" d="m699.33,478.7c.4.52.99.54,1.57.59-2,.57-3.99,1.13-5.99,1.7-.29-.22-.58-.43-.87-.65,1.63-.97,3.48-1.25,5.29-1.64Z"/>
    <path class="cls-130" d="m706.16,478.06c-1,.79-2.02.73-3.04.04,1.01-.01,2.03-.03,3.04-.04Z"/>
    <path class="cls-69" d="m679.28,508.02c-3.04.02-4.62-1.53-4.56-4.21.05-2.3,1.12-4.25,2.58-5.87,6.15-6.78,13.84-11.12,22.56-13.66,1.45-.42,3.11-.35,4.64-.19,2.57.27,3.27,1.64,2.37,4.14-.9,2.51-2.43,4.63-4.47,6.26-6,4.79-12.17,9.37-19.28,12.46-1.33.58-2.67,1.17-3.85,1.07Z"/>
    <path class="cls-31" d="m663.11,454.67c-2.43.49-4.11-.28-4.45-2.88-.26-2,.9-3.14,2.75-3.47,2.24-.4,3.41,1.17,3.55,4.55-.62.6-1.23,1.2-1.85,1.8Z"/>
    <path class="cls-109" d="m686.47,635.44c3.73,3.53,4.67,7.52,2.75,11.07-.62,1.13-1.26,1.53-2.37.72-.08-.06-.19-.07-.28-.12-1.77-1.07-3.93-2-4.82-3.77-1.16-2.3,1.9-3.11,2.65-4.85.48-1.1,1.37-2.03,2.08-3.04Z"/>
    <path class="cls-141" d="m438.05,652.08c-1.95-1.46-3.75-2.81-5.55-4.16,1.32-1.98,2.64-1.33,4.02-.32,1.51,1.1,3.27,2.05,1.52,4.47Z"/>
    <path class="cls-19" d="m580.55,683.94c.96-2.66,1.81-5.05,2.67-7.44.4.14.66.15.76.28q4.27,5.86-3.43,7.15Z"/>
    <path class="cls-61" d="m710.37,685.66c-.41.58-.8,1.07-1.12,1.6-.88,1.46-3.42,2.85-2.68,4.09,1,1.68,3.42,2.52,5.26,3.69,1.06.68,1.47-.29,1.97-.88.94-1.11,1.86-2.23,2.74-3.39.84-1.1,1.58-.45,2.41,0,1.3.71.41,1.37-.04,1.94-2.97,3.75-6,7.44-8.94,11.21-.94,1.21-1.72.71-2.62.1-1.13-.77-.33-1.38.14-2.03.12-.17.27-.32.4-.48,3.35-4.23,3.28-4.13-1.08-7.02-1.77-1.18-2.84-1.14-3.97.67-.71,1.14-1.68,2.11-2.51,3.18-.81,1.05-1.44.14-2.1-.19-.89-.44-.8-1.01-.22-1.72,3.09-3.78,6.14-7.59,9.24-11.36,1.34-1.63,2.07.12,3.12.59Z"/>
    <path class="cls-61" d="m732.26,659.69c-.98-.11-1.3.66-1.75,1.18-.94,1.11-1.88,2.22-2.74,3.39-.86,1.18-1.6.43-2.37-.04-1.01-.63-.34-1.2.1-1.76,2.86-3.56,5.77-7.09,8.56-10.7.98-1.27,1.85-.6,2.65-.04,1.19.84-.03,1.42-.44,1.97-3.08,4.13-3.03,4.02,1.33,6.57,1.8,1.05,2.94,1.02,4.06-.77.6-.96,1.49-1.74,2.11-2.69.8-1.22,1.57-.48,2.36-.09,1.21.59.62,1.26.08,1.93-2.87,3.56-5.76,7.09-8.57,10.69-.83,1.07-1.52,1.08-2.59.39-1.44-.92-.33-1.55.14-2.22,3.48-4.93,3.43-5.11-2.18-7.43-.28-.12-.55-.28-.77-.39Z"/>
    <path class="cls-61" d="m723.75,669.23c-.89,1.12-1.79,2.39-2.84,3.53-1.08,1.17-1.27,2.04.45,2.7.38.15.72.41,1.08.62q4.01,2.33,6.93-1.27c.33-.4.68-.79.96-1.23.84-1.28,1.62-.29,2.37.07,1.26.6.47,1.24-.03,1.86-2.92,3.65-5.88,7.27-8.73,10.97-.86,1.11-1.49.96-2.54.33-1.43-.87-.43-1.48.06-2.19.12-.17.26-.32.39-.48,3.18-4.11,3.13-4.03-1.3-6.72-1.76-1.07-2.91-1.12-4,.76-.57.97-1.51,1.72-2.13,2.68-.84,1.29-1.63.81-2.56.18-1.25-.84-.21-1.39.24-1.96,2.79-3.48,5.61-6.94,8.41-10.42.53-.66.98-1.44,2-.81.49.31,1.19.42,1.25,1.38Z"/>
    <path class="cls-61" d="m726.32,689.37c4.8-3.22,9.6-6.32,14.26-9.62,1.83-1.3,2.87.07,4.17.7,1.52.75.74,1.87.38,2.93-1.45,4.22-2.85,8.45-4.34,12.66-.25.7-.08,2.26-1.65,1.4-.92-.5-2.37-.84-1.68-2.44.52-1.21.6-2.26-.87-2.72-2.03-.63-3.38-3.67-5.96-2.09-1.86,1.14-3.02.78-4.31-.82Z"/>
    <path class="cls-61" d="m726.01,715.88c-1.74-1.01-3.78-1.47-2.37-3.96.33-.59.19-1.32-.51-1.57-2.51-.9-4.19-4.79-7.8-1.97-1.07.83-1.91-.74-3.31-1.34,5.28-3.52,10.18-6.78,15.07-10.07,1.72-1.16,2.64.5,3.85,1.04,1.43.63.69,1.66.36,2.62-1.74,4.98-3.46,9.97-5.29,15.25Z"/>
    <path class="cls-61" d="m739.99,672.25c4.94-3.33,9.83-6.64,14.72-9.93,1.65-1.11,2.65.53,3.9,1.01,1.27.49.73,1.5.43,2.38-1.46,4.32-2.9,8.64-4.43,12.94-.19.53.07,2.08-1.4,1.24-.9-.51-2.47-.66-1.92-2.3.4-1.18.77-2.26-.8-2.72-2.05-.6-3.57-3.48-5.99-2-1.82,1.11-2.98.83-4.52-.61Z"/>
    <path class="cls-61" d="m745.39,705.6c-2.25,2.67-4.53,5.35-6.78,8.05-.75.91-1.44,1.41-2.59.51-1.25-.98-.23-1.63.25-2.31,1.38-1.96,2.97-3.78,4.17-5.84,1.51-2.57,2.98-2.84,4.94-.41Z"/>
    <path class="cls-61" d="m773.34,670.08c-2.28,2.66-4.63,5.29-6.83,8.04-.82,1.03-1.49.84-2.34.26-1.12-.75-.34-1.39.13-2.04,1.4-1.94,2.94-3.79,4.16-5.83,1.44-2.42,2.9-2.61,4.89-.43Z"/>
    <path class="cls-61" d="m759.49,687.68c-2.31,2.73-4.69,5.46-6.98,8.28-.83,1.02-1.47.72-2.36.18-1.29-.78-.31-1.4.1-1.98,1.43-2.04,3.06-3.96,4.34-6.09,1.46-2.43,2.92-2.57,4.89-.38Z"/>
    <path class="cls-61" d="m745.54,700.24c.19-1.28,1.05-1.77,2.17-1.72,1.04.05,1.79.64,1.63,1.79-.15,1.08-1.01,1.58-1.99,1.56-.98-.01-1.8-.45-1.82-1.64Z"/>
    <path class="cls-61" d="m733.22,720.02c-1.03-.21-1.95-.56-1.91-1.71.05-1.26,1-1.75,2.13-1.74,1.1.01,1.69.68,1.61,1.81-.08,1.16-.95,1.45-1.83,1.64Z"/>
    <path class="cls-61" d="m763.46,682.03c-.23,1.35-.94,1.97-2.12,2-1.08.03-1.89-.53-1.85-1.59.04-1.02.91-1.55,1.93-1.61.98-.06,1.81.22,2.04,1.2Z"/>
    <path class="cls-9" d="m395.35,481.21c-.09,13.28-12.58,23.42-25.37,20.73-1.76-.37-2.18-.85-1.6-2.54,4.17-12.15,8.35-24.31,12.35-36.52.67-2.04,1.45-1.78,2.87-1.11,7.15,3.4,11.82,11.09,11.76,19.44Z"/>
    <path class="cls-103" d="m706.22,518.35c.13-1.28.93-1.71,2.05-1.65.13,0,.4.52.34.72-.4,1.22-1.26,1.39-2.39.93Z"/>
    <path class="cls-128" d="m391.31,664.42q-3.35-2.25-.88-5.33c10.28-12.79,20.58-25.56,30.8-38.4,1.02-1.28,1.67-1.69,3.18-.68,1.86,1.26.51,2.03-.19,2.92-5.47,6.92-10.96,13.83-16.45,20.75-5.49,6.91-10.97,13.82-16.46,20.73Z"/>
    <path class="cls-109" d="m385.4,673.96c-2.59-.06-5.01-2.48-5.03-5.03-.03-2.68,2.52-5.19,5.22-5.14,2.61.04,4.95,2.41,4.97,5.02.02,2.82-2.38,5.21-5.16,5.15Z"/>
    <path class="cls-81" d="m380.32,678.11c-.93-1.26-2.8-1.4-2.62-2.89.11-.91,1.09-2.59,2.07-2.17.95.4,2.62,1.19,2.46,2.67-.09.8-1.15,1.5-1.9,2.39Z"/>
    <path class="cls-135" d="m405.83,689.24c.15-2.36.28-4.29.45-6.84,2.05,1.51,3.71,2.73,5.77,4.25-2.2.92-3.94,1.64-6.22,2.59Z"/>
    <path class="cls-135" d="m408.79,678.81c1.7,1.2,3.29,2.28,4.82,3.44.39.3,1.39.5.8,1.27-.4.52-1.16,1.04-1.79,1.08-1.78.1-4.21-3.4-3.83-5.79Z"/>
    <path class="cls-73" d="m427.95,660.45c-.27,3.59-.49,6.48-.75,9.88-3.18-2.07-6.07-3.95-9.31-6.05,3.49-1.33,6.57-2.5,10.06-3.83Z"/>
    <path class="cls-114" d="m553.38,415.92c5.22.28,9.13,4.27,8.8,9-.44,6.36-7.03,12.13-13.51,11.82-5.14-.25-9.05-4.28-8.77-9.06.36-6.35,6.96-12.1,13.48-11.75Z"/>
    <path class="cls-44" d="m702.66,485.19c3.47.05,4.01.94,2.52,3.74-.83,1.57-1.83,3.05-3.2,4.18-6.19,5.06-12.59,9.83-20.05,12.92-1.7.7-3.65,1.63-5.19-.1-1.59-1.79-.59-3.7.39-5.45.97-1.74,2.27-3.23,3.8-4.49,5.15-4.26,10.82-7.65,17.12-9.93,1.58-.57,3.21-.82,4.61-.85Z"/>
    <path class="cls-103" d="m662.1,449.87c.88.07,1.49.71,1.46,1.75-.03.92-.69,1.44-1.62,1.49-1.11.07-1.85-.6-1.85-1.58,0-.93.64-1.7,2-1.66Z"/>
    <path class="cls-101" d="m733.85,687.99c2.49-1.86,4.56-3.5,7.25-4.76.11,2.7-1.27,4.7-1.91,6.89-.26.87-.98.47-1.52.15-1.15-.67-2.3-1.37-3.82-2.28Z"/>
    <path class="cls-139" d="m724.74,708.58c-1.62-1.02-3.1-1.95-4.96-3.11,2.51-1.71,4.82-3.28,7.79-5.29-.66,3.48-1.71,5.86-2.83,8.41Z"/>
    <path class="cls-79" d="m747.51,670.66c2.79-1.92,5.16-3.55,8.17-5.62-1.01,2.94-1.82,5.24-2.59,7.55-.31.92-.87.66-1.43.36-1.26-.68-2.51-1.38-4.15-2.28Z"/>
    <path class="cls-62" d="m548.99,429.17c-1.08-.1-3.76.96-4.45-.33-.78-1.43,1.55-3.03,2.57-4.51,3.44-4.97,3.52-4.96,6.72-.05.87,1.33,2.84,2.78,2.08,4.14-.69,1.24-3.03.58-4.64.73-.51.05-1.03,0-2.27,0Z"/>
    <path class="cls-112" d="m738.7,688.15c-.13.58-.42.83-.88.71-.13-.03-.29-.3-.28-.46.02-.46.32-.77.76-.79.14,0,.3.39.41.54Z"/>
    <path class="cls-113" d="m723.92,706.52c-.27-.09-.68-.13-.47-.53.17-.32.47-.6.77-.83.32-.24.54-.02.51.3-.05.5-.26.93-.81,1.06Z"/>
    <path class="cls-19" d="m546.07,427.94c1.68-2.33,2.82-4.42,4.66-6.13,1.06,2.02,3.78,3.98,3.03,5.52-.76,1.54-3.95.47-6.06.72-.38.04-.78-.04-1.62-.1Z"/>
  </g>
  <g>
    <g>
      <path class="cls-37" d="m457.82,571.42c-1.38,0-2.75-.04-4.12-.13-1.37-.08-2.79-.28-4.26-.6v-24.39c1.16-.22,2.43-.38,3.81-.49,1.38-.11,2.66-.16,3.85-.16,1.6,0,3.07.12,4.41.34,1.34.23,2.5.62,3.47,1.18.97.56,1.72,1.29,2.27,2.2.54.91.82,2.03.82,3.36,0,2.01-.97,3.59-2.9,4.75,1.6.6,2.69,1.43,3.27,2.47.58,1.04.87,2.21.87,3.52,0,2.64-.96,4.62-2.88,5.95-1.92,1.33-4.78,2-8.58,2Zm-2.87-15.6h2.76c1.74,0,2.99-.22,3.74-.67.75-.45,1.13-1.17,1.13-2.16s-.39-1.73-1.16-2.14c-.77-.41-1.91-.62-3.41-.62-.48,0-1,0-1.56.02-.56.01-1.05.04-1.49.09v5.48Zm0,4.32v6.5c.41.05.86.09,1.34.11.48.02,1.02.04,1.6.04,1.69,0,3.06-.24,4.1-.73,1.04-.48,1.56-1.38,1.56-2.69,0-1.16-.44-1.99-1.31-2.49-.87-.5-2.12-.74-3.74-.74h-3.56Z"/>
      <path class="cls-37" d="m481.19,545.66c3.77,0,6.66.67,8.67,2.01,2.01,1.34,3.01,3.43,3.01,6.26,0,1.77-.41,3.2-1.22,4.3-.81,1.1-1.98,1.97-3.5,2.59.51.63,1.04,1.35,1.6,2.16.56.81,1.11,1.66,1.65,2.54.54.88,1.07,1.8,1.58,2.76.51.96.98,1.89,1.42,2.81h-6.33c-.46-.82-.93-1.66-1.4-2.5-.47-.85-.96-1.67-1.46-2.47-.5-.8-.99-1.55-1.48-2.27-.49-.71-.97-1.36-1.46-1.94h-2.79v9.18h-5.66v-24.78c1.23-.24,2.51-.41,3.83-.51,1.32-.1,2.5-.15,3.54-.15Zm.33,4.83c-.41,0-.78.01-1.11.04-.33.02-.63.05-.93.07v6.82h1.6c2.13,0,3.65-.27,4.57-.8.92-.53,1.38-1.44,1.38-2.72s-.47-2.11-1.4-2.63c-.93-.52-2.3-.78-4.12-.78Z"/>
      <path class="cls-37" d="m498.03,571.1v-25.15h16.98v4.75h-11.32v4.93h10.05v4.64h-10.05v6.06h12.16v4.75h-17.82Z"/>
      <path class="cls-37" d="m536.89,571.1c-.28-.87-.58-1.77-.9-2.69-.32-.92-.64-1.84-.96-2.75h-9.82c-.32.92-.64,1.84-.95,2.76-.32.92-.62,1.82-.89,2.68h-5.88c.95-2.71,1.84-5.21,2.69-7.51.85-2.3,1.68-4.46,2.49-6.5.81-2.03,1.61-3.96,2.4-5.79.79-1.83,1.61-3.61,2.46-5.35h5.37c.83,1.74,1.64,3.53,2.44,5.35.8,1.83,1.61,3.76,2.42,5.79.81,2.03,1.65,4.2,2.5,6.5.85,2.3,1.75,4.8,2.7,7.51h-6.06Zm-6.8-19.45c-.13.37-.31.86-.55,1.49-.24.63-.52,1.36-.83,2.18s-.66,1.73-1.04,2.72c-.38.99-.77,2.03-1.17,3.12h7.19c-.38-1.09-.76-2.13-1.12-3.13-.36-.99-.7-1.9-1.03-2.73-.32-.82-.61-1.55-.85-2.18-.24-.63-.44-1.12-.59-1.48Z"/>
      <path class="cls-37" d="m561.01,571.1c-.51-.82-1.11-1.7-1.8-2.65-.69-.95-1.44-1.91-2.24-2.87-.8-.97-1.63-1.89-2.51-2.78-.87-.89-1.75-1.67-2.62-2.35v10.65h-5.66v-25.15h5.66v9.45c1.46-1.53,2.93-3.13,4.44-4.8,1.5-1.67,2.89-3.22,4.16-4.65h6.72c-1.71,2.04-3.43,4-5.17,5.88-1.73,1.88-3.55,3.77-5.47,5.68,2.01,1.68,3.95,3.67,5.82,5.97,1.87,2.3,3.67,4.84,5.39,7.62h-6.73Z"/>
      <path class="cls-37" d="m571,571.1v-25.15h16.84v4.75h-11.18v5.26h9.94v4.75h-9.94v10.38h-5.66Z"/>
      <path class="cls-37" d="m606.96,571.1c-.28-.87-.58-1.77-.9-2.69-.32-.92-.64-1.84-.96-2.75h-9.82c-.32.92-.64,1.84-.95,2.76-.32.92-.62,1.82-.89,2.68h-5.88c.95-2.71,1.84-5.21,2.69-7.51.85-2.3,1.68-4.46,2.49-6.5.81-2.03,1.61-3.96,2.4-5.79.79-1.83,1.61-3.61,2.46-5.35h5.37c.83,1.74,1.64,3.53,2.44,5.35.8,1.83,1.61,3.76,2.42,5.79.81,2.03,1.65,4.2,2.5,6.5.85,2.3,1.75,4.8,2.7,7.51h-6.06Zm-6.8-19.45c-.13.37-.31.86-.55,1.49-.24.63-.52,1.36-.83,2.18-.31.82-.66,1.73-1.04,2.72-.38.99-.77,2.03-1.17,3.12h7.19c-.38-1.09-.76-2.13-1.12-3.13-.36-.99-.7-1.9-1.03-2.73-.32-.82-.61-1.55-.85-2.18-.24-.63-.44-1.12-.59-1.48Z"/>
      <path class="cls-37" d="m623.8,566.78c.8,0,1.46-.07,1.98-.2.52-.13.94-.31,1.25-.54.31-.23.53-.5.65-.82.12-.31.18-.67.18-1.05,0-.82-.39-1.51-1.16-2.05-.77-.54-2.1-1.13-3.99-1.76-.82-.29-1.65-.62-2.47-1-.82-.37-1.56-.85-2.21-1.42-.65-.57-1.19-1.26-1.6-2.07-.41-.81-.62-1.8-.62-2.96s.22-2.21.65-3.14c.44-.93,1.05-1.72,1.85-2.38s1.77-1.16,2.9-1.51c1.14-.35,2.42-.53,3.85-.53,1.69,0,3.16.18,4.39.54,1.23.36,2.25.76,3.05,1.2l-1.63,4.46c-.7-.36-1.48-.68-2.34-.96-.86-.28-1.89-.42-3.1-.42-1.35,0-2.33.19-2.92.56-.59.38-.89.95-.89,1.72,0,.46.11.85.33,1.16.22.31.53.6.92.85.4.25.86.48,1.38.69.52.21,1.09.42,1.72.63,1.31.48,2.44.96,3.41,1.43.97.47,1.77,1.02,2.41,1.65.64.63,1.12,1.37,1.43,2.21.31.85.47,1.88.47,3.08,0,2.35-.82,4.17-2.47,5.46-1.65,1.29-4.13,1.94-7.44,1.94-1.11,0-2.12-.07-3.01-.2-.9-.13-1.69-.3-2.38-.49s-1.28-.4-1.78-.62c-.5-.22-.91-.42-1.25-.62l1.6-4.5c.75.41,1.67.78,2.78,1.11,1.1.33,2.45.49,4.05.49Z"/>
      <path class="cls-37" d="m655.99,545.95v4.83h-7.58v20.32h-5.66v-20.32h-7.58v-4.83h20.83Z"/>
    </g>
    <g>
      <path class="cls-9" d="m453.85,569c-1.38,0-2.75-.04-4.12-.13-1.37-.08-2.79-.28-4.26-.6v-24.39c1.16-.22,2.43-.38,3.81-.49,1.38-.11,2.66-.16,3.85-.16,1.6,0,3.07.12,4.41.34,1.34.23,2.5.62,3.47,1.18.97.56,1.72,1.29,2.27,2.2.54.91.82,2.03.82,3.36,0,2.01-.97,3.59-2.9,4.75,1.6.6,2.69,1.43,3.27,2.47.58,1.04.87,2.21.87,3.52,0,2.64-.96,4.62-2.88,5.95-1.92,1.33-4.78,2-8.58,2Zm-2.87-15.6h2.76c1.74,0,2.99-.22,3.74-.67.75-.45,1.13-1.17,1.13-2.16s-.39-1.73-1.16-2.14c-.77-.41-1.91-.62-3.41-.62-.48,0-1,0-1.56.02-.56.01-1.05.04-1.49.09v5.48Zm0,4.32v6.5c.41.05.86.09,1.34.11.48.02,1.02.04,1.6.04,1.69,0,3.06-.24,4.1-.73,1.04-.48,1.56-1.38,1.56-2.69,0-1.16-.44-1.99-1.31-2.49-.87-.5-2.12-.74-3.74-.74h-3.56Z"/>
      <path class="cls-9" d="m477.22,543.23c3.77,0,6.66.67,8.67,2.01,2.01,1.34,3.01,3.43,3.01,6.26,0,1.77-.41,3.2-1.22,4.3-.81,1.1-1.98,1.97-3.5,2.59.51.63,1.04,1.35,1.6,2.16.56.81,1.11,1.66,1.65,2.54.54.88,1.07,1.8,1.58,2.76.51.96.98,1.89,1.42,2.81h-6.33c-.46-.82-.93-1.66-1.4-2.5-.47-.85-.96-1.67-1.46-2.47-.5-.8-.99-1.55-1.48-2.27-.49-.71-.97-1.36-1.46-1.94h-2.79v9.18h-5.66v-24.78c1.23-.24,2.51-.41,3.83-.51,1.32-.1,2.5-.15,3.54-.15Zm.33,4.83c-.41,0-.78.01-1.11.04-.33.02-.63.05-.93.07v6.82h1.6c2.13,0,3.65-.27,4.57-.8.92-.53,1.38-1.44,1.38-2.72s-.47-2.11-1.4-2.63c-.93-.52-2.3-.78-4.12-.78Z"/>
      <path class="cls-9" d="m494.06,568.67v-25.15h16.98v4.75h-11.32v4.93h10.05v4.64h-10.05v6.06h12.16v4.75h-17.82Z"/>
      <path class="cls-9" d="m532.92,568.67c-.28-.87-.58-1.77-.9-2.69-.32-.92-.64-1.84-.96-2.75h-9.82c-.32.92-.64,1.84-.95,2.76-.32.92-.62,1.82-.89,2.68h-5.88c.95-2.71,1.84-5.21,2.69-7.51.85-2.3,1.68-4.46,2.49-6.5.81-2.03,1.61-3.96,2.4-5.79.79-1.83,1.61-3.61,2.46-5.35h5.37c.83,1.74,1.64,3.53,2.44,5.35.8,1.83,1.61,3.76,2.42,5.79.81,2.03,1.65,4.2,2.5,6.5.85,2.3,1.75,4.8,2.7,7.51h-6.06Zm-6.8-19.45c-.13.37-.31.86-.55,1.49-.24.63-.52,1.36-.83,2.18-.31.82-.66,1.73-1.04,2.72-.38.99-.77,2.03-1.17,3.12h7.19c-.38-1.09-.76-2.13-1.12-3.13s-.7-1.9-1.03-2.73c-.32-.82-.61-1.55-.85-2.18-.24-.63-.44-1.12-.59-1.48Z"/>
      <path class="cls-9" d="m557.04,568.67c-.51-.82-1.11-1.7-1.8-2.65-.69-.95-1.44-1.91-2.24-2.87-.8-.97-1.63-1.89-2.51-2.78-.87-.89-1.75-1.67-2.62-2.35v10.65h-5.66v-25.15h5.66v9.45c1.46-1.53,2.93-3.13,4.44-4.8,1.5-1.67,2.89-3.22,4.16-4.65h6.72c-1.71,2.04-3.43,4-5.17,5.88-1.73,1.88-3.55,3.77-5.47,5.68,2.01,1.68,3.95,3.67,5.82,5.97,1.87,2.3,3.67,4.84,5.39,7.62h-6.73Z"/>
      <path class="cls-9" d="m567.03,568.67v-25.15h16.84v4.75h-11.18v5.26h9.94v4.75h-9.94v10.38h-5.66Z"/>
      <path class="cls-9" d="m602.99,568.67c-.28-.87-.58-1.77-.9-2.69-.32-.92-.64-1.84-.96-2.75h-9.82c-.32.92-.64,1.84-.95,2.76-.32.92-.62,1.82-.89,2.68h-5.88c.95-2.71,1.84-5.21,2.69-7.51.85-2.3,1.68-4.46,2.49-6.5.81-2.03,1.61-3.96,2.4-5.79.79-1.83,1.61-3.61,2.46-5.35h5.37c.83,1.74,1.64,3.53,2.44,5.35.8,1.83,1.61,3.76,2.42,5.79.81,2.03,1.65,4.2,2.5,6.5.85,2.3,1.75,4.8,2.7,7.51h-6.06Zm-6.8-19.45c-.13.37-.31.86-.55,1.49-.24.63-.52,1.36-.83,2.18s-.66,1.73-1.04,2.72c-.38.99-.77,2.03-1.17,3.12h7.19c-.38-1.09-.76-2.13-1.12-3.13-.36-.99-.7-1.9-1.03-2.73-.32-.82-.61-1.55-.85-2.18-.24-.63-.44-1.12-.59-1.48Z"/>
      <path class="cls-9" d="m619.83,564.35c.8,0,1.46-.07,1.98-.2.52-.13.94-.31,1.25-.54.31-.23.53-.5.65-.82.12-.31.18-.67.18-1.05,0-.82-.39-1.51-1.16-2.05s-2.1-1.13-3.99-1.76c-.82-.29-1.65-.62-2.47-1-.82-.37-1.56-.85-2.21-1.42-.65-.57-1.19-1.26-1.6-2.07-.41-.81-.62-1.8-.62-2.96s.22-2.21.65-3.14c.44-.93,1.05-1.72,1.85-2.38.8-.65,1.77-1.16,2.9-1.51,1.14-.35,2.42-.53,3.85-.53,1.69,0,3.16.18,4.39.54,1.23.36,2.25.76,3.05,1.2l-1.63,4.46c-.7-.36-1.48-.68-2.34-.96-.86-.28-1.89-.42-3.1-.42-1.35,0-2.33.19-2.92.56-.59.38-.89.95-.89,1.72,0,.46.11.85.33,1.16.22.31.53.6.92.85.4.25.86.48,1.38.69.52.21,1.09.42,1.72.63,1.31.48,2.44.96,3.41,1.43.97.47,1.77,1.02,2.41,1.65.64.63,1.12,1.37,1.43,2.21.31.85.47,1.88.47,3.08,0,2.35-.82,4.17-2.47,5.46-1.65,1.29-4.13,1.94-7.44,1.94-1.11,0-2.12-.07-3.01-.2-.9-.13-1.69-.3-2.38-.49s-1.28-.4-1.78-.62c-.5-.22-.91-.42-1.25-.62l1.6-4.5c.75.41,1.67.78,2.78,1.11,1.1.33,2.45.49,4.05.49Z"/>
      <path class="cls-9" d="m652.02,543.52v4.83h-7.58v20.32h-5.66v-20.32h-7.58v-4.83h20.83Z"/>
    </g>
  </g>
  <g>
    <g>
      <path class="cls-37" d="m507.2,530.61v-18.51h-6.67v-5.07h18.6v5.07h-6.64v18.51h-5.3Z"/>
      <path class="cls-37" d="m548.07,530.61h-5.27v-23.58h5.27v9.22h9.19v-9.22h5.3v23.58h-5.3v-9.29h-9.19v9.29Z"/>
      <path class="cls-37" d="m604.71,530.61h-16.43v-23.58h16.46v4.91h-11.17v4.37h10.34v4.88h-10.34v4.5h11.14v4.91Z"/>
    </g>
    <g>
      <path class="cls-61" d="m503.38,528.05v-18.51h-6.67v-5.07h18.6v5.07h-6.64v18.51h-5.3Z"/>
      <path class="cls-61" d="m544.26,528.05h-5.27v-23.58h5.27v9.22h9.19v-9.22h5.3v23.58h-5.3v-9.29h-9.19v9.29Z"/>
      <path class="cls-61" d="m600.89,528.05h-16.43v-23.58h16.46v4.91h-11.17v4.37h10.34v4.88h-10.34v4.5h11.14v4.91Z"/>
    </g>
  </g>
  <g>
    <g>
      <path class="cls-37" d="m482.83,611.51c-1.87,0-3.61-.37-5.22-1.1-1.61-.73-2.95-1.79-4.04-3.18l2.87-3.77c1.77,2.09,3.9,3.13,6.41,3.13.91,0,1.66-.2,2.23-.59.57-.39.86-.91.86-1.55,0-.87-.68-1.61-2.04-2.2l-2.11-.77c-1.3-.49-2.31-.93-3.03-1.31-2.53-1.38-3.8-3.37-3.8-5.97,0-2.04.78-3.73,2.33-5.07,1.55-1.34,3.57-2.01,6.06-2.01,3.13,0,5.8,1.04,8.01,3.13l-2.62,3.92c-.68-.64-1.52-1.15-2.5-1.53-.99-.38-1.93-.57-2.82-.57s-1.56.18-2.06.53c-.5.35-.75.82-.75,1.42,0,.81.64,1.5,1.91,2.07l2.3.93c1.43.55,2.33.93,2.71,1.12,2.83,1.28,4.24,3.28,4.24,6,0,2.17-.83,3.94-2.49,5.3-1.64,1.38-3.8,2.07-6.48,2.07Z"/>
      <path class="cls-37" d="m518.18,611.1h-5.26v-23.58h5.26v9.22h9.19v-9.22h5.3v23.58h-5.3v-9.29h-9.19v9.29Z"/>
      <path class="cls-37" d="m553.89,599.36c0-3.43,1.18-6.32,3.54-8.68,2.38-2.38,5.31-3.57,8.77-3.57s6.38,1.19,8.74,3.57c2.38,2.36,3.57,5.24,3.57,8.65s-1.18,6.29-3.54,8.65c-2.38,2.34-5.32,3.51-8.81,3.51s-6.44-1.17-8.77-3.51c-2.34-2.34-3.51-5.21-3.51-8.62Zm12.32,6.92c1.94,0,3.56-.66,4.88-1.98,1.32-1.36,1.97-3.02,1.95-4.98-.04-2.04-.71-3.71-2.01-5.01-1.32-1.34-2.92-2.01-4.82-2.01s-3.55.67-4.85,2.01c-1.32,1.36-1.98,3.03-1.98,5.01s.66,3.62,1.98,4.98c1.32,1.32,2.94,1.98,4.85,1.98Z"/>
      <path class="cls-37" d="m609.22,611.1h-4.75l-7.72-23.58h5.81l4.4,15.35,5.07-15.35h3.54l5.14,15.35,4.34-15.35h5.81l-7.69,23.58h-4.75l-4.6-14.68-4.59,14.68Z"/>
    </g>
    <g>
      <path class="cls-61" d="m479.86,608.32c-1.87,0-3.61-.37-5.22-1.1-1.61-.73-2.95-1.79-4.04-3.18l2.87-3.77c1.77,2.09,3.9,3.13,6.41,3.13.91,0,1.66-.2,2.23-.59.57-.39.86-.91.86-1.55,0-.87-.68-1.61-2.04-2.2l-2.11-.77c-1.3-.49-2.31-.93-3.03-1.31-2.53-1.38-3.8-3.37-3.8-5.97,0-2.04.78-3.73,2.33-5.07,1.55-1.34,3.57-2.01,6.06-2.01,3.13,0,5.8,1.04,8.01,3.13l-2.62,3.92c-.68-.64-1.52-1.15-2.5-1.53-.99-.38-1.93-.57-2.82-.57s-1.56.18-2.06.53c-.5.35-.75.82-.75,1.42,0,.81.64,1.5,1.91,2.07l2.3.93c1.43.55,2.33.93,2.71,1.12,2.83,1.28,4.24,3.28,4.24,6,0,2.17-.83,3.94-2.49,5.3-1.64,1.38-3.8,2.07-6.48,2.07Z"/>
      <path class="cls-61" d="m515.22,607.9h-5.26v-23.58h5.26v9.22h9.19v-9.22h5.3v23.58h-5.3v-9.29h-9.19v9.29Z"/>
      <path class="cls-61" d="m550.92,596.16c0-3.43,1.18-6.32,3.54-8.68,2.38-2.38,5.31-3.57,8.77-3.57s6.38,1.19,8.74,3.57c2.38,2.36,3.57,5.24,3.57,8.65s-1.18,6.29-3.54,8.65c-2.38,2.34-5.32,3.51-8.81,3.51s-6.44-1.17-8.77-3.51c-2.34-2.34-3.51-5.21-3.51-8.62Zm12.32,6.92c1.94,0,3.56-.66,4.88-1.98,1.32-1.36,1.97-3.02,1.95-4.98-.04-2.04-.71-3.71-2.01-5.01-1.32-1.34-2.92-2.01-4.82-2.01s-3.55.67-4.85,2.01c-1.32,1.36-1.98,3.03-1.98,5.01s.66,3.62,1.98,4.98c1.32,1.32,2.94,1.98,4.85,1.98Z"/>
      <path class="cls-61" d="m606.25,607.9h-4.75l-7.72-23.58h5.81l4.4,15.35,5.07-15.35h3.54l5.14,15.35,4.34-15.35h5.81l-7.69,23.58h-4.75l-4.6-14.68-4.59,14.68Z"/>
    </g>
  </g>
</svg>