<?xml version="1.0" encoding="UTF-8"?>
<svg id="EL_PARCHE" data-name="EL PARCHE" xmlns="http://www.w3.org/2000/svg" viewBox="0 0 1080 1080">
  <defs>
    <style>
      .cls-1 {
        fill: #1ce783;
      }

      .cls-1, .cls-2 {
        stroke-width: 0px;
      }

      .cls-3 {
        fill: #fff;
        font-family: Ubuntu-Bold, Ubuntu;
        font-size: 74.92px;
        font-weight: 700;
        stroke-width: 1.5px;
      }

      .cls-3, .cls-4 {
        stroke: #fff;
        stroke-miterlimit: 10;
      }

      .cls-4 {
        fill: none;
        stroke-width: 1px;
      }

      .cls-5 {
        opacity: .5;
      }

      .cls-6 {
        opacity: .6;
      }

      .cls-2 {
        fill: #989898;
      }

      .cls-7 {
        letter-spacing: .05em;
      }

      .cls-8 {
        letter-spacing: .05em;
      }

      .cls-9 {
        letter-spacing: -.02em;
      }

      .cls-10 {
        letter-spacing: .03em;
      }
    </style>
  </defs>
  <text class="cls-3" transform="translate(323.85 601.26)"><tspan class="cls-7" x="0" y="0">EL </tspan><tspan class="cls-9" x="116.79" y="0">P</tspan><tspan class="cls-7" x="163.69" y="0">A</tspan><tspan class="cls-10" x="221.46" y="0">R</tspan><tspan class="cls-8" x="273.82" y="0">CHE</tspan></text>
  <g>
    <path class="cls-4" d="m329.84,635.56c0-17.31,0-34.61,0-51.92,11.69-.24,23.37-.43,35.06-.57,0,2.6,0,3.95,0,6.77-9.35.71-14.02,1.14-23.37,2.17,0,3.61,0,5.43,0,9.12,8.3-1.57,12.45-2.23,20.75-3.34,0,3.02,0,4.53,0,9.14-8.3,1.18-12.45,1.89-20.75,3.58,0,5.46,0,8.22,0,13.8,10.04-1.09,15.06-1.54,25.1-2.27,0,5.08,0,7.67,0,12.98-12.26.14-24.52.32-36.79.54Z"/>
    <path class="cls-4" d="m413.67,619.61c0,5.75,0,8.77,0,15.07-11.56.05-23.12.13-34.69.22,0-17.33,0-34.66,0-51.98,4.67-.05,7.01-.07,11.69-.1,0,12.51,0,25.02,0,37.53,9.2-.41,13.8-.55,23-.73Z"/>
    <path class="cls-4" d="m462.22,582.37c7.74,0,13.69.53,17.83,2.2,4.14,1.67,6.22,4.65,6.22,9.79,0,5.19-2.1,9.66-6.29,12.27s-10.19,3.77-17.98,3.44c-1.47-.06-2.2-.09-3.67-.15,0,8.63,0,13.56,0,24.69-4.67,0-7.01,0-11.69,0,0-17.23,0-34.47,0-51.71,2.55-.21,5.24-.34,8.09-.42,2.85-.08,5.34-.11,7.49-.11Zm.75,4.99c-.85-.02-1.69-.01-2.51,0-.82.02-1.54.04-2.13.06,0,3.6,0,5.87,0,11.33,1.47.1,2.2.15,3.67.26,4.05.3,7.09,0,9.14-.83,2.05-.83,3.07-2.63,3.07-5.04,0-1.16-.26-2.08-.79-2.81-.52-.73-1.27-1.31-2.25-1.76-.97-.45-2.16-.73-3.56-.9-1.4-.17-2.95-.27-4.65-.3Z"/>
    <path class="cls-4" d="m528.36,635.39c-.58-2.01-1.2-4.08-1.86-6.21-.67-2.13-1.33-4.25-1.99-6.36-8.11-.75-12.17-1.12-20.28-1.84-.66,2.19-1.31,4.47-1.97,6.84-.66,2.37-1.27,4.78-1.84,7.19-4.85-.06-7.28-.1-12.14-.16,1.95-8.08,3.81-14.52,5.56-19.91,1.75-5.38,3.47-9.91,5.15-13.68,1.68-3.77,3.33-7.01,4.96-9.93,1.63-2.91,3.32-5.59,5.07-8.17,4.43.07,6.65.1,11.08.17,1.71,2.97,3.39,6.31,5.04,9.92,1.66,3.62,3.32,7.64,5,11.99,1.68,4.35,3.4,9.17,5.16,14.21,1.76,5.04,3.61,10.51,5.57,16.12-5.01-.07-7.51-.11-12.52-.18Zm-14.04-42.52c-.26.63-.64,1.49-1.14,2.59-.5,1.1-1.07,2.39-1.71,3.89-.64,1.5-1.36,3.18-2.15,5.07-.79,1.9-1.6,4.04-2.42,6.35,5.94.72,8.91,1.09,14.85,1.84-.79-2.45-1.56-4.78-2.31-6.89-.74-2.11-1.45-4.01-2.12-5.69-.67-1.68-1.26-3.12-1.76-4.34-.51-1.22-.91-2.15-1.22-2.82Z"/>
    <path class="cls-4" d="m566.5,583.31c7.79.08,13.76,1.96,17.91,5.81,4.14,3.85,6.22,9.83,6.22,16.64,0,4.24-.84,7.29-2.51,9.41-1.67,2.13-4.08,3.46-7.23,4.28,1.05,1.32,2.15,2.79,3.3,4.34,1.15,1.55,2.28,3.1,3.41,4.59,1.12,1.5,2.21,2.94,3.26,4.3,1.05,1.36,2.02,2.56,2.92,3.61-5.23-.07-7.84-.1-13.06-.17-.95-1.12-1.92-2.35-2.9-3.69-.98-1.34-1.98-2.73-3.01-4.16-1.03-1.43-2.04-2.85-3.05-4.25-1-1.4-2.01-2.72-3.01-3.95-2.31-.28-3.46-.42-5.77-.7,0,7.11,0,10.41,0,16.5-4.68-.06-7.01-.1-11.69-.16,0-17.03,0-34.06,0-51.09,2.55-.49,5.18-.85,7.9-1.05,2.72-.2,5.16-.3,7.3-.28Zm.67,11.92c-.85-.07-1.61-.1-2.29-.1-.67,0-1.31,0-1.91.01,0,6.35,0,9.39,0,15.17,1.32.17,1.98.26,3.3.43,4.39.57,7.54.4,9.44-.53,1.9-.93,2.85-2.82,2.85-5.81,0-2.88-.96-5.13-2.88-6.57-1.92-1.44-4.76-2.3-8.5-2.6Z"/>
    <path class="cls-4" d="m627.34,636.93c-8.44,0-14.87-.59-19.29-3.46-4.42-2.87-6.63-7.7-6.63-16.26,0-4.26.67-8.64,2.02-12.7,1.35-4.05,3.2-7.79,5.54-11.02,2.35-3.23,5.14-5.97,8.39-7.86,3.25-1.89,6.77-2.87,10.56-2.87,2.2,0,4.2.26,5.99.79,1.8.52,3.37,1.13,4.72,1.8,1.35.68,2.47,1.37,3.37,2.07.9.71,1.55,1.25,1.95,1.63-1.35,5.86-2.02,8.64-3.37,13.86-1.6-1.19-3.46-2.22-5.58-3.08-2.12-.87-4.53-1.32-7.23-1.35-1.8-.02-3.56.38-5.28,1.19-1.72.8-3.25,2.1-4.57,3.8-1.32,1.7-2.39,3.85-3.18,6.31-.8,2.46-1.2,5.31-1.2,8.36,0,2.44.26,4.43.79,6.19.52,1.77,1.37,3.16,2.55,4.26,1.17,1.1,2.71,1.91,4.61,2.49,1.9.58,4.2.86,6.89.89,1.7.02,3.22-.02,4.57-.13,1.35-.1,2.55-.23,3.6-.38,1.05-.15,1.97-.33,2.77-.53.8-.2,1.52-.4,2.17-.58,1.29,2.3,1.93,3.28,3.22,4.95-1.65.45-3.97.83-6.97,1.15-3,.32-6.47.46-10.41.46Z"/>
    <path class="cls-4" d="m687.27,584.52c4.67-.03,7.01-.05,11.69-.1,0,17.28,0,34.57,0,51.85-4.67.04-7.01.06-11.69.09,0-4.36,0-7.05,0-13.42-7.85.47-11.78.61-19.63.74,0,6.42,0,8.98,0,12.78-4.67.02-7.01.03-11.69.04,0-17.28,0-34.55,0-51.83,4.68-.01,7.01-.02,11.69-.04,0,9.48,0,18.96,0,28.44,7.85-.15,11.78-.29,19.63-.75,0-10.3,0-15.86,0-27.8Z"/>
    <path class="cls-4" d="m714.69,636.12c0-17.29,0-34.58,0-51.87,11.69-.14,23.38-.33,35.06-.56v10.05c-9.35,1.17-14.02,1.67-23.37,2.51v12.21c8.3-1.26,12.45-2.01,20.75-3.76v9.68c-8.3,1.89-12.45,2.7-20.75,4.05v10.08c10.04-.89,15.06-1.43,25.1-2.7v9.76c-12.26.23-24.52.41-36.79.54Z"/>
  </g>
  <g>
    <path class="cls-4" d="m329.84,566.97c0-17.31,0-34.61,0-51.92,11.69.24,23.37.43,35.06.57,0,5.25,0,7.82,0,12.86-9.35-.71-14.02-1.14-23.37-2.17,0,4.55,0,6.8,0,11.26,8.3,1.57,12.45,2.23,20.75,3.34,0,4.65,0,6.98,0,10.04-8.3-1.18-12.45-1.89-20.75-3.58,0,4.55,0,6.79,0,11.22,10.04,1.09,15.06,1.54,25.1,2.27,0,2.78,0,4.11,0,6.65-12.26-.14-24.52-.32-36.79-.54Z"/>
    <path class="cls-4" d="m413.67,562.84c0,2.28,0,3.28,0,5.01-11.56-.05-23.12-.13-34.69-.22,0-17.28,0-34.57,0-51.85,4.67.05,7.01.07,11.69.1,0,15.41,0,30.82,0,46.23,9.2.41,13.8.55,23,.73Z"/>
    <path class="cls-4" d="m462.22,515.12c7.74,0,13.69,2.19,17.83,5.96,4.14,3.77,6.22,9.71,6.22,16.96,0,7.3-2.1,11.84-6.29,14.78-4.2,2.94-10.19,4.55-17.98,4.88-1.47.06-2.2.09-3.67.15,0,5.28,0,7.29,0,10.07-4.67,0-7.01,0-11.69,0,0-16.88,0-33.76,0-50.63,2.55-.79,5.24-1.36,8.09-1.68,2.85-.32,5.34-.49,7.49-.49Zm.75,14.93c-.85.02-1.69.06-2.51.15-.82.08-1.54.17-2.13.24,0,8.38,0,12.11,0,18.64,1.47-.1,2.2-.15,3.67-.26,4.05-.3,7.09-1.1,9.14-2.46,2.05-1.36,3.07-3.66,3.07-7.25,0-1.73-.26-3.21-.79-4.38-.52-1.17-1.27-2.11-2.25-2.81s-2.16-1.22-3.56-1.49c-1.4-.28-2.95-.4-4.65-.37Z"/>
    <path class="cls-4" d="m528.36,567.13c-.58-1.6-1.2-3.23-1.86-4.9-.67-1.67-1.33-3.34-1.99-5-8.11.75-12.17,1.12-20.28,1.84-.66,1.6-1.31,3.12-1.97,4.55-.66,1.43-1.27,2.73-1.84,3.9-4.85.06-7.28.1-12.14.16,1.95-3.1,3.81-7,5.56-11.11,1.75-4.1,3.47-8.52,5.15-13.14,1.68-4.62,3.33-9.35,4.96-13.97,1.63-4.63,3.32-9.32,5.07-13.93,4.43-.07,6.65-.1,11.08-.17,1.71,4.22,3.39,8.26,5.04,12.18,1.66,3.93,3.32,7.87,5,11.91,1.68,4.04,3.4,8.17,5.16,12.61,1.76,4.45,3.61,9.32,5.57,14.9-5.01.07-7.51.11-12.52.18Zm-14.04-37.79c-.26.88-.64,2.07-1.14,3.57-.5,1.5-1.07,3.21-1.71,5.11-.64,1.91-1.36,3.97-2.15,6.17-.79,2.19-1.6,4.34-2.42,6.52,5.94-.72,8.91-1.09,14.85-1.84-.79-2.05-1.56-4.03-2.31-6.01-.74-1.99-1.45-3.85-2.12-5.57-.67-1.72-1.26-3.28-1.76-4.65-.51-1.37-.91-2.47-1.22-3.28Z"/>
    <path class="cls-4" d="m566.5,514.18c7.79-.08,13.76.81,17.91,2.5,4.14,1.69,6.22,4.33,6.22,9.21,0,3.05-.84,5.92-2.51,8.34-1.67,2.42-4.08,4.66-7.23,6.43,1.05,1.28,2.15,2.78,3.3,4.58,1.15,1.79,2.28,3.75,3.41,5.9,1.12,2.15,2.21,4.5,3.26,7.09,1.05,2.59,2.02,5.26,2.92,8.01-5.23.07-7.84.1-13.06.17-.95-2.28-1.92-4.49-2.9-6.65-.98-2.16-1.98-4.16-3.01-6.03-1.03-1.87-2.04-3.57-3.05-5.12-1-1.55-2.01-2.9-3.01-4.07-2.31.28-3.46.42-5.77.7,0,8.05,0,12.33,0,21.41-4.68.07-7.01.1-11.69.16,0-17.08,0-34.17,0-51.25,2.55-.51,5.18-.85,7.9-1.05,2.72-.2,5.16-.3,7.3-.32Zm.67,8.01c-.85.07-1.61.15-2.29.25-.67.1-1.31.2-1.91.29,0,4.92,0,7.51,0,13,1.32-.17,1.98-.26,3.3-.43,4.39-.57,7.54-1.5,9.44-2.77,1.9-1.27,2.85-3.12,2.85-5.43,0-2.22-.96-3.58-2.88-4.29-1.92-.71-4.76-.92-8.5-.62Z"/>
    <path class="cls-4" d="m627.34,567.69c-8.44,0-14.87-4.11-19.29-10.63-4.42-6.52-6.63-15.02-6.63-23.74,0-4.34.67-7.61,2.02-10.3,1.35-2.69,3.2-4.64,5.54-6.06,2.35-1.42,5.14-2.19,8.39-2.71,3.25-.51,6.77-.73,10.56-.73,2.2,0,4.2.06,5.99.18,1.8.13,3.37.27,4.72.45,1.35.17,2.47.36,3.37.55.9.19,1.55.35,1.95.46-1.35,1.69-2.02,2.68-3.37,5.02-1.6-.51-3.46-.93-5.58-1.26-2.12-.33-4.53-.48-7.23-.45-1.8.02-3.56.22-5.28.61-1.72.4-3.25,1.03-4.57,1.97-1.32.94-2.39,2.22-3.18,3.95-.8,1.73-1.2,3.98-1.2,6.92,0,2.36.26,4.84.79,7.22.52,2.38,1.37,4.56,2.55,6.45,1.17,1.89,2.71,3.46,4.61,4.63,1.9,1.17,4.2,1.76,6.89,1.73,1.7-.02,3.22-.18,4.57-.47,1.35-.3,2.55-.64,3.6-1.04,1.05-.4,1.97-.84,2.77-1.34.8-.49,1.52-.95,2.17-1.37,1.29,5.19,1.93,7.95,3.22,13.77-1.65,1.55-3.97,2.97-6.97,4.24-3,1.28-6.47,1.93-10.41,1.93Z"/>
    <path class="cls-4" d="m687.27,514.17c4.67.03,7.01.05,11.69.1,0,17.33,0,34.66,0,51.99-4.67-.04-7.01-.06-11.69-.09,0-10.21,0-20.42,0-30.63-7.85-.47-11.78-.61-19.63-.74,0,10.42,0,20.85,0,31.27-4.67-.02-7.01-.03-11.69-.04,0-17.34,0-34.67,0-52.01,4.68.01,7.01.02,11.69.04,0,3.44,0,5.7,0,11.27,7.85.15,11.78.29,19.63.75,0-5.58,0-7.96,0-11.91Z"/>
    <path class="cls-4" d="m714.69,566.4c0-17.32,0-34.65,0-51.97,11.69.14,23.38.33,35.06.56v9.58c-9.35-1.17-14.02-1.67-23.37-2.51v8.17c8.3,1.26,12.45,2.01,20.75,3.76v9.5c-8.3-1.89-12.45-2.7-20.75-4.05v14.94c10.04.89,15.06,1.43,25.1,2.7v9.87c-12.26-.23-24.52-.41-36.79-.54Z"/>
  </g>
  <g>
    <path class="cls-1" d="m306.35,514.19c.98,2.02,1.91,4.07,2.79,6.14l-.29-.68c2.66,6.33,4.81,12.87,6.4,19.54.45,1.91.86,3.83,1.23,5.75.28,1.47,2.13,2.44,3.51,1.99,1.57-.51,2.29-1.93,1.99-3.51-1.61-8.53-4.11-16.89-7.45-24.9-1.02-2.44-2.09-4.85-3.24-7.22-.65-1.35-2.68-1.81-3.9-1.02-1.38.89-1.72,2.46-1.02,3.9h0Z"/>
    <path class="cls-1" d="m307.37,515.22c5.6,2.48,10.96,5.46,16.08,8.81,1.46.96,2.91,1.95,4.33,2.96.57.41,1.55.47,2.2.29s1.38-.69,1.7-1.31c.78-1.47.28-2.98-1.02-3.9-4.98-3.55-10.2-6.77-15.67-9.53-1.56-.79-3.14-1.54-4.74-2.24-.72-.32-1.4-.51-2.2-.29-.66.18-1.38.69-1.7,1.31-.35.66-.52,1.46-.29,2.2.21.66.65,1.41,1.31,1.7h0Z"/>
    <path class="cls-1" d="m331.97,525.29c.89-6.12,2.55-12.13,4.94-17.83l-.29.68c1-2.37,2.13-4.67,3.4-6.91.74-1.3.35-3.18-1.02-3.9-1.35-.71-3.12-.36-3.9,1.02-3.47,6.12-6,12.81-7.56,19.67-.43,1.9-.79,3.82-1.07,5.75-.11.79-.13,1.48.29,2.2.35.59,1.02,1.16,1.7,1.31.73.17,1.55.13,2.2-.29.58-.37,1.21-.99,1.31-1.7h0Z"/>
    <path class="cls-1" d="m351.22,518.26c-1.28-6.21-4.18-11.98-8.2-16.86-1.06-1.29-2.22-2.5-3.45-3.63-1.1-1.01-2.96-1.17-4.03,0-1.01,1.1-1.18,2.96,0,4.03.93.85,1.82,1.76,2.66,2.71.44.49.85,1,1.26,1.52.36.45-.42-.55-.07-.1.09.12.18.24.27.36.2.26.39.53.58.8,1.47,2.1,2.7,4.35,3.7,6.7l-.29-.68c.9,2.15,1.59,4.38,2.06,6.66.3,1.46,2.11,2.44,3.51,1.99,1.55-.5,2.31-1.94,1.99-3.51h0Z"/>
    <path class="cls-1" d="m350.49,521.04c4.75-5.77,9.84-11.25,15.24-16.41,1.08-1.03,1.12-3.01,0-4.03-1.16-1.06-2.88-1.1-4.03,0-5.4,5.16-10.49,10.64-15.24,16.41-.49.6-.84,1.21-.84,2.02,0,.7.31,1.54.84,2.02,1.05.96,3.02,1.23,4.03,0h0Z"/>
    <path class="cls-1" d="m360.87,502.61c.13,6.29.03,12.58-.29,18.86-.08,1.49,1.37,2.92,2.85,2.85,1.61-.07,2.77-1.25,2.85-2.85.32-6.28.42-12.57.29-18.86-.03-1.49-1.29-2.92-2.85-2.85s-2.88,1.25-2.85,2.85h0Z"/>
    <path class="cls-1" d="m322.28,556.92c1.11-.5,2.23-.99,3.35-1.47l-.68.29c7.87-3.32,16.05-5.9,24.4-7.7,2.39-.51,4.78-.96,7.19-1.34.66-.11,1.38-.76,1.7-1.31.36-.61.51-1.51.29-2.2-.22-.69-.65-1.36-1.31-1.7-.72-.38-1.4-.42-2.2-.29-9.44,1.51-18.71,4-27.63,7.44-2.7,1.04-5.36,2.16-7.99,3.36-.61.28-1.14,1.08-1.31,1.7-.19.68-.1,1.59.29,2.2.39.61.98,1.14,1.7,1.31.79.18,1.46.05,2.2-.29h0Z"/>
  </g>
  <g>
    <path class="cls-2" d="m681.32,383.39c-.57,1.77-1.18,3.52-1.84,5.25l.22-.57c-2.02,5.29-4.47,10.4-7.33,15.29-.82,1.39-1.67,2.77-2.55,4.13-.67,1.03-.12,2.66.95,3.19,1.22.59,2.47.15,3.19-.95,3.9-6,7.18-12.4,9.75-19.08.78-2.03,1.52-4.08,2.19-6.15.38-1.17-.56-2.61-1.74-2.83-1.33-.26-2.43.49-2.83,1.74h0Z"/>
    <path class="cls-2" d="m681.34,384.58c1.92,4.67,3.41,9.5,4.55,14.41.33,1.41.62,2.82.89,4.23.11.57.66,1.16,1.15,1.42s1.22.37,1.76.19c1.3-.43,1.86-1.61,1.61-2.91-.94-4.96-2.22-9.85-3.9-14.61-.48-1.36-1-2.71-1.55-4.04-.25-.6-.55-1.1-1.15-1.42-.5-.27-1.22-.37-1.76-.19-.59.19-1.15.57-1.42,1.15-.25.52-.42,1.21-.19,1.76h0Z"/>
    <path class="cls-2" d="m690.26,404.6c4.02-3.14,8.43-5.77,13.11-7.8l-.56.24c1.94-.84,3.93-1.57,5.96-2.18,1.18-.35,2.02-1.69,1.61-2.91s-1.65-1.99-2.91-1.61c-5.55,1.67-10.88,4.22-15.71,7.41-1.34.89-2.65,1.83-3.92,2.82-.52.41-.92.81-1.08,1.47-.13.55-.05,1.27.27,1.75.34.52.85.96,1.47,1.08.56.11,1.28.1,1.75-.27h0Z"/>
    <path class="cls-2" d="m705.73,411.39c2.78-4.43,4.34-9.52,4.72-14.72.1-1.37.1-2.75.01-4.13-.08-1.23-1.1-2.38-2.4-2.3-1.23.08-2.39,1.09-2.3,2.4.07,1.04.09,2.09.04,3.13-.02.54-.06,1.08-.11,1.62-.04.47.07-.57.01-.1-.01.12-.03.25-.04.37-.03.27-.07.54-.11.81-.32,2.09-.87,4.13-1.61,6.1l.22-.57c-.69,1.79-1.55,3.52-2.57,5.15-.65,1.04-.14,2.66.95,3.19,1.21.58,2.48.16,3.19-.95h0Z"/>
    <path class="cls-2" d="m703.71,412.63c6.12-.73,12.27-1.09,18.43-1.09,1.23,0,2.38-1.15,2.3-2.4s-1.09-2.3-2.4-2.3c-6.16,0-12.32.36-18.43,1.09-.64.08-1.19.25-1.65.73-.4.42-.69,1.09-.65,1.68.08,1.17,1.1,2.45,2.4,2.3h0Z"/>
    <path class="cls-2" d="m720.4,407.57c-3.51,3.82-7.15,7.51-10.92,11.07-.9.85-.85,2.52.07,3.32,1,.87,2.36.83,3.32-.07,3.77-3.56,7.41-7.25,10.92-11.07.83-.91.9-2.48-.07-3.32-.94-.83-2.43-.9-3.32.07h0Z"/>
    <path class="cls-2" d="m666.45,417.93c.95.33,1.89.68,2.83,1.04l-.57-.22c6.58,2.51,12.92,5.63,18.92,9.32,1.71,1.05,3.4,2.16,5.05,3.3.45.31,1.25.34,1.76.19.56-.16,1.17-.61,1.42-1.15s.39-1.18.19-1.76c-.21-.64-.6-1.04-1.15-1.42-6.48-4.48-13.43-8.28-20.7-11.32-2.2-.92-4.43-1.77-6.67-2.56-.52-.18-1.3,0-1.75.27-.5.3-.97.89-1.08,1.47-.11.59-.07,1.24.27,1.75.37.56.85.86,1.47,1.08h0Z"/>
  </g>
  <g class="cls-5">
    <path class="cls-2" d="m500.34,450.03c.81,1.67,1.58,3.36,2.3,5.06l-.24-.56c2.19,5.22,3.96,10.61,5.27,16.11.37,1.57.71,3.15,1.01,4.74.23,1.21,1.75,2.01,2.89,1.64,1.29-.42,1.89-1.59,1.64-2.89-1.33-7.03-3.39-13.92-6.15-20.53-.84-2.01-1.72-4-2.67-5.96-.54-1.11-2.21-1.5-3.22-.84-1.14.73-1.42,2.03-.84,3.22h0Z"/>
    <path class="cls-2" d="m501.19,450.88c4.61,2.04,9.03,4.5,13.25,7.27,1.21.79,2.4,1.61,3.57,2.44.47.34,1.28.38,1.81.24s1.14-.57,1.41-1.08c.64-1.21.23-2.45-.84-3.22-4.11-2.93-8.41-5.59-12.92-7.86-1.29-.65-2.59-1.27-3.91-1.85-.6-.26-1.16-.42-1.81-.24-.55.15-1.14.57-1.41,1.08-.29.55-.43,1.21-.24,1.81.18.54.53,1.16,1.08,1.41h0Z"/>
    <path class="cls-2" d="m521.47,459.18c.73-5.05,2.1-10,4.07-14.7l-.24.56c.82-1.95,1.75-3.85,2.8-5.7.61-1.07.29-2.62-.84-3.22s-2.57-.3-3.22.84c-2.86,5.04-4.94,10.56-6.23,16.21-.36,1.57-.65,3.15-.88,4.74-.09.65-.11,1.22.24,1.81.29.49.84.95,1.41,1.08.6.14,1.28.11,1.81-.24.48-.31.99-.82,1.08-1.41h0Z"/>
    <path class="cls-2" d="m537.34,453.39c-1.05-5.12-3.45-9.88-6.76-13.9-.88-1.06-1.83-2.06-2.84-2.99-.91-.83-2.44-.96-3.33,0-.83.9-.97,2.44,0,3.33.77.7,1.5,1.45,2.19,2.23.36.41.7.83,1.04,1.25.3.37-.35-.46-.06-.08.08.1.15.2.23.3.16.22.32.44.48.66,1.21,1.73,2.23,3.58,3.05,5.52l-.24-.56c.74,1.77,1.31,3.61,1.7,5.49.25,1.21,1.74,2.02,2.89,1.64,1.28-.41,1.91-1.6,1.64-2.89h0Z"/>
    <path class="cls-2" d="m536.74,455.67c3.92-4.75,8.11-9.27,12.57-13.53.89-.85.92-2.48,0-3.33-.96-.88-2.37-.91-3.33,0-4.45,4.26-8.65,8.78-12.57,13.53-.41.49-.69,1-.69,1.66,0,.58.26,1.27.69,1.66.86.79,2.49,1.01,3.33,0h0Z"/>
    <path class="cls-2" d="m545.29,440.48c.11,5.18.03,10.37-.24,15.55-.06,1.23,1.13,2.41,2.35,2.35,1.33-.06,2.28-1.03,2.35-2.35.26-5.18.34-10.37.24-15.55-.03-1.23-1.06-2.41-2.35-2.35s-2.38,1.03-2.35,2.35h0Z"/>
    <path class="cls-2" d="m513.48,485.26c.92-.42,1.84-.82,2.76-1.21l-.56.24c6.49-2.73,13.23-4.87,20.11-6.35,1.97-.42,3.94-.79,5.93-1.11.55-.09,1.14-.62,1.41-1.08.29-.5.42-1.25.24-1.81-.18-.57-.54-1.12-1.08-1.41-.59-.31-1.15-.34-1.81-.24-7.78,1.24-15.43,3.3-22.78,6.14-2.22.86-4.42,1.78-6.59,2.77-.5.23-.94.89-1.08,1.41-.15.56-.09,1.31.24,1.81s.81.94,1.41,1.08c.65.15,1.21.04,1.81-.24h0Z"/>
  </g>
  <g>
    <path class="cls-2" d="m392.69,675.54c0,1.85-.04,3.71-.14,5.56l.03-.61c-.3,5.65-1.06,11.27-2.28,16.8-.35,1.58-.74,3.15-1.16,4.71-.32,1.19.7,2.57,1.89,2.74,1.35.19,2.39-.61,2.74-1.89,1.87-6.91,3.02-14.01,3.42-21.15.12-2.17.19-4.35.19-6.52,0-1.23-1.33-2.31-2.53-2.16-1.34.16-2.16,1.21-2.16,2.53h0Z"/>
    <path class="cls-2" d="m393.08,676.66c3.26,3.85,6.17,7.99,8.76,12.32.74,1.24,1.46,2.49,2.15,3.76.28.51.98.9,1.53,1s1.27-.02,1.74-.36c1.1-.81,1.28-2.11.64-3.26-2.42-4.43-5.14-8.69-8.2-12.7-.88-1.15-1.78-2.27-2.71-3.37-.42-.5-.86-.88-1.53-1-.56-.1-1.27.02-1.74.36-.5.37-.92.9-1,1.53-.08.57-.03,1.28.36,1.74h0Z"/>
    <path class="cls-2" d="m407.71,692.98c2.86-4.22,6.25-8.08,10.08-11.45l-.46.4c1.59-1.4,3.26-2.7,5-3.91,1.01-.7,1.4-2.23.64-3.26s-2.18-1.39-3.26-.64c-4.77,3.29-9.05,7.35-12.68,11.88-1.01,1.26-1.96,2.55-2.86,3.88-.37.55-.63,1.05-.58,1.73.04.56.34,1.23.79,1.59.48.39,1.1.65,1.73.58.56-.07,1.25-.3,1.59-.79h0Z"/>
    <path class="cls-2" d="m424.53,694.69c1.28-5.07,1.2-10.39-.02-15.46-.32-1.34-.75-2.65-1.26-3.93-.45-1.14-1.78-1.93-2.99-1.45-1.14.45-1.94,1.77-1.45,2.99.39.97.72,1.96,1,2.96.15.52.27,1.05.39,1.58.11.46-.11-.56-.02-.1.02.12.05.25.07.37.05.27.1.53.14.8.34,2.08.44,4.2.34,6.3l.03-.61c-.1,1.92-.39,3.82-.86,5.69-.3,1.19.69,2.57,1.89,2.74,1.33.18,2.41-.61,2.74-1.89h0Z"/>
    <path class="cls-2" d="m422.98,696.48c5.6-2.57,11.35-4.81,17.21-6.7,1.17-.38,1.91-1.83,1.45-2.99-.48-1.21-1.74-1.85-2.99-1.45-5.86,1.89-11.61,4.13-17.21,6.7-.58.27-1.06.6-1.34,1.2-.25.52-.32,1.25-.11,1.8.43,1.09,1.8,2,2.99,1.45h0Z"/>
    <path class="cls-2" d="m437.31,686.54c-2.16,4.71-4.5,9.35-6.99,13.89-.59,1.08-.04,2.66,1.09,3.14,1.22.53,2.51.07,3.14-1.09,2.5-4.55,4.83-9.18,6.99-13.89.51-1.12.09-2.63-1.09-3.14s-2.59-.11-3.14,1.09h0Z"/>
    <path class="cls-2" d="m389.15,712.97c1.01.03,2.01.06,3.02.11l-.61-.03c7.03.37,14.03,1.39,20.87,3.06,1.95.48,3.9,1.01,5.82,1.59.53.16,1.3-.07,1.74-.36.49-.32.92-.94,1-1.53s0-1.24-.36-1.74c-.4-.54-.89-.81-1.53-1-7.55-2.27-15.32-3.76-23.18-4.41-2.37-.2-4.75-.32-7.14-.38-.55-.01-1.24.39-1.59.79-.38.44-.65,1.14-.58,1.73.07.59.31,1.2.79,1.59.52.42,1.07.56,1.73.58h0Z"/>
  </g>
  <g class="cls-6">
    <path class="cls-2" d="m624.36,684.39c1.56,1,3.09,2.05,4.59,3.13l-.49-.36c4.58,3.32,8.9,7.01,12.87,11.03,1.14,1.15,2.25,2.33,3.33,3.53.82.92,2.54.81,3.32-.1.89-1.03.78-2.34-.1-3.32-4.79-5.32-10.13-10.14-15.91-14.35-1.76-1.28-3.55-2.52-5.38-3.7-1.04-.67-2.66-.13-3.19.95-.59,1.22-.16,2.47.95,3.19h0Z"/>
    <path class="cls-2" d="m625.52,684.68c5-.65,10.06-.84,15.1-.68,1.44.05,2.88.13,4.32.23.58.04,1.29-.33,1.67-.74s.67-1.08.64-1.65c-.08-1.37-1.08-2.21-2.39-2.31-5.03-.37-10.09-.4-15.12,0-1.44.11-2.87.26-4.3.45-.65.08-1.2.24-1.67.74-.39.41-.67,1.08-.64,1.65.04.62.26,1.26.74,1.67.43.37,1.06.72,1.65.64h0Z"/>
    <path class="cls-2" d="m647.16,681.24c-1.99-4.69-3.4-9.63-4.15-14.68l.09.6c-.31-2.1-.5-4.2-.57-6.32-.04-1.23-1.11-2.39-2.39-2.31s-2.35,1.08-2.31,2.39c.17,5.8,1.26,11.6,3.1,17.09.51,1.53,1.08,3.03,1.71,4.51.26.61.54,1.1,1.14,1.43.5.27,1.22.38,1.76.19.59-.2,1.15-.57,1.43-1.14.25-.51.43-1.21.19-1.76h0Z"/>
    <path class="cls-2" d="m657.72,668.04c-3.56-3.83-8.08-6.65-13-8.37-1.3-.45-2.63-.81-3.98-1.08-1.21-.24-2.59.44-2.84,1.73-.24,1.2.44,2.59,1.73,2.84,1.02.2,2.04.46,3.03.77.52.16,1.03.34,1.54.53.44.16-.53-.21-.09-.04.12.05.23.09.35.14.25.1.5.21.75.32,1.93.85,3.77,1.9,5.48,3.14l-.49-.36c1.56,1.13,3,2.4,4.31,3.81.84.9,2.53.82,3.32-.1.88-1.02.8-2.36-.1-3.32h0Z"/>
    <path class="cls-2" d="m658.39,670.31c.88-6.1,2.12-12.14,3.71-18.09.32-1.19-.5-2.6-1.73-2.84s-2.5.46-2.84,1.73c-1.59,5.95-2.83,11.99-3.71,18.09-.09.63-.07,1.21.28,1.78.3.49.88.95,1.45,1.06,1.15.23,2.65-.43,2.84-1.73h0Z"/>
    <path class="cls-2" d="m657.81,652.89c2.78,4.37,5.41,8.85,7.87,13.41.59,1.08,2.21,1.47,3.23.79,1.1-.74,1.42-2.07.79-3.23-2.46-4.56-5.09-9.04-7.87-13.41-.66-1.04-2.16-1.51-3.23-.79s-1.5,2.12-.79,3.23h0Z"/>
    <path class="cls-2" d="m653.88,707.67c.57-.83,1.14-1.65,1.73-2.47l-.36.49c4.12-5.71,8.78-11.03,13.89-15.87,1.46-1.38,2.96-2.73,4.49-4.03.42-.36.65-1.13.64-1.65,0-.58-.29-1.28-.74-1.67s-1.04-.68-1.65-.64c-.67.04-1.16.31-1.67.74-6,5.1-11.47,10.83-16.28,17.08-1.45,1.89-2.85,3.82-4.19,5.79-.31.46-.34,1.25-.19,1.76.16.56.61,1.17,1.14,1.43s1.18.39,1.76.19c.63-.21,1.05-.59,1.43-1.14h0Z"/>
  </g>
</svg>