<?xml version="1.0" encoding="UTF-8"?>
<svg id="MEGA_HITS_LOGO" data-name="MEGA HITS LOGO" xmlns="http://www.w3.org/2000/svg" viewBox="0 0 1080 1080">
  <defs>
    <style>
      .cls-1 {
        fill: #fff;
        stroke-width: 0px;
      }
    </style>
  </defs>
  <g>
    <path class="cls-1" d="m283.73,581.59c2.52,4.6,5.42,10.29,8.71,17.06,3.29,6.77,6.71,14.09,10.28,21.98,3.57,7.88,7.1,15.94,10.6,24.17,3.5,8.23,6.78,15.98,9.86,23.23,3.08-7.25,6.36-15,9.86-23.23,3.5-8.23,7.03-16.29,10.6-24.17,3.57-7.88,6.99-15.21,10.28-21.98,3.29-6.77,6.19-12.45,8.71-17.06h29.72c1.39,9.63,2.69,20.41,3.87,32.33,1.18,11.93,2.23,24.35,3.14,37.25.91,12.91,1.74,25.85,2.51,38.82.77,12.98,1.43,25.19,1.99,36.63h-31.81c-.42-14.09-.98-29.44-1.67-46.04-.7-16.6-1.75-33.35-3.14-50.23-2.52,5.86-5.32,12.35-8.4,19.46-3.08,7.12-6.12,14.23-9.13,21.35-3.01,7.12-5.91,13.92-8.71,20.41-2.8,6.49-5.18,12.03-7.14,16.64h-22.81c-1.96-4.6-4.34-10.15-7.14-16.64s-5.71-13.29-8.71-20.41c-3.01-7.12-6.05-14.23-9.13-21.35-3.08-7.12-5.88-13.6-8.4-19.46-1.4,16.88-2.44,33.63-3.14,50.23-.7,16.61-1.26,31.95-1.67,46.04h-31.81c.56-11.44,1.22-23.65,1.99-36.63.77-12.98,1.6-25.92,2.51-38.82.91-12.9,1.95-25.32,3.14-37.25,1.18-11.93,2.48-22.71,3.87-32.33h31.18Z"/>
    <path class="cls-1" d="m432.95,726.63v-145.04h97.95v27.42h-65.3v28.46h57.97v26.79h-57.97v34.95h70.11v27.42h-102.76Z"/>
    <path class="cls-1" d="m630.52,606.71c-15.21,0-26.2,4.22-32.96,12.66-6.77,8.44-10.15,19.99-10.15,34.64,0,7.12.84,13.57,2.51,19.36,1.67,5.79,4.19,10.78,7.53,14.96,3.35,4.19,7.53,7.43,12.56,9.73,5.02,2.3,10.88,3.45,17.58,3.45,3.63,0,6.73-.07,9.31-.21,2.58-.14,4.85-.42,6.8-.84v-50.44h32.65v71.79c-3.91,1.54-10.19,3.17-18.84,4.92-8.65,1.74-19.33,2.62-32.02,2.62-10.88,0-20.76-1.67-29.61-5.02-8.86-3.35-16.43-8.23-22.71-14.65-6.28-6.42-11.13-14.3-14.55-23.65-3.42-9.35-5.13-20.02-5.13-32.02s1.88-22.88,5.65-32.23c3.77-9.35,8.93-17.27,15.49-23.75,6.56-6.49,14.26-11.41,23.13-14.75,8.86-3.35,18.31-5.02,28.36-5.02,6.83,0,13.01.45,18.52,1.36,5.51.91,10.25,1.96,14.23,3.14,3.98,1.19,7.25,2.41,9.84,3.66,2.58,1.26,4.43,2.23,5.55,2.93l-9.42,26.16c-4.47-2.37-9.59-4.43-15.38-6.17-5.79-1.74-12.11-2.62-18.94-2.62Z"/>
    <path class="cls-1" d="m804,726.63c-1.62-5.04-3.35-10.22-5.21-15.53-1.86-5.31-3.71-10.6-5.55-15.87h-56.65c-1.83,5.29-3.67,10.59-5.51,15.91-1.84,5.32-3.55,10.48-5.14,15.48h-33.91c5.46-15.62,10.63-30.07,15.53-43.32,4.9-13.25,9.69-25.74,14.38-37.46,4.69-11.72,9.31-22.84,13.86-33.38,4.55-10.53,9.27-20.82,14.17-30.87h30.95c4.76,10.05,9.46,20.34,14.09,30.87,4.62,10.54,9.29,21.66,13.98,33.38,4.7,11.72,9.5,24.21,14.4,37.46,4.91,13.26,10.09,27.7,15.56,43.32h-34.97Zm-39.23-112.18c-.73,2.11-1.8,4.97-3.2,8.6-1.4,3.63-3,7.82-4.79,12.57-1.79,4.75-3.8,9.98-6.01,15.7-2.21,5.71-4.46,11.7-6.75,17.97h41.48c-2.22-6.29-4.37-12.3-6.45-18.03-2.08-5.73-4.06-10.97-5.93-15.73-1.87-4.75-3.52-8.94-4.93-12.56-1.41-3.62-2.55-6.46-3.42-8.52Z"/>
  </g>
  <g>
    <path class="cls-1" d="m358.62,885.07h-17.49v-94.33h17.49v38.17h41.36v-38.17h17.49v94.33h-17.49v-39.31h-41.36v39.31Z"/>
    <path class="cls-1" d="m481.03,885.07v-94.33h17.49v94.33h-17.49Z"/>
    <path class="cls-1" d="m580.21,885.07v-77.48h-27.19v-16.85h71.99v16.85h-27.19v77.48h-17.62Z"/>
    <path class="cls-1" d="m705.04,886.6c-7.23,0-13.91-1.55-20.04-4.66-6.13-3.11-11.06-7.55-14.81-13.34l10.47-12c6.04,9.11,14.21,13.66,24.51,13.66,4.25,0,7.72-1.04,10.4-3.13,2.68-2.08,4.02-4.7,4.02-7.85,0-4.25-2.94-7.83-8.81-10.72-1.45-.68-4.55-1.96-9.32-3.83-4.77-1.96-8.47-3.7-11.11-5.23-9.87-5.79-14.81-13.53-14.81-23.23,0-7.74,2.89-14.17,8.68-19.27,5.7-5.19,13.23-7.79,22.59-7.79,12.25,0,22.34,4.34,30.25,13.02l-9.7,12.51c-2.55-2.89-5.68-5.15-9.38-6.76-3.7-1.62-7.34-2.43-10.91-2.43-3.83,0-6.92.92-9.25,2.75-2.34,1.83-3.51,4.23-3.51,7.21,0,4,2.59,7.32,7.79,9.96l9.96,4.6c4,1.62,7.74,3.32,11.23,5.11,10.38,5.28,15.57,12.98,15.57,23.1,0,8.34-3.15,15.15-9.45,20.42-6.3,5.28-14.42,7.91-24.38,7.91Z"/>
  </g>
  <polygon class="cls-1" points="401.53 517.46 703.87 482.76 792.34 193.4 648.24 385.32 528.75 227.99 454.49 393.46 287.66 227.53 401.53 517.46"/>
</svg>